<svg width="40" height="38" viewBox="0 0 40 38" fill="none" xmlns="http://www.w3.org/2000/svg">
<path d="M27.4477 37.9843C25.6339 37.9339 23.9287 37.1239 22.735 35.7597C20.5259 33.3956 20.9019 30.4889 21.6072 28.7604C19.1656 26.3537 12.3059 19.7032 10.2402 17.7189C7.40714 19.0444 4.52372 18.5522 2.0356 16.2888C-0.45251 14.0255 -0.677293 10.1422 1.45814 7.39441C2.76033 5.67366 4.92678 4.84429 7.04671 5.2551C7.32575 3.35219 8.46904 1.6857 10.1472 0.743935C12.395 -0.507873 15.0343 -0.162947 17.034 1.65082C20.1345 4.46835 19.4989 7.82072 18.437 9.78951C20.4523 11.6769 26.4749 17.2577 29.6103 20.1605C32.8309 18.1956 37.0358 19.211 39.0008 22.4316C39.1829 22.73 39.3418 23.0401 39.4775 23.3656C40.2603 25.1833 39.9968 27.2838 38.7876 28.8534C37.218 30.9811 35.2608 31.5082 33.6835 31.4152C33.8346 32.7484 33.482 34.2094 31.955 35.8798C30.8194 37.1898 29.1878 37.9571 27.4554 37.9998L27.4477 37.9843ZM10.434 15.2269C10.7246 15.2269 11.0037 15.3432 11.2091 15.5447C11.3137 15.6455 21.8165 25.7956 23.7582 27.7373C24.1186 28.1016 24.1883 28.6635 23.9248 29.1053C23.8589 29.2177 22.2777 31.9888 24.3705 34.2288C25.2968 35.221 26.3587 35.7442 27.4438 35.7442H27.4632C28.5677 35.7093 29.6064 35.2016 30.3156 34.349C31.8658 32.6476 31.6294 31.6361 31.0907 30.2835C30.8582 29.7099 31.1334 29.0588 31.7069 28.8224C32.0092 28.6984 32.3503 28.7139 32.641 28.865C32.8851 28.9852 35.1639 30.0045 37.0048 27.5086C37.7451 26.5707 37.9078 25.3034 37.4312 24.2105C36.8149 22.7804 35.5321 21.7495 34.0051 21.4588C32.703 21.2108 31.3581 21.5557 30.335 22.3967C29.9048 22.8114 29.2266 22.8192 28.7848 22.4161C28.2964 21.9665 16.8519 11.3707 16.2202 10.7429C15.821 10.3398 15.7822 9.70812 16.1272 9.25855C16.3752 8.93688 18.4835 5.97595 15.5497 3.30956C13.7011 1.63532 11.9338 2.32904 11.2595 2.70497C9.8565 3.4452 9.06588 4.98768 9.28679 6.56116C9.39918 7.16962 9 7.75483 8.39153 7.86723C8.15512 7.90986 7.91096 7.87885 7.69393 7.77421C7.42264 7.64632 4.94615 6.56116 3.22928 8.77023C1.80307 10.5995 1.94259 13.1768 3.5432 14.6301C5.52361 16.4322 7.6513 16.6841 9.86425 15.3819C10.0386 15.2773 10.2324 15.2231 10.434 15.2269Z" fill="#231F20"/>
</svg>
