<svg width="78" height="54" viewBox="0 0 78 54" fill="none" xmlns="http://www.w3.org/2000/svg">
<path d="M76.6887 12.1378C77.3137 12.1378 77.6527 11.8306 77.7481 11.375C77.8434 10.9195 77.5044 10.5487 76.89 10.4534C76.2939 10.3619 75.6922 10.3124 75.0891 10.3051C73.8179 10.3051 72.5467 10.3898 71.2331 10.4322C71.0107 10.0085 70.7988 9.55297 70.5552 9.11864C68.7043 5.90417 66.0693 3.2109 62.8961 1.29011C62.43 0.972304 61.9745 0.633315 61.5401 0.230765C61.3978 0.102787 61.2183 0.0235189 61.0278 0.00446962C60.8373 -0.0145797 60.6457 0.0275812 60.4808 0.124831C60.0731 0.358878 59.6867 0.62828 59.3261 0.92993C58.0387 2.07254 57.1297 3.58011 56.7201 5.25204C56.6248 5.63341 56.5083 6.01477 56.4341 6.31138L50.9997 7.07411C50.9044 6.9258 50.7878 6.7669 50.6819 6.59741C49.7707 5.21896 48.543 4.07845 47.1013 3.27107C46.8611 3.08079 46.5844 2.94193 46.2883 2.86311C45.9921 2.78429 45.683 2.76719 45.38 2.81289C45.077 2.85859 44.7866 2.9661 44.5269 3.12875C44.2672 3.2914 44.0437 3.50571 43.8703 3.75837C42.7066 5.02492 41.8766 6.56127 41.455 8.22879C41.3491 8.64194 41.2538 9.06567 41.1478 9.47881C41.0316 9.48952 40.9145 9.48952 40.7982 9.47881C36.8984 8.44271 32.826 8.22629 28.8383 8.84321C22.8239 9.61229 17.083 11.8178 12.1007 15.2734C5.37388 19.871 1.07295 25.9728 0.151322 34.1932C-0.135202 36.0722 -0.0138637 37.9909 0.507092 39.8188C1.02805 41.6467 1.93641 43.341 3.17044 44.7867C6.57261 48.6752 11.0111 51.5154 15.9673 52.9754C17.9668 53.5931 20.0868 53.7131 22.1432 53.325C25.7556 52.6788 28.8277 51.2063 30.4909 47.5304C33.8278 48.0494 37.1011 47.4032 40.4487 46.9371C40.4743 47.2964 40.6117 47.6387 40.8415 47.916C41.0714 48.1934 41.3822 48.3919 41.7305 48.4838C42.8637 48.991 44.032 49.4159 45.2263 49.755C48.5844 50.5601 51.9637 51.2698 55.3324 51.9902C57.0634 52.4295 58.8433 52.6467 60.6291 52.6364C61.3849 52.6433 62.1245 52.4177 62.7478 51.9902C62.9917 51.8138 63.2757 51.7009 63.5741 51.6618C64.6761 51.5358 65.7383 51.1745 66.6886 50.6024C70.1762 48.6803 73.0538 45.8173 74.9938 42.3396C75.5699 41.2435 75.9567 40.0581 76.1379 38.8332C76.3512 37.4066 76.4222 35.9623 76.3497 34.5216C76.212 30.6656 75.979 26.8096 75.7671 22.9642C75.7671 22.2651 75.6718 21.5553 75.6082 20.8455C75.5235 19.8921 75.0785 19.6061 74.1993 19.9239C73.8921 20.0299 73.5849 20.157 73.2882 20.2735C72.2289 18.568 72.0488 17.7417 72.3137 16.5128L75.1421 17.7946C75.4427 17.9451 75.7589 18.0624 76.0849 18.1442C76.2662 18.1964 76.4605 18.1785 76.6293 18.0942C76.798 18.0098 76.9289 17.8651 76.9959 17.6887C77.0838 17.5235 77.1097 17.3323 77.0689 17.1497C77.0281 16.967 76.9233 16.805 76.7735 16.6929C76.5203 16.4897 76.2427 16.3189 75.9472 16.1844C74.8879 15.7183 73.8285 15.2734 72.7692 14.7861C72.5112 14.6751 72.301 14.4761 72.1759 14.2247C71.9959 13.5891 71.9217 12.9217 71.7946 12.2013C72.1442 12.2013 72.4408 12.1378 72.7374 12.1378C74.0722 12.1272 75.3857 12.1589 76.6887 12.1378ZM70.7988 18.9917L71.6145 21.0362C70.2268 21.7884 68.839 22.4452 67.5572 23.2714C66.2754 24.0977 65.1525 25.0617 64.0614 25.8986C64.2944 24.2354 68.5318 19.8498 70.7988 18.9917ZM22.5776 51.344L20.2047 51.6512L20.8614 43.6638L22.8212 43.3671C22.7047 46.0579 22.6411 48.6321 22.5776 51.344ZM28.2768 47.6575C27.5601 48.8387 26.494 49.7678 25.2259 50.3164C25.2259 47.9117 25.2259 45.2104 25.8615 43.7061C26.9015 43.9357 27.8081 44.568 28.3828 45.4646C28.5671 45.805 28.6547 46.1893 28.636 46.5759C28.6173 46.9624 28.4931 47.3365 28.2768 47.6575ZM52.9277 49.7762C49.8641 49.201 46.8446 48.4116 43.8915 47.4138L43.2347 47.1808C42.9607 47.1089 42.7192 46.9461 42.5498 46.7189C42.3804 46.4918 42.2932 46.2139 42.3025 45.9308C42.3025 44.3206 42.0801 42.7527 41.9953 41.1107C41.8258 37.9963 41.6351 34.8818 41.5292 31.7674C41.4656 29.8605 41.5292 27.9431 41.5292 26.0257C41.5428 25.9002 41.5676 25.7761 41.6033 25.655C43.828 25.655 52.79 27.7736 55.8091 29.0448C55.6627 36.2253 55.9705 43.4079 56.7307 50.5495L52.9277 49.7762ZM42.4084 23.5998V22.9007C46.2749 22.6286 50.1102 23.7566 53.2137 26.0787L42.4084 23.5998ZM49.8238 22.0638C47.4333 21.2739 44.9255 20.8977 42.4084 20.9515C42.2013 20.929 41.9917 20.9507 41.7935 21.0152C41.5953 21.0798 41.4131 21.1856 41.2589 21.3258C41.1047 21.466 40.982 21.6373 40.899 21.8284C40.8159 22.0196 40.7743 22.2262 40.7771 22.4346C40.721 23.1799 40.5003 23.9035 40.1309 24.5532C40.0003 24.7825 39.931 25.0415 39.9296 25.3054C39.8554 27.5194 39.6965 29.744 39.7495 31.9474C39.8448 35.4327 40.0885 38.9179 40.2474 42.4031V45.2104C37.0694 45.6871 33.8913 46.3227 30.6498 45.7083C30.5756 45.6341 30.5015 45.6024 30.4803 45.5388C29.6964 43.2506 27.8955 42.2231 25.6814 41.7358C23.9954 41.4163 22.2621 41.4415 20.586 41.8099C19.7601 41.9493 18.943 42.1368 18.1389 42.3714C17.1538 42.668 17.0054 43.3354 17.6834 44.0875C17.8433 44.2341 17.9448 44.4335 17.9694 44.649V51.4287C17.5139 51.3652 17.1643 51.344 16.8254 51.2592C13.263 50.2515 9.95791 48.4923 7.13238 46.1002C5.26704 44.6689 3.79467 42.7883 2.85264 40.634C1.92677 38.2763 1.70236 35.7011 2.20644 33.2187C3.09779 27.8857 5.79875 23.0225 9.85489 19.4472C9.95866 19.3681 10.0685 19.2973 10.1833 19.2353C10.5858 19.9981 10.9566 20.7396 11.3803 21.4494C11.5331 21.7259 11.7818 21.937 12.0795 22.0426C13.2118 22.2711 14.3884 22.0427 15.3529 21.407C15.9606 21.0391 16.4275 20.4781 16.679 19.8137C16.9306 19.1493 16.9522 18.4198 16.7406 17.7417C16.434 16.8859 16.0803 16.0478 15.6813 15.231L17.2279 14.3836C17.3559 14.7774 17.5081 15.163 17.6834 15.5382C18.0368 16.2554 18.459 16.9366 18.944 17.5722C19.2699 17.9928 19.7375 18.2806 20.2599 18.382C20.7822 18.4833 21.3236 18.3913 21.7831 18.123C22.7508 17.7278 23.5315 16.9787 23.9664 16.0281C24.4013 15.0776 24.4578 13.9971 24.1242 13.0064C24.0183 12.6568 23.8912 12.3178 23.7534 11.9471C24.8788 11.5045 26.052 11.1952 27.2493 11.0255C29.8477 10.493 32.5024 10.2866 35.152 10.411C36.9987 10.4601 38.8289 10.774 40.5864 11.3433C40.8987 11.4611 41.2276 11.529 41.561 11.5445C41.8517 11.5608 42.1381 11.4676 42.3635 11.2833C42.589 11.099 42.7373 10.8369 42.7792 10.5487C42.9381 9.93433 43.0229 9.29872 43.1712 8.68431C43.4911 7.40848 44.1 6.22328 44.9509 5.22026C45.4699 4.60584 45.6077 4.58466 46.3174 5.00839C47.6435 5.76241 48.7414 6.86036 49.4954 8.18642C50.0887 9.24576 50.2264 9.24576 51.434 9.00211C52.6417 8.75846 54.1248 8.49363 55.4807 8.27116C55.9137 8.22349 56.3507 8.22349 56.7837 8.27116C57.7159 8.34532 57.9808 8.13345 58.0973 7.21182C58.2451 5.25739 59.1543 3.43909 60.6291 2.14817C63.4364 3.3982 68.0445 7.44488 69.2839 11.0255C69.0403 11.142 68.7755 11.2691 68.5318 11.4174C68.294 11.5371 68.0702 11.6828 67.8644 11.8517C67.7017 11.969 67.5902 12.1442 67.5527 12.3413C67.5153 12.5384 67.5548 12.7423 67.6631 12.9111C67.744 13.0809 67.8863 13.2137 68.0614 13.2826C68.2364 13.3514 68.4311 13.3512 68.606 13.2818C69.0191 13.1653 69.4111 12.9746 69.9301 12.784L70.2479 14.0234C69.9285 14.0351 69.61 14.067 69.2945 14.1187C69.1092 14.1421 68.9389 14.2326 68.8158 14.3732C68.6928 14.5138 68.6257 14.6947 68.6271 14.8815C68.6109 15.0681 68.6649 15.254 68.7785 15.4029C68.8922 15.5518 69.0573 15.653 69.2416 15.6866C69.57 15.7819 69.8984 15.8455 70.3009 15.9408C70.3272 16.2262 70.3272 16.5134 70.3009 16.7989C70.3009 17.0319 70.142 17.4133 70.0043 17.4451C69.7274 17.4584 69.4544 17.3761 69.231 17.212C68.9933 17.0237 68.7798 16.8066 68.5954 16.5658C68.0763 16.0361 67.8326 15.962 67.1758 16.2798C66.6694 16.5398 66.181 16.8335 65.714 17.159C64.1001 18.2423 62.7291 19.6493 61.6878 21.2905C60.6465 22.9318 59.9577 24.7715 59.6651 26.6931C59.5698 27.2546 59.4638 27.816 59.3685 28.3563C58.6799 28.8118 58.3092 28.3563 57.9384 27.8902C55.7541 25.3201 52.9658 23.3327 49.8238 22.1062V22.0638ZM62.0592 35.7081C61.9321 40.2209 61.7909 44.7408 61.6355 49.2677C61.6355 50.4436 61.2329 50.7719 60.0253 50.7613H58.7117C57.9465 43.9597 57.5927 37.118 57.6524 30.2737L62.0274 29.8817C62.0274 30.1572 62.1016 30.422 62.1016 30.6762C62.0698 32.35 62.1016 34.0238 62.0592 35.7081ZM61.7944 25.835C62.0608 23.9979 62.8643 22.2805 64.1038 20.8985C65.0429 19.9489 66.0293 19.0474 67.0593 18.1972C67.5042 17.8052 67.8326 17.9535 68.1187 18.4938C65.5059 20.4563 63.3485 22.9606 61.7944 25.835ZM73.945 21.9473C74.0086 22.8477 74.0827 23.6104 74.1145 24.3837C74.2628 27.7948 74.4323 31.2165 74.5171 34.6276C74.5669 35.9023 74.4995 37.1788 74.3158 38.4412C74.1803 39.4369 73.872 40.4012 73.4048 41.2908C71.5816 44.673 68.774 47.4215 65.3538 49.1723C64.7906 49.4226 64.2142 49.6419 63.6271 49.8291C63.5862 49.5907 63.5579 49.3502 63.5423 49.1088C63.5423 46.9901 63.5423 44.9456 63.5423 42.8693C63.5423 38.706 63.6906 34.5534 63.7012 30.3902C63.6981 29.6684 63.9536 28.9694 64.4216 28.4198C66.8792 25.2842 70.3115 23.5998 73.945 21.9473ZM56.8155 15.0615C56.9338 15.3447 57.1394 15.5827 57.4023 15.7408C57.6653 15.899 57.9718 15.969 58.2774 15.9408C60.1948 15.6866 62.1228 15.4111 64.0296 15.0721C64.2052 15.0326 64.3701 14.9552 64.5128 14.8454C64.6555 14.7357 64.7726 14.5961 64.8559 14.4365C65.4003 13.1292 65.5189 11.6836 65.1949 10.3051C65.1699 10.095 65.1038 9.89187 65.0003 9.70733C64.8968 9.5228 64.758 9.36047 64.5917 9.22962C64.4255 9.09877 64.235 9.00198 64.0313 8.94476C63.8276 8.88755 63.6147 8.87104 63.4046 8.89618C62.5671 8.8939 61.7309 8.96122 60.9045 9.09745C59.5592 9.36229 58.2244 9.6589 56.9108 10.0509C56.0845 10.3051 55.9998 10.5488 56.0104 11.4068V12.4662L53.701 12.9005C53.6313 12.4862 53.4111 12.1123 53.0827 11.8504C52.7543 11.5884 52.3407 11.4569 51.9213 11.481C51.7201 11.481 51.5294 11.4068 51.3281 11.3856C49.0887 11.1497 46.8252 11.3147 44.6437 11.8729C44.2764 11.9443 43.9478 12.1473 43.7196 12.4438C43.4914 12.7403 43.3793 13.1098 43.4042 13.4831C43.4042 14.5425 43.5525 15.5488 43.6797 16.5764C43.719 16.8591 43.8403 17.1242 44.0286 17.3388C44.2168 17.5534 44.4638 17.7082 44.739 17.784C45.882 18.2741 47.1144 18.5216 48.358 18.5106C49.6017 18.4997 50.8295 18.2306 51.9637 17.7205C52.5524 17.5577 53.0681 17.1995 53.4262 16.7047C53.7843 16.2099 53.9634 15.608 53.9341 14.998C53.9451 14.8653 53.9811 14.736 54.04 14.6166L56.4765 14.1081C56.572 14.4319 56.6852 14.7502 56.8155 15.0615ZM63.4364 10.6865C63.4364 11.0784 63.5529 11.428 63.5635 11.7458C63.5635 13.1229 63.3093 13.5255 61.9639 13.7268C60.788 13.9175 59.591 14.0234 58.3092 14.1823L57.6947 11.5657C59.5456 10.9519 61.4867 10.6547 63.4364 10.6865ZM50.7243 16.2798C49.177 16.8785 47.4621 16.8785 45.9149 16.2798C45.4594 16.0997 45.1733 15.8878 45.1415 15.3688C45.1098 14.8497 45.025 14.3094 44.9509 13.6102C47.2172 12.9866 49.5921 12.8637 51.9107 13.2501C51.9107 13.5679 51.9955 13.8645 52.0379 14.1611C52.2179 15.6336 52.112 15.8243 50.7349 16.2798H50.7243ZM40.5334 17.8052C40.5204 17.8979 40.4893 17.987 40.4417 18.0675C40.3942 18.1481 40.3312 18.2184 40.2564 18.2745C40.1816 18.3306 40.0964 18.3714 40.0058 18.3945C39.9151 18.4176 39.8209 18.4225 39.7283 18.4091C38.7881 18.3914 37.8538 18.5602 36.9792 18.9056C36.1046 19.2511 35.3072 19.7664 34.6329 20.4218C33.8815 21.1302 33.1739 21.8837 32.5142 22.6782C32.3001 22.9327 32.0663 23.17 31.815 23.388C31.6705 23.5205 31.4815 23.594 31.2854 23.594C31.0893 23.594 30.9003 23.5205 30.7557 23.388C30.5956 23.2692 30.4838 23.0966 30.441 22.9019C30.3982 22.7072 30.4272 22.5036 30.5226 22.3286C30.5514 22.2324 30.5981 22.1426 30.6604 22.0638C32.4506 19.6909 34.5058 17.6781 37.4825 16.873C37.7297 16.8095 37.9733 16.7565 38.2135 16.7141C38.7241 16.6136 39.2494 16.6136 39.7601 16.7141L39.9508 16.7671C40.0609 16.7911 40.1647 16.838 40.2556 16.9047C40.3465 16.9714 40.4223 17.0564 40.4782 17.1542C40.5342 17.2521 40.5689 17.3606 40.5802 17.4728C40.5916 17.5849 40.5792 17.6982 40.544 17.8052H40.5334ZM38.8914 22.0426C38.9734 22.1232 39.0382 22.2196 39.0817 22.326C39.1252 22.4325 39.1467 22.5466 39.1447 22.6616C39.1427 22.7765 39.1173 22.8899 39.0702 22.9947C39.023 23.0996 38.955 23.1937 38.8702 23.2714C38.8041 23.3379 38.719 23.3823 38.6266 23.3986C36.9634 23.6104 36.01 24.7651 35.0672 25.9622C34.8337 26.2893 34.5789 26.6007 34.3045 26.8944C34.1699 27.036 33.9889 27.1246 33.7945 27.144C33.6001 27.1634 33.4051 27.1125 33.2451 27.0003C33.1587 26.9475 33.0839 26.8777 33.0251 26.7952C32.9663 26.7127 32.9248 26.6192 32.903 26.5203C32.8812 26.4214 32.8797 26.319 32.8984 26.2195C32.9172 26.12 32.9558 26.0252 33.0121 25.941C34.2091 24.1507 35.4804 22.4028 37.7579 21.8731C38.1158 21.8068 38.4853 21.8512 38.8173 22.0002C38.8382 22.0301 38.856 22.062 38.8702 22.0956L38.8914 22.0426ZM57.1651 17.0531C57.3654 17.3206 57.4736 17.6458 57.4736 17.98C57.4736 18.3142 57.3654 18.6394 57.1651 18.907C56.9354 19.1713 56.6343 19.3638 56.298 19.4615C55.9618 19.5592 55.6044 19.5579 55.2689 19.4578C54.9438 19.3233 54.6721 19.0854 54.496 18.7809C54.3198 18.4764 54.2489 18.1223 54.2943 17.7735C54.1883 17.0107 54.8027 16.5234 55.29 16.0149C55.3653 15.9495 55.4531 15.9001 55.5481 15.8699C55.6432 15.8396 55.7434 15.8291 55.8426 15.839C55.9418 15.849 56.038 15.8791 56.1251 15.9276C56.2123 15.976 56.2886 16.0418 56.3494 16.1209C56.6545 16.4232 56.9311 16.753 57.1757 17.1061L57.1651 17.0531ZM49.4637 14.8073C49.4727 14.9075 49.4604 15.0085 49.4274 15.1036C49.3945 15.1987 49.3417 15.2857 49.2726 15.3588C49.2035 15.4319 49.1196 15.4895 49.0265 15.5278C48.9334 15.566 48.8333 15.584 48.7327 15.5806C48.6402 15.5894 48.547 15.579 48.4587 15.5502C48.3704 15.5214 48.2889 15.4748 48.2194 15.4132C48.1499 15.3516 48.0937 15.2764 48.0545 15.1922C48.0152 15.108 47.9937 15.0167 47.9912 14.9238C47.9727 14.8237 47.9762 14.7208 48.0016 14.6222C48.027 14.5237 48.0736 14.4318 48.1382 14.3532C48.2027 14.2745 48.2837 14.2108 48.3754 14.1667C48.4671 14.1225 48.5674 14.0989 48.6692 14.0975C48.7692 14.0855 48.8707 14.0949 48.9669 14.1252C49.063 14.1554 49.1516 14.2058 49.2268 14.2729C49.3019 14.3401 49.3619 14.4224 49.4028 14.5146C49.4436 14.6067 49.4644 14.7065 49.4637 14.8073ZM59.6757 12.4132C59.6655 12.3054 59.6775 12.1967 59.7108 12.0937C59.7442 11.9907 59.7983 11.8957 59.8697 11.8143C59.9411 11.733 60.0284 11.6671 60.1262 11.6207C60.224 11.5743 60.3303 11.5484 60.4384 11.5445C60.6573 11.5492 60.8666 11.6355 61.0253 11.7863C61.184 11.9372 61.2807 12.1418 61.2965 12.3602C61.3008 12.4688 61.2836 12.5771 61.2459 12.6789C61.2083 12.7808 61.1509 12.8743 61.0771 12.954C61.0033 13.0337 60.9146 13.098 60.8159 13.1434C60.7172 13.1887 60.6105 13.2142 60.502 13.2183C60.3912 13.2289 60.2794 13.2157 60.1741 13.1798C60.0687 13.1438 59.9722 13.0858 59.8911 13.0096C59.8099 12.9334 59.7459 12.8409 59.7033 12.738C59.6606 12.6352 59.6404 12.5244 59.6439 12.4132H59.6757Z" fill="black"/>
</svg>
