<svg width="147" height="100" viewBox="0 0 147 100" fill="none" xmlns="http://www.w3.org/2000/svg">
<mask id="mask0_336_4467" style="mask-type:luminance" maskUnits="userSpaceOnUse" x="0" y="0" width="147" height="100">
<path d="M0 0H147V99.2952H0V0Z" fill="white"/>
</mask>
<g mask="url(#mask0_336_4467)">
<path d="M145.508 53.0779C142.863 53.0768 140.218 53.0779 137.572 53.0768C137.068 53.0768 137.067 53.0723 136.986 52.5833C136.44 49.2779 135.607 46.0445 134.585 42.8584C132.377 35.7654 127.552 29.7089 121.14 25.9651C120.898 25.8134 120.768 25.638 120.679 25.3772C114.527 7.58564 95.7146 7.71493 80.836 13.8152C75.8432 15.9097 71.1955 18.7215 66.2667 20.9565C65.1244 21.4782 63.9631 21.9358 62.7297 22.1932C62.3655 22.2697 62.0833 22.1618 61.882 21.8694C60.3553 19.6569 58.525 17.7254 56.3664 16.1379C55.6907 15.6399 55.4254 15.0935 55.3298 14.3065C54.6013 9.8724 53.8177 3.96213 50.4887 0.719751C47.0013 -2.41807 43.4834 6.07463 42.1872 8.52328C41.815 9.35074 41.5182 10.2052 41.2686 11.0765C41.046 11.8522 41.0483 11.8758 40.2388 11.8815C35.1706 12.0085 30.017 13.126 25.584 15.6511C25.2164 15.9108 24.9746 15.3712 24.7239 15.1868C15.2509 6.05102 13.0439 4.46918 12.7988 19.1903C12.8674 21.3545 13.1226 23.494 13.5521 25.6144C13.6241 25.9685 13.5971 26.2934 13.4487 26.6296C12.9855 27.6808 12.5729 28.7533 12.2075 29.8427C10.8977 33.4235 10.5818 37.4619 12.257 40.9775C12.5178 41.5497 12.5785 41.5036 11.9489 41.7094C11.2878 41.9252 10.6313 42.1568 9.97469 42.3873C9.31138 42.5514 8.67841 43.1754 9.00895 43.8691C9.23717 44.3986 9.91173 44.5358 10.3918 44.2603C11.2496 43.9208 12.1198 43.615 13.008 43.3654C13.3554 43.2665 13.6083 43.3924 13.7668 43.742C11.1878 44.2322 9.07415 45.5723 8.34338 48.2245C7.88581 49.7737 8.09042 51.2274 9.24055 52.4585C9.28327 52.5046 9.35072 52.5484 9.30913 52.6687C6.50408 52.7913 3.6507 52.6024 0.84228 52.7384C0.349852 52.8632 0.06204 53.2466 0.104762 53.73C0.145236 54.1808 0.484764 54.5136 0.968198 54.5541C29.3739 54.9521 58.2765 53.8503 86.445 54.9364C92.6746 63.2829 102.998 68.2151 107.106 78.1243C107.798 79.7152 108.146 81.4061 108.591 83.0689C108.653 83.2982 108.578 83.4624 108.445 83.6422C107.954 84.2966 107.463 84.952 107.001 85.6266C102.927 91.5503 110.179 94.5634 114.264 90.3181C115.406 89.2287 115.64 87.6098 115.442 86.1033C114.389 75.8027 115.092 65.2582 117.861 55.2545C117.989 54.7643 117.991 54.761 118.475 54.7655C121.764 54.7969 125.053 54.8295 128.342 54.8644C128.797 54.8689 128.805 54.8723 128.857 55.3186C129.088 57.2917 129.262 59.2693 129.295 61.2558C129.962 71.4484 127.957 86.5091 133.076 95.2795C134.772 97.9069 138.754 100.764 141.619 98.1644C144.12 95.9473 144.557 92.0877 142.815 89.2838C141.585 87.2028 140.287 85.1353 139.612 82.7934C137.363 73.9353 138.649 64.6185 137.374 55.6132C137.284 54.8149 137.337 54.951 137.939 54.9498C140.716 54.8813 143.523 55.0746 146.284 54.8745C146.69 54.7284 146.937 54.3697 146.914 53.9526C146.897 53.2196 146.119 53.0105 145.508 53.0779ZM13.0057 34.6209C13.2575 31.8687 14.3571 29.3379 15.3757 26.8072C15.5398 26.4014 15.1958 25.1085 15.1643 24.8532C14.5223 20.1763 14.3897 15.4038 15.4634 10.7797C15.6264 10.0298 15.6657 10.0231 16.3245 10.3884C19.2454 12.3503 21.8065 14.8686 24.2416 17.4005C24.7925 18.0818 26.4362 17.1385 26.6363 17.0418C31.3009 14.8192 36.504 13.5769 41.6779 13.7657C42.3479 13.8006 42.7313 12.1637 42.8269 11.8983C43.986 8.68405 45.5408 5.68114 47.605 2.95142C48.0041 2.50846 48.5505 1.51236 49.2172 2.09698C49.7018 2.45449 50.0525 2.93231 50.3583 3.44272C52.1898 6.76043 52.8654 10.5751 53.4579 14.2784C53.504 14.6179 53.4714 16.1694 53.8537 16.4168C58.3991 19.8143 63.1221 24.6958 62.6196 30.8017C62.5993 31.238 62.5892 31.2424 62.1485 31.3358C61.1445 31.5471 60.1394 31.7551 59.1343 31.9609C58.6161 32.0047 58.0809 32.442 58.2113 32.9941C58.3327 33.6709 59.1017 33.7394 59.6582 33.5978C60.4149 33.4797 61.1704 33.3572 61.9281 33.247C62.2823 33.1953 62.3003 33.2212 62.2564 33.5573C62.1541 34.3645 62.1541 34.3612 61.33 34.3162C60.543 34.3319 59.0343 33.9463 58.9736 35.1077C58.9814 36.2117 60.4599 35.9284 61.2041 36.0689C61.6336 36.115 61.6482 36.1341 61.5065 36.558C60.8859 37.9993 59.4514 43.3159 57.6807 43.1844C52.228 42.8865 47.0024 45.2935 42.2659 47.7444C41.9364 48.1413 41.5812 48.0379 41.1573 47.8895C39.1235 47.1969 36.9413 47.7467 35.0053 48.5011C34.7052 48.6292 34.4578 48.6056 34.1633 48.4898C32.2397 47.7298 30.3239 46.9473 28.3519 46.3155C25.8066 45.4183 23.0611 44.9236 20.5271 44.1872C20.6237 44.022 20.8171 44.013 20.9588 43.9242C21.8436 43.4385 21.2882 42.1253 20.3314 42.403C19.4219 42.692 18.554 43.1169 17.686 43.5116C17.1306 43.7499 16.22 43.9433 15.8479 43.3362C15.7444 43.1574 15.578 43.0169 15.5038 42.8066C15.587 42.6425 15.7568 42.6526 15.8996 42.6223C17.3634 42.312 18.8272 42.005 20.291 41.6947C20.8396 41.6318 21.4624 41.2743 21.323 40.6447C21.2455 40.1107 20.6552 39.8554 20.1515 39.9994C18.3302 40.286 16.4943 40.4895 14.7056 40.9595C14.429 41.0326 14.3009 40.9336 14.1794 40.693C13.2171 38.7784 12.8236 36.7581 13.0057 34.6209ZM41.9893 52.2808C41.0764 52.418 40.1567 52.4708 39.2337 52.4731C30.7522 52.2494 22.2449 53.1072 13.7848 52.3753C13.144 52.2999 12.5133 52.183 11.9084 51.9503C8.10841 50.8305 10.7021 45.6342 13.7421 45.7803C13.3891 46.1536 12.9203 46.356 12.5661 46.7168C11.9309 47.3757 12.6594 48.4954 13.5251 48.2121C14.7596 47.7141 16.618 45.6207 17.9502 45.7354C23.4614 46.5718 28.8365 48.2695 34.0014 50.301C34.2746 50.5112 34.5725 50.5225 34.8862 50.3797C36.1206 49.8187 37.4315 49.5669 38.7716 49.4589C40.1916 49.342 42.5008 49.9435 42.5199 51.6838C42.4885 52.1639 42.4626 52.21 41.9893 52.2808ZM56.8836 52.3786C52.8058 52.5394 48.6843 52.3303 44.5863 52.2696C44.3255 52.2808 44.3694 52.0155 44.3795 51.8345C44.4548 50.8766 44.1423 50.0548 43.516 49.3409C43.4373 49.224 43.3755 49.2273 43.3665 49.0486C47.5128 47.2745 51.7131 45.28 56.2821 45.0023C58.9432 44.7977 61.2693 46.6539 62.4093 48.9418C63.9113 52.101 58.9747 52.6069 56.8836 52.3786ZM115.674 56.2933C113.018 66.0891 112.73 76.3592 113.598 86.3888C114.209 89.1804 110.84 91.1658 108.455 90.1731C106.877 89.367 108.059 87.4737 108.673 86.3776C109.058 85.757 109.437 85.1263 109.888 84.5529C110.453 83.8334 110.581 83.1195 110.311 82.2245C109.865 80.7439 109.572 79.2171 108.978 77.7792C106.63 71.7082 101.915 67.1605 97.0356 63.0569C87.9403 55.0094 79.3509 44.7595 77.3868 32.4229C77.3317 31.962 77.0383 31.6697 76.6155 31.6506C75.6757 31.6 75.6565 32.7445 75.7791 33.4336C76.6504 40.593 80.5718 46.9271 84.6968 52.6833H63.4841C63.4144 52.4888 63.5819 52.4292 63.6651 52.3415C66.2982 49.36 62.6859 45.5307 60.1327 43.9298C61.7505 41.8285 62.5285 39.2281 63.4009 36.7457C63.519 36.3612 63.5257 36.3657 63.9586 36.4287C65.274 36.6074 66.5343 37.0201 67.817 37.336C69.0875 37.6125 69.5405 35.8621 68.2769 35.5192C67.0548 35.1751 65.835 34.8165 64.5792 34.613C64.1362 34.5399 63.899 34.5748 64.0541 34.0509C64.098 33.8294 64.1643 33.6102 64.1902 33.3864C64.2509 32.8704 64.279 32.9052 64.7804 32.8456C66.5916 32.5702 68.4286 32.6163 70.2421 32.5196C71.0707 32.2588 71.1033 31.0558 70.2769 30.7703C68.5579 30.4712 66.7569 30.7837 65.0277 30.9175C64.6781 30.9546 64.505 30.7995 64.5072 30.4498C64.5252 28.3362 64.2464 26.2811 63.3166 24.3541C63.2199 24.1562 63.1716 24.0078 63.465 23.9392C65.7079 23.4198 67.7271 22.3484 69.7721 21.3512C79.2373 16.2661 89.4299 11.4205 100.433 11.9242C110.956 12.1052 119.321 21.1926 120.126 31.4414C120.817 39.9476 117.415 48.0907 115.674 56.2933ZM128.116 52.9902C124.905 52.9262 121.686 52.9925 118.481 52.8531C119.818 47.1025 121.572 41.462 122.144 35.5371C125.909 40.3164 127.475 46.6292 128.466 52.5743C128.509 52.9835 128.509 52.9947 128.116 52.9902ZM139.821 87.8661C141.197 90.0944 142.878 92.561 141.51 95.2042C141.035 96.0924 140.372 97.2751 139.201 97.1717C138.033 97.0851 137.011 96.6983 136.134 95.9046C126.569 86.7272 136.243 55.1061 125.546 37.2618C124.67 35.6653 123.61 34.2038 122.375 32.8693C122.172 32.65 122.08 32.4285 122.059 32.1329C122.033 30.8793 121.667 29.6595 121.599 28.4273C134.115 36.5231 135.836 52.8565 136.204 66.5354C136.631 73.715 135.985 81.4555 139.821 87.8661Z" fill="black"/>
</g>
<path d="M38.9387 40.7356C39.0995 40.5276 39.2378 40.486 39.457 40.6445C40.2642 41.1673 41.3199 41.4607 42.2328 41.0481C43.4279 40.5939 42.8826 38.8446 41.637 39.2628C41.0568 39.4337 40.6229 39.1965 40.2136 38.8412C40.0394 38.6883 40.0281 38.5714 40.2327 38.3847C41.0771 37.5854 40.1203 36.6399 39.1501 36.7962C38.4575 36.8647 36.9892 36.9153 36.9589 37.8552C36.9409 38.2566 37.1107 38.5039 37.5975 38.686C37.8201 38.7692 37.8527 38.8828 37.792 39.0795C37.313 40.8266 35.4389 39.8519 35.4985 41.2685C35.8661 42.8582 38.3384 41.6114 38.9387 40.7356Z" fill="black"/>
<path d="M42.3704 32.198C42.8122 32.3138 43.2686 32.2902 43.5969 32.3363C45.1248 32.4026 46.4852 32.1924 47.7702 31.4042C48.7416 30.8848 49.7894 29.2929 48.1873 28.9005C47.2913 28.8196 47.2418 29.9146 45.9095 30.2193C44.8561 30.552 43.7363 30.4936 42.6525 30.3778C41.4631 30.2541 41.1798 31.9248 42.3704 32.1969V32.198Z" fill="black"/>
<path d="M28.8417 35.4302C30.2661 35.3954 31.9255 35.1638 32.8778 33.9889C33.649 33.0411 32.337 31.8382 31.5028 32.7545C30.3201 33.7809 28.5224 33.6943 27.0934 33.293C26.4605 32.9782 25.6521 33.3481 25.6712 34.1024C25.705 35.3414 27.9209 35.3864 28.8417 35.4302Z" fill="black"/>
</svg>
