<svg width="69" height="55" viewBox="0 0 69 55" fill="none" xmlns="http://www.w3.org/2000/svg">
<path d="M34.486 54.2009C28.0054 54.2009 22.8136 52.2021 19.0631 48.2569C11.2254 40.0089 11.9566 25.596 12.2249 20.1675L12.2669 19.3574C12.3038 18.5158 13.0139 17.8688 13.8555 17.9056C14.6971 17.9424 15.3441 18.6526 15.3073 19.4942L15.2652 20.3253C15.0075 25.3909 14.3237 38.8622 21.2671 46.1581C24.4232 49.4773 28.8628 51.1605 34.4807 51.1605C40.0986 51.1605 44.5435 49.4773 47.6996 46.1581C54.6378 38.8622 53.954 25.3909 53.6962 20.32L53.6541 19.4942C53.6173 18.6526 54.2643 17.9424 55.1059 17.9056C55.9476 17.8688 56.6577 18.5158 56.6945 19.3574L56.7366 20.1675C57.0101 25.596 57.7413 40.0089 49.8983 48.2569C46.1584 52.2021 40.9718 54.2009 34.486 54.2009Z" fill="#231F20"/>
<path d="M10.2258 45.1745C8.37422 45.1167 6.57524 44.5328 5.03926 43.4965C2.7879 42.1026 1.14146 39.362 0.41029 35.7746C-0.668049 30.5144 0.147281 22.1349 5.67048 14.2972C8.9581 9.64719 13.403 5.94402 18.5685 3.55063C28.668 -1.18354 40.3457 -1.18354 50.4452 3.55063C55.6107 5.94402 60.0556 9.64719 63.3432 14.2972C68.8454 22.1349 69.6555 30.5302 68.6034 35.7746C67.8723 39.362 66.2258 42.0868 63.9797 43.4965C60.9656 45.3639 57.8884 45.6795 55.5318 44.3697C53.4856 43.2283 52.2653 40.9927 52.2653 38.3784C52.2653 37.5367 52.9438 36.8582 53.7855 36.8582C54.6271 36.8582 55.3057 37.5367 55.3057 38.3784C55.3057 39.8933 55.9264 41.1084 57.01 41.7133C58.3723 42.4708 60.3291 42.1762 62.3754 40.9085C63.885 39.9775 65.0686 37.8839 65.6262 35.1644C66.573 30.5407 65.8208 23.0922 60.892 16.0488C57.9094 11.8302 53.8749 8.46891 49.188 6.29645C39.9143 1.95153 29.1888 1.95153 19.9151 6.29645C15.2283 8.46891 11.1884 11.8302 8.20063 16.0488C3.25605 23.0922 2.50385 30.5407 3.46646 35.1644C4.02404 37.8839 5.20758 39.9775 6.71726 40.9085C8.73191 42.1604 10.6361 42.4603 11.9301 41.7396C12.9822 41.1505 13.5923 39.9249 13.5923 38.3784C13.5923 37.5367 14.2762 36.8582 15.1125 36.8582C15.9489 36.8582 16.6327 37.5367 16.6327 38.3784C16.6327 41.0085 15.4281 43.2703 13.4082 44.396C12.4351 44.9273 11.3357 45.1956 10.2258 45.1745Z" fill="#231F20"/>
<path d="M25.6751 18.8946C27.432 19.4784 28.3052 21.5247 27.6793 23.492C27.0533 25.4593 25.0807 26.5587 23.3238 25.98C21.5669 25.4014 20.6937 23.3499 21.3197 21.3826C21.9457 19.4153 23.913 18.3159 25.6751 18.8946Z" fill="#231F20"/>
<path d="M43.3017 18.8946C41.5448 19.4784 40.6453 21.5247 41.2923 23.492C41.9393 25.4593 43.8909 26.5587 45.6478 25.98C47.4047 25.4014 48.2779 23.3499 47.6519 21.3826C47.0259 19.4153 45.0586 18.3159 43.3017 18.8946Z" fill="#231F20"/>
<path d="M34.4859 30.488C31.7506 30.488 29.5308 31.2455 29.5308 32.7604C29.5308 34.7751 31.7506 36.7897 34.4859 36.7897C37.2212 36.7897 39.4462 34.7751 39.4462 32.7604C39.4462 31.2402 37.2264 30.488 34.4859 30.488Z" fill="#231F20"/>
<path d="M29.2468 44.1646C26.5273 44.2014 24.1286 42.4077 23.3922 39.7881C23.2028 38.9675 23.7183 38.1522 24.5389 37.9681C25.3595 37.7787 26.1749 38.2942 26.359 39.1096C26.5168 39.8144 27.7266 41.5661 30.1989 41.0137C33.0394 40.3773 32.8711 36.4216 32.8658 36.3848C32.8343 35.5537 33.4813 34.8488 34.3124 34.8067C35.1382 34.7857 35.8378 35.4222 35.8904 36.248C36.0062 38.5152 35.1014 43.0494 30.8459 44.0015C30.3199 44.1173 29.7833 44.1751 29.2468 44.1646Z" fill="#231F20"/>
<path d="M39.725 44.1645C39.1832 44.1645 38.6414 44.1014 38.1101 43.9804C33.8546 43.0283 32.9499 38.494 33.0656 36.2269C33.1235 35.401 33.8178 34.7646 34.6437 34.7856C35.4748 34.8277 36.1218 35.5325 36.0902 36.3637C36.0902 36.5215 35.9482 40.3614 38.7571 40.9926C41.2294 41.5449 42.4393 39.788 42.5971 39.0884C42.7864 38.2678 43.6018 37.7576 44.4171 37.947C45.2377 38.1363 45.7479 38.9517 45.5638 39.767C44.8379 42.3866 42.4445 44.1908 39.725 44.1645Z" fill="#231F20"/>
</svg>
