<svg width="40" height="13" viewBox="0 0 40 13" fill="none" xmlns="http://www.w3.org/2000/svg">
<path d="M0.628809 12.3735V1.42353H2.71381V12.3735H0.628809ZM2.41381 12.3735V10.5735H7.37881V12.3735H2.41381ZM2.41381 7.70853V5.90853H6.98881V7.70853H2.41381ZM2.41381 3.22353V1.42353H7.25881V3.22353H2.41381ZM9.39936 12.3735V4.22853H11.0494V7.72354H10.8994C10.8994 6.90353 11.0044 6.21853 11.2144 5.66853C11.4244 5.10853 11.7344 4.68853 12.1444 4.40853C12.5644 4.11854 13.0844 3.97354 13.7044 3.97354H13.7944C14.4244 3.97354 14.9444 4.11854 15.3544 4.40853C15.7744 4.68853 16.0844 5.10853 16.2844 5.66853C16.4944 6.21853 16.5994 6.90353 16.5994 7.72354H16.0744C16.0744 6.90353 16.1794 6.21853 16.3894 5.66853C16.6094 5.10853 16.9244 4.68853 17.3344 4.40853C17.7544 4.11854 18.2744 3.97354 18.8944 3.97354H18.9844C19.6144 3.97354 20.1394 4.11854 20.5594 4.40853C20.9794 4.68853 21.2944 5.10853 21.5044 5.66853C21.7244 6.21853 21.8344 6.90353 21.8344 7.72354V12.3735H19.7494V7.52853C19.7494 7.01853 19.6194 6.61353 19.3594 6.31353C19.0994 6.00353 18.7294 5.84853 18.2494 5.84853C17.7694 5.84853 17.3844 6.00853 17.0944 6.32853C16.8044 6.63853 16.6594 7.05854 16.6594 7.58854V12.3735H14.5744V7.52853C14.5744 7.01853 14.4444 6.61353 14.1844 6.31353C13.9244 6.00353 13.5544 5.84853 13.0744 5.84853C12.5944 5.84853 12.2094 6.00853 11.9194 6.32853C11.6294 6.63853 11.4844 7.05854 11.4844 7.58854V12.3735H9.39936ZM28.9974 12.3735V9.95853H28.6524V7.27354C28.6524 6.80353 28.5374 6.45353 28.3074 6.22353C28.0774 5.99353 27.7224 5.87853 27.2424 5.87853C26.9924 5.87853 26.6924 5.88353 26.3424 5.89353C25.9924 5.90353 25.6374 5.91853 25.2774 5.93853C24.9274 5.94853 24.6124 5.96353 24.3324 5.98353V4.21353C24.5624 4.19353 24.8224 4.17353 25.1124 4.15353C25.4024 4.13353 25.6974 4.12353 25.9974 4.12353C26.3074 4.11354 26.5974 4.10854 26.8674 4.10854C27.7074 4.10854 28.4024 4.21853 28.9524 4.43853C29.5124 4.65853 29.9324 5.00353 30.2124 5.47354C30.5024 5.94353 30.6474 6.55853 30.6474 7.31853V12.3735H28.9974ZM26.3724 12.5835C25.7824 12.5835 25.2624 12.4785 24.8124 12.2685C24.3724 12.0585 24.0274 11.7585 23.7774 11.3685C23.5374 10.9785 23.4174 10.5085 23.4174 9.95853C23.4174 9.35853 23.5624 8.86853 23.8524 8.48854C24.1524 8.10853 24.5674 7.82353 25.0974 7.63353C25.6374 7.44354 26.2674 7.34854 26.9874 7.34854H28.8774V8.59354H26.9574C26.4774 8.59354 26.1074 8.71354 25.8474 8.95353C25.5974 9.18353 25.4724 9.48353 25.4724 9.85353C25.4724 10.2235 25.5974 10.5235 25.8474 10.7535C26.1074 10.9835 26.4774 11.0985 26.9574 11.0985C27.2474 11.0985 27.5124 11.0485 27.7524 10.9485C28.0024 10.8385 28.2074 10.6585 28.3674 10.4085C28.5374 10.1485 28.6324 9.79854 28.6524 9.35854L29.1624 9.94354C29.1124 10.5135 28.9724 10.9935 28.7424 11.3835C28.5224 11.7735 28.2124 12.0735 27.8124 12.2835C27.4224 12.4835 26.9424 12.5835 26.3724 12.5835ZM33.2708 12.3735V4.22853H35.3558V12.3735H33.2708ZM32.1308 5.78853V4.22853H35.3558V5.78853H32.1308ZM34.0358 3.25353C33.6258 3.25353 33.3208 3.14853 33.1208 2.93854C32.9308 2.71853 32.8358 2.44853 32.8358 2.12853C32.8358 1.78853 32.9308 1.51353 33.1208 1.30353C33.3208 1.09353 33.6258 0.988534 34.0358 0.988534C34.4458 0.988534 34.7458 1.09353 34.9358 1.30353C35.1258 1.51353 35.2208 1.78853 35.2208 2.12853C35.2208 2.44853 35.1258 2.71853 34.9358 2.93854C34.7458 3.14853 34.4458 3.25353 34.0358 3.25353ZM37.8637 12.3735V1.42353H39.9487V12.3735H37.8637ZM36.8437 2.98353V1.42353H39.9487V2.98353H36.8437Z" fill="black"/>
</svg>
