<svg width="360" height="28" viewBox="0 0 360 28" fill="none" xmlns="http://www.w3.org/2000/svg">
<path d="M6.06 21.7682C4.94 21.7682 3.95333 21.5882 3.1 21.2282C2.24667 20.8682 1.58 20.3548 1.1 19.6882C0.62 19.0215 0.38 18.2282 0.38 17.3082C0.38 16.6948 0.486667 16.1548 0.7 15.6882C0.913333 15.2082 1.20667 14.8015 1.58 14.4682C1.95333 14.1215 2.39333 13.8615 2.9 13.6882V13.4482C2.51333 13.2748 2.16 13.0482 1.84 12.7682C1.53333 12.4882 1.28667 12.1482 1.1 11.7482C0.926667 11.3482 0.84 10.8882 0.84 10.3682C0.84 9.48816 1.06667 8.75483 1.52 8.16816C1.98667 7.56816 2.61333 7.1215 3.4 6.82816C4.2 6.5215 5.08667 6.36816 6.06 6.36816C7.04667 6.36816 7.93333 6.5215 8.72 6.82816C9.52 7.1215 10.1467 7.56816 10.6 8.16816C11.0667 8.75483 11.3 9.48816 11.3 10.3682C11.3 10.8882 11.2067 11.3482 11.02 11.7482C10.8467 12.1482 10.6067 12.4882 10.3 12.7682C9.99333 13.0482 9.64 13.2748 9.24 13.4482V13.6882C9.74667 13.8615 10.1867 14.1215 10.56 14.4682C10.9467 14.8148 11.24 15.2282 11.44 15.7082C11.6533 16.1748 11.76 16.7082 11.76 17.3082C11.76 18.2282 11.52 19.0215 11.04 19.6882C10.5733 20.3548 9.91333 20.8682 9.06 21.2282C8.20667 21.5882 7.20667 21.7682 6.06 21.7682ZM6.06 19.4282C6.67333 19.4282 7.2 19.3348 7.64 19.1482C8.08 18.9615 8.42 18.6882 8.66 18.3282C8.9 17.9682 9.02 17.5348 9.02 17.0282C9.02 16.5215 8.9 16.0948 8.66 15.7482C8.43333 15.3882 8.09333 15.1148 7.64 14.9282C7.2 14.7415 6.67333 14.6482 6.06 14.6482C5.46 14.6482 4.94 14.7415 4.5 14.9282C4.06 15.1148 3.72 15.3882 3.48 15.7482C3.24 16.0948 3.12 16.5215 3.12 17.0282C3.12 17.5348 3.24 17.9682 3.48 18.3282C3.72 18.6882 4.06 18.9615 4.5 19.1482C4.94 19.3348 5.46 19.4282 6.06 19.4282ZM6.06 12.5282C6.83333 12.5282 7.44 12.3682 7.88 12.0482C8.33333 11.7148 8.56 11.2348 8.56 10.6082C8.56 9.95483 8.33333 9.47483 7.88 9.16816C7.42667 8.8615 6.82 8.70816 6.06 8.70816C5.3 8.70816 4.69333 8.86816 4.24 9.18816C3.8 9.49483 3.58 9.96816 3.58 10.6082C3.58 11.2348 3.80667 11.7148 4.26 12.0482C4.71333 12.3682 5.31333 12.5282 6.06 12.5282ZM19.8045 21.7682C18.6845 21.7682 17.6979 21.5882 16.8445 21.2282C15.9912 20.8682 15.3245 20.3548 14.8445 19.6882C14.3645 19.0215 14.1245 18.2282 14.1245 17.3082C14.1245 16.6948 14.2312 16.1548 14.4445 15.6882C14.6579 15.2082 14.9512 14.8015 15.3245 14.4682C15.6979 14.1215 16.1379 13.8615 16.6445 13.6882V13.4482C16.2579 13.2748 15.9045 13.0482 15.5845 12.7682C15.2779 12.4882 15.0312 12.1482 14.8445 11.7482C14.6712 11.3482 14.5845 10.8882 14.5845 10.3682C14.5845 9.48816 14.8112 8.75483 15.2645 8.16816C15.7312 7.56816 16.3579 7.1215 17.1445 6.82816C17.9445 6.5215 18.8312 6.36816 19.8045 6.36816C20.7912 6.36816 21.6779 6.5215 22.4645 6.82816C23.2645 7.1215 23.8912 7.56816 24.3445 8.16816C24.8112 8.75483 25.0445 9.48816 25.0445 10.3682C25.0445 10.8882 24.9512 11.3482 24.7645 11.7482C24.5912 12.1482 24.3512 12.4882 24.0445 12.7682C23.7379 13.0482 23.3845 13.2748 22.9845 13.4482V13.6882C23.4912 13.8615 23.9312 14.1215 24.3045 14.4682C24.6912 14.8148 24.9845 15.2282 25.1845 15.7082C25.3979 16.1748 25.5045 16.7082 25.5045 17.3082C25.5045 18.2282 25.2645 19.0215 24.7845 19.6882C24.3179 20.3548 23.6579 20.8682 22.8045 21.2282C21.9512 21.5882 20.9512 21.7682 19.8045 21.7682ZM19.8045 19.4282C20.4179 19.4282 20.9445 19.3348 21.3845 19.1482C21.8245 18.9615 22.1645 18.6882 22.4045 18.3282C22.6445 17.9682 22.7645 17.5348 22.7645 17.0282C22.7645 16.5215 22.6445 16.0948 22.4045 15.7482C22.1779 15.3882 21.8379 15.1148 21.3845 14.9282C20.9445 14.7415 20.4179 14.6482 19.8045 14.6482C19.2045 14.6482 18.6845 14.7415 18.2445 14.9282C17.8045 15.1148 17.4645 15.3882 17.2245 15.7482C16.9845 16.0948 16.8645 16.5215 16.8645 17.0282C16.8645 17.5348 16.9845 17.9682 17.2245 18.3282C17.4645 18.6882 17.8045 18.9615 18.2445 19.1482C18.6845 19.3348 19.2045 19.4282 19.8045 19.4282ZM19.8045 12.5282C20.5779 12.5282 21.1845 12.3682 21.6245 12.0482C22.0779 11.7148 22.3045 11.2348 22.3045 10.6082C22.3045 9.95483 22.0779 9.47483 21.6245 9.16816C21.1712 8.8615 20.5645 8.70816 19.8045 8.70816C19.0445 8.70816 18.4379 8.86816 17.9845 9.18816C17.5445 9.49483 17.3245 9.96816 17.3245 10.6082C17.3245 11.2348 17.5512 11.7148 18.0045 12.0482C18.4579 12.3682 19.0579 12.5282 19.8045 12.5282ZM27.7491 18.3482V15.2682L33.4691 6.36816L35.6091 7.82816L30.5691 15.7082L30.8091 16.1082H39.7691V18.3482H27.7491ZM35.3891 21.3682V10.9082H38.0091V21.3682H35.3891ZM43.7112 21.3682L49.1712 9.36816L48.9912 9.10816H41.5912V6.76816H52.2313V8.92816L46.6912 21.3682H43.7112ZM41.5912 11.4482V6.76816H43.8912V11.4482H41.5912ZM60.9253 21.7482C59.7786 21.7482 58.8053 21.5615 58.0053 21.1882C57.2053 20.8015 56.552 20.2815 56.0453 19.6282C55.5386 18.9615 55.1653 18.2015 54.9253 17.3482C54.6986 16.4815 54.5853 15.5748 54.5853 14.6282V13.5082C54.5853 12.1615 54.812 10.9482 55.2653 9.86816C55.7186 8.78816 56.412 7.93483 57.3453 7.30816C58.2786 6.66816 59.472 6.34816 60.9253 6.34816C62.3653 6.34816 63.552 6.66816 64.4853 7.30816C65.4186 7.93483 66.1053 8.78816 66.5453 9.86816C66.9986 10.9482 67.2253 12.1615 67.2253 13.5082V14.6282C67.2253 15.5748 67.1053 16.4815 66.8653 17.3482C66.6386 18.2015 66.272 18.9615 65.7653 19.6282C65.272 20.2815 64.6253 20.8015 63.8253 21.1882C63.0253 21.5615 62.0586 21.7482 60.9253 21.7482ZM60.9253 19.1482C62.112 19.1482 62.9853 18.7415 63.5453 17.9282C64.1053 17.1015 64.3853 15.8215 64.3853 14.0882C64.3853 12.2482 64.0986 10.9348 63.5253 10.1482C62.952 9.34816 62.0853 8.94816 60.9253 8.94816C59.752 8.94816 58.872 9.34816 58.2853 10.1482C57.712 10.9348 57.4253 12.2348 57.4253 14.0482C57.4253 15.7948 57.712 17.0815 58.2853 17.9082C58.8586 18.7348 59.7386 19.1482 60.9253 19.1482ZM75.1825 21.7482C74.0625 21.7482 73.0958 21.5348 72.2825 21.1082C71.4825 20.6815 70.8692 20.1148 70.4425 19.4082C70.0158 18.6882 69.8025 17.8882 69.8025 17.0082H72.5425C72.5425 17.7148 72.7758 18.2882 73.2425 18.7282C73.7225 19.1548 74.3692 19.3682 75.1825 19.3682C75.7292 19.3682 76.1958 19.2682 76.5825 19.0682C76.9825 18.8548 77.2892 18.5682 77.5025 18.2082C77.7158 17.8348 77.8225 17.4082 77.8225 16.9282C77.8225 16.2082 77.5892 15.6215 77.1225 15.1682C76.6558 14.7015 76.0158 14.4682 75.2025 14.4682C74.8025 14.4682 74.4492 14.5215 74.1425 14.6282C73.8492 14.7348 73.5892 14.8748 73.3625 15.0482L72.0625 12.8082L76.8625 9.52816L76.6825 9.18816H70.4025V6.76816H79.9425V9.68816L75.0025 12.9682L73.4625 12.6882C73.7158 12.6082 73.9892 12.5482 74.2825 12.5082C74.5758 12.4548 74.8958 12.4282 75.2425 12.4282C76.3492 12.4282 77.2958 12.6215 78.0825 13.0082C78.8825 13.3815 79.4958 13.9015 79.9225 14.5682C80.3492 15.2348 80.5625 16.0015 80.5625 16.8682V17.1282C80.5625 17.9682 80.3492 18.7415 79.9225 19.4482C79.4958 20.1415 78.8825 20.7015 78.0825 21.1282C77.2825 21.5415 76.3158 21.7482 75.1825 21.7482ZM85.882 21.3682V8.52816L86.762 9.20816H82.902V6.76816H88.702V21.3682H85.882ZM94.1581 21.3682L99.6181 9.36816L99.4381 9.10816H92.0381V6.76816H102.678V8.92816L97.1381 21.3682H94.1581ZM92.0381 11.4482V6.76816H94.3381V11.4482H92.0381ZM109.912 21.7482C108.792 21.7482 107.826 21.5348 107.012 21.1082C106.212 20.6815 105.599 20.1148 105.172 19.4082C104.746 18.6882 104.532 17.8882 104.532 17.0082H107.272C107.272 17.7148 107.506 18.2882 107.972 18.7282C108.452 19.1548 109.099 19.3682 109.912 19.3682C110.459 19.3682 110.926 19.2682 111.312 19.0682C111.712 18.8548 112.019 18.5682 112.232 18.2082C112.446 17.8348 112.552 17.4082 112.552 16.9282C112.552 16.2082 112.319 15.6215 111.852 15.1682C111.386 14.7015 110.746 14.4682 109.932 14.4682C109.532 14.4682 109.179 14.5215 108.872 14.6282C108.579 14.7348 108.319 14.8748 108.092 15.0482L106.792 12.8082L111.592 9.52816L111.412 9.18816H105.132V6.76816H114.672V9.68816L109.732 12.9682L108.192 12.6882C108.446 12.6082 108.719 12.5482 109.012 12.5082C109.306 12.4548 109.626 12.4282 109.972 12.4282C111.079 12.4282 112.026 12.6215 112.812 13.0082C113.612 13.3815 114.226 13.9015 114.652 14.5682C115.079 15.2348 115.292 16.0015 115.292 16.8682V17.1282C115.292 17.9682 115.079 18.7415 114.652 19.4482C114.226 20.1415 113.612 20.7015 112.812 21.1282C112.012 21.5415 111.046 21.7482 109.912 21.7482ZM120.612 21.3682V8.52816L121.492 9.20816H117.632V6.76816H123.432V21.3682H120.612Z" fill="black"/>
<path d="M153.3 20.8682V6.26816H156.08V20.8682H153.3ZM155.68 20.8682V18.4682H162.3V20.8682H155.68ZM155.68 14.6482V12.2482H161.78V14.6482H155.68ZM155.68 8.66816V6.26816H162.14V8.66816H155.68ZM165.594 20.8682V10.0082H167.794V14.6082H167.734C167.734 13.0482 168.067 11.8682 168.734 11.0682C169.401 10.2682 170.381 9.86816 171.674 9.86816H172.074V12.2882H171.314C170.381 12.2882 169.654 12.5415 169.134 13.0482C168.627 13.5415 168.374 14.2615 168.374 15.2082V20.8682H165.594ZM181.055 20.8682V17.6482H180.595V14.0682C180.595 13.4415 180.442 12.9748 180.135 12.6682C179.829 12.3615 179.355 12.2082 178.715 12.2082C178.382 12.2082 177.982 12.2148 177.515 12.2282C177.049 12.2415 176.575 12.2615 176.095 12.2882C175.629 12.3015 175.209 12.3215 174.835 12.3482V9.98816C175.142 9.9615 175.489 9.93483 175.875 9.90816C176.262 9.8815 176.655 9.86816 177.055 9.86816C177.469 9.85483 177.855 9.84816 178.215 9.84816C179.335 9.84816 180.262 9.99483 180.995 10.2882C181.742 10.5815 182.302 11.0415 182.675 11.6682C183.062 12.2948 183.255 13.1148 183.255 14.1282V20.8682H181.055ZM177.555 21.1482C176.769 21.1482 176.075 21.0082 175.475 20.7282C174.889 20.4482 174.429 20.0482 174.095 19.5282C173.775 19.0082 173.615 18.3815 173.615 17.6482C173.615 16.8482 173.809 16.1948 174.195 15.6882C174.595 15.1815 175.149 14.8015 175.855 14.5482C176.575 14.2948 177.415 14.1682 178.375 14.1682H180.895V15.8282H178.335C177.695 15.8282 177.202 15.9882 176.855 16.3082C176.522 16.6148 176.355 17.0148 176.355 17.5082C176.355 18.0015 176.522 18.4015 176.855 18.7082C177.202 19.0148 177.695 19.1682 178.335 19.1682C178.722 19.1682 179.075 19.1015 179.395 18.9682C179.729 18.8215 180.002 18.5815 180.215 18.2482C180.442 17.9015 180.569 17.4348 180.595 16.8482L181.275 17.6282C181.209 18.3882 181.022 19.0282 180.715 19.5482C180.422 20.0682 180.009 20.4682 179.475 20.7482C178.955 21.0148 178.315 21.1482 177.555 21.1482ZM196.573 25.7682C195.106 25.7682 193.746 25.5348 192.493 25.0682C191.253 24.6015 190.173 23.9348 189.253 23.0682C188.333 22.2015 187.62 21.1615 187.113 19.9482C186.606 18.7215 186.353 17.3548 186.353 15.8482C186.353 14.3815 186.593 13.0415 187.073 11.8282C187.566 10.6015 188.266 9.54816 189.173 8.66816C190.08 7.77483 191.166 7.08816 192.433 6.60816C193.7 6.11483 195.113 5.86816 196.673 5.86816C198.033 5.86816 199.306 6.0615 200.493 6.44816C201.693 6.83483 202.746 7.40816 203.653 8.16816C204.573 8.91483 205.293 9.8415 205.813 10.9482C206.333 12.0548 206.593 13.3348 206.593 14.7882C206.593 15.9615 206.413 17.0015 206.053 17.9082C205.706 18.8148 205.2 19.5348 204.533 20.0682C203.88 20.5882 203.086 20.8482 202.153 20.8482C201.5 20.8482 200.926 20.7148 200.433 20.4482C199.953 20.1682 199.58 19.7815 199.313 19.2882C199.046 18.7815 198.913 18.1948 198.913 17.5282V16.3882H199.553C199.513 17.3348 199.32 18.1282 198.973 18.7682C198.626 19.4082 198.16 19.8948 197.573 20.2282C197 20.5482 196.353 20.7082 195.633 20.7082C194.806 20.7082 194.06 20.5082 193.393 20.1082C192.74 19.7082 192.22 19.1548 191.833 18.4482C191.446 17.7282 191.253 16.9082 191.253 15.9882V15.6682C191.253 14.7348 191.44 13.9215 191.813 13.2282C192.2 12.5348 192.72 12.0015 193.373 11.6282C194.026 11.2415 194.766 11.0482 195.593 11.0482C196.353 11.0482 197.026 11.2148 197.613 11.5482C198.2 11.8815 198.666 12.3615 199.013 12.9882C199.373 13.6015 199.573 14.3415 199.613 15.2082H199.093V11.3882H201.133V17.3882C201.133 17.6948 201.18 17.9482 201.273 18.1482C201.366 18.3482 201.5 18.5015 201.673 18.6082C201.846 18.7148 202.046 18.7682 202.273 18.7682C202.686 18.7682 203.046 18.6082 203.353 18.2882C203.66 17.9682 203.9 17.5215 204.073 16.9482C204.26 16.3615 204.353 15.6682 204.353 14.8682C204.353 13.6815 204.153 12.6548 203.753 11.7882C203.353 10.9215 202.793 10.2082 202.073 9.64816C201.366 9.07483 200.546 8.65483 199.613 8.38816C198.693 8.10816 197.72 7.96816 196.693 7.96816C195.44 7.96816 194.313 8.1615 193.313 8.54816C192.313 8.9215 191.46 9.4615 190.753 10.1682C190.06 10.8615 189.526 11.6948 189.153 12.6682C188.78 13.6282 188.593 14.6948 188.593 15.8682C188.593 17.4415 188.933 18.8148 189.613 19.9882C190.293 21.1482 191.233 22.0415 192.433 22.6682C193.633 23.3082 195.013 23.6282 196.573 23.6282C197.013 23.6282 197.46 23.6015 197.913 23.5482C198.366 23.4948 198.786 23.4282 199.173 23.3482V25.5082C198.786 25.5882 198.366 25.6482 197.913 25.6882C197.46 25.7415 197.013 25.7682 196.573 25.7682ZM196.133 18.6482C196.586 18.6482 197 18.5482 197.373 18.3482C197.76 18.1348 198.06 17.8282 198.273 17.4282C198.5 17.0148 198.613 16.5282 198.613 15.9682V15.5282C198.613 14.9948 198.5 14.5548 198.273 14.2082C198.046 13.8482 197.746 13.5748 197.373 13.3882C197 13.2015 196.586 13.1082 196.133 13.1082C195.626 13.1082 195.186 13.2215 194.813 13.4482C194.44 13.6748 194.153 13.9948 193.953 14.4082C193.753 14.8082 193.653 15.2815 193.653 15.8282C193.653 16.3615 193.753 16.8415 193.953 17.2682C194.153 17.6948 194.433 18.0348 194.793 18.2882C195.166 18.5282 195.613 18.6482 196.133 18.6482ZM209.953 20.8682V10.0082H212.153V14.6682H211.953C211.953 13.5748 212.093 12.6615 212.373 11.9282C212.653 11.1815 213.066 10.6215 213.613 10.2482C214.173 9.8615 214.866 9.66816 215.693 9.66816H215.813C216.653 9.66816 217.346 9.8615 217.893 10.2482C218.453 10.6215 218.866 11.1815 219.133 11.9282C219.413 12.6615 219.553 13.5748 219.553 14.6682H218.853C218.853 13.5748 218.993 12.6615 219.273 11.9282C219.566 11.1815 219.986 10.6215 220.533 10.2482C221.093 9.8615 221.786 9.66816 222.613 9.66816H222.733C223.573 9.66816 224.273 9.8615 224.833 10.2482C225.393 10.6215 225.813 11.1815 226.093 11.9282C226.386 12.6615 226.533 13.5748 226.533 14.6682V20.8682H223.753V14.4082C223.753 13.7282 223.579 13.1882 223.233 12.7882C222.886 12.3748 222.393 12.1682 221.753 12.1682C221.113 12.1682 220.599 12.3815 220.213 12.8082C219.826 13.2215 219.633 13.7815 219.633 14.4882V20.8682H216.853V14.4082C216.853 13.7282 216.679 13.1882 216.333 12.7882C215.986 12.3748 215.493 12.1682 214.853 12.1682C214.213 12.1682 213.699 12.3815 213.313 12.8082C212.926 13.2215 212.733 13.7815 212.733 14.4882V20.8682H209.953ZM229.705 25.1482V22.7682H231.745C232.132 22.7682 232.452 22.7148 232.705 22.6082C232.972 22.5148 233.192 22.3548 233.365 22.1282C233.539 21.9148 233.672 21.6148 233.765 21.2282L236.685 10.0082H239.345L236.125 21.8282C235.912 22.6415 235.612 23.2882 235.225 23.7682C234.839 24.2615 234.339 24.6148 233.725 24.8282C233.125 25.0415 232.379 25.1482 231.485 25.1482H229.705ZM233.085 20.6282V18.4282H235.405V20.6282H233.085ZM232.145 20.6282L228.625 10.0082H231.425L234.765 20.6282H232.145ZM241.856 24.8682V10.0082H244.056V14.6882L243.716 14.6682C243.769 13.5615 243.996 12.6348 244.396 11.8882C244.809 11.1415 245.356 10.5882 246.036 10.2282C246.716 9.85483 247.476 9.66816 248.316 9.66816C249.089 9.66816 249.782 9.80816 250.396 10.0882C251.022 10.3682 251.556 10.7615 251.996 11.2682C252.449 11.7748 252.796 12.3682 253.036 13.0482C253.276 13.7148 253.396 14.4348 253.396 15.2082V15.6282C253.396 16.4148 253.276 17.1482 253.036 17.8282C252.809 18.4948 252.469 19.0882 252.016 19.6082C251.576 20.1148 251.042 20.5148 250.416 20.8082C249.789 21.0882 249.089 21.2282 248.316 21.2282C247.502 21.2282 246.756 21.0615 246.076 20.7282C245.409 20.3815 244.869 19.8548 244.456 19.1482C244.042 18.4282 243.809 17.5015 243.756 16.3682L244.636 17.7082V24.8682H241.856ZM247.616 18.8882C248.216 18.8882 248.736 18.7415 249.176 18.4482C249.629 18.1548 249.982 17.7482 250.236 17.2282C250.489 16.6948 250.616 16.0948 250.616 15.4282C250.616 14.7348 250.489 14.1348 250.236 13.6282C249.982 13.1215 249.629 12.7282 249.176 12.4482C248.736 12.1548 248.216 12.0082 247.616 12.0082C247.069 12.0082 246.562 12.1282 246.096 12.3682C245.642 12.6082 245.269 12.9615 244.976 13.4282C244.696 13.8948 244.556 14.4548 244.556 15.1082V15.9082C244.556 16.5348 244.702 17.0682 244.996 17.5082C245.289 17.9482 245.669 18.2882 246.136 18.5282C246.602 18.7682 247.096 18.8882 247.616 18.8882ZM263.02 20.8682V17.6482H262.56V14.0682C262.56 13.4415 262.407 12.9748 262.1 12.6682C261.793 12.3615 261.32 12.2082 260.68 12.2082C260.347 12.2082 259.947 12.2148 259.48 12.2282C259.013 12.2415 258.54 12.2615 258.06 12.2882C257.593 12.3015 257.173 12.3215 256.8 12.3482V9.98816C257.107 9.9615 257.453 9.93483 257.84 9.90816C258.227 9.8815 258.62 9.86816 259.02 9.86816C259.433 9.85483 259.82 9.84816 260.18 9.84816C261.3 9.84816 262.227 9.99483 262.96 10.2882C263.707 10.5815 264.267 11.0415 264.64 11.6682C265.027 12.2948 265.22 13.1148 265.22 14.1282V20.8682H263.02ZM259.52 21.1482C258.733 21.1482 258.04 21.0082 257.44 20.7282C256.853 20.4482 256.393 20.0482 256.06 19.5282C255.74 19.0082 255.58 18.3815 255.58 17.6482C255.58 16.8482 255.773 16.1948 256.16 15.6882C256.56 15.1815 257.113 14.8015 257.82 14.5482C258.54 14.2948 259.38 14.1682 260.34 14.1682H262.86V15.8282H260.3C259.66 15.8282 259.167 15.9882 258.82 16.3082C258.487 16.6148 258.32 17.0148 258.32 17.5082C258.32 18.0015 258.487 18.4015 258.82 18.7082C259.167 19.0148 259.66 19.1682 260.3 19.1682C260.687 19.1682 261.04 19.1015 261.36 18.9682C261.693 18.8215 261.967 18.5815 262.18 18.2482C262.407 17.9015 262.533 17.4348 262.56 16.8482L263.24 17.6282C263.173 18.3882 262.987 19.0282 262.68 19.5482C262.387 20.0682 261.973 20.4682 261.44 20.7482C260.92 21.0148 260.28 21.1482 259.52 21.1482ZM275.378 20.8682V17.6482H274.918V14.0682C274.918 13.4415 274.765 12.9748 274.458 12.6682C274.151 12.3615 273.678 12.2082 273.038 12.2082C272.705 12.2082 272.305 12.2148 271.838 12.2282C271.371 12.2415 270.898 12.2615 270.418 12.2882C269.951 12.3015 269.531 12.3215 269.158 12.3482V9.98816C269.465 9.9615 269.811 9.93483 270.198 9.90816C270.585 9.8815 270.978 9.86816 271.378 9.86816C271.791 9.85483 272.178 9.84816 272.538 9.84816C273.658 9.84816 274.585 9.99483 275.318 10.2882C276.065 10.5815 276.625 11.0415 276.998 11.6682C277.385 12.2948 277.578 13.1148 277.578 14.1282V20.8682H275.378ZM271.878 21.1482C271.091 21.1482 270.398 21.0082 269.798 20.7282C269.211 20.4482 268.751 20.0482 268.418 19.5282C268.098 19.0082 267.938 18.3815 267.938 17.6482C267.938 16.8482 268.131 16.1948 268.518 15.6882C268.918 15.1815 269.471 14.8015 270.178 14.5482C270.898 14.2948 271.738 14.1682 272.698 14.1682H275.218V15.8282H272.658C272.018 15.8282 271.525 15.9882 271.178 16.3082C270.845 16.6148 270.678 17.0148 270.678 17.5082C270.678 18.0015 270.845 18.4015 271.178 18.7082C271.525 19.0148 272.018 19.1682 272.658 19.1682C273.045 19.1682 273.398 19.1015 273.718 18.9682C274.051 18.8215 274.325 18.5815 274.538 18.2482C274.765 17.9015 274.891 17.4348 274.918 16.8482L275.598 17.6282C275.531 18.3882 275.345 19.0282 275.038 19.5482C274.745 20.0682 274.331 20.4682 273.798 20.7482C273.278 21.0148 272.638 21.1482 271.878 21.1482ZM281.296 20.8682V6.26816H284.076V20.8682H281.296ZM279.936 8.34816V6.26816H284.076V8.34816H279.936ZM292.57 21.0082C291.57 21.0082 290.743 20.8815 290.09 20.6282C289.45 20.3615 288.97 19.9215 288.65 19.3082C288.33 18.6815 288.17 17.8415 288.17 16.7882L288.19 6.94816H290.79L290.77 16.9682C290.77 17.5015 290.91 17.9148 291.19 18.2082C291.483 18.4882 291.896 18.6282 292.43 18.6282H294.13V21.0082H292.57ZM286.45 12.0482V10.0082H294.13V12.0482H286.45ZM300.763 21.2082C299.509 21.2082 298.536 20.7948 297.843 19.9682C297.163 19.1415 296.823 17.9148 296.823 16.2882V9.98816H299.603V16.5282C299.603 17.1948 299.789 17.7282 300.163 18.1282C300.536 18.5148 301.043 18.7082 301.683 18.7082C302.323 18.7082 302.843 18.5015 303.243 18.0882C303.656 17.6748 303.863 17.1148 303.863 16.4082V9.98816H306.643V20.8682H304.443V16.2482H304.663C304.663 17.3415 304.523 18.2548 304.243 18.9882C303.963 19.7215 303.543 20.2748 302.983 20.6482C302.423 21.0215 301.723 21.2082 300.883 21.2082H300.763ZM309.996 20.8682V17.6682H313.116V20.8682H309.996ZM320.993 21.2482C320.046 21.2482 319.226 21.0882 318.533 20.7682C317.853 20.4482 317.28 20.0215 316.813 19.4882C316.36 18.9548 316.02 18.3548 315.793 17.6882C315.566 17.0215 315.453 16.3415 315.453 15.6482V15.2682C315.453 14.5348 315.566 13.8348 315.793 13.1682C316.033 12.4882 316.386 11.8882 316.853 11.3682C317.32 10.8348 317.893 10.4148 318.573 10.1082C319.266 9.78816 320.066 9.62816 320.973 9.62816C321.92 9.62816 322.766 9.81483 323.513 10.1882C324.26 10.5482 324.853 11.0548 325.293 11.7082C325.746 12.3615 326 13.1215 326.053 13.9882H323.353C323.286 13.4282 323.046 12.9615 322.633 12.5882C322.233 12.2148 321.68 12.0282 320.973 12.0282C320.36 12.0282 319.846 12.1748 319.433 12.4682C319.033 12.7615 318.733 13.1682 318.533 13.6882C318.333 14.1948 318.233 14.7815 318.233 15.4482C318.233 16.0882 318.326 16.6682 318.513 17.1882C318.713 17.7082 319.013 18.1148 319.413 18.4082C319.826 18.7015 320.353 18.8482 320.993 18.8482C321.473 18.8482 321.886 18.7615 322.233 18.5882C322.58 18.4148 322.853 18.1748 323.053 17.8682C323.266 17.5615 323.4 17.2148 323.453 16.8282H326.153C326.1 17.7082 325.84 18.4815 325.373 19.1482C324.92 19.8015 324.313 20.3148 323.553 20.6882C322.806 21.0615 321.953 21.2482 320.993 21.2482ZM334.2 21.2482C333.24 21.2482 332.393 21.0948 331.66 20.7882C330.927 20.4815 330.307 20.0682 329.8 19.5482C329.293 19.0148 328.907 18.4148 328.64 17.7482C328.387 17.0815 328.26 16.3882 328.26 15.6682V15.2482C328.26 14.5015 328.393 13.7948 328.66 13.1282C328.94 12.4482 329.333 11.8482 329.84 11.3282C330.36 10.7948 330.987 10.3815 331.72 10.0882C332.453 9.7815 333.28 9.62816 334.2 9.62816C335.12 9.62816 335.947 9.7815 336.68 10.0882C337.413 10.3815 338.033 10.7948 338.54 11.3282C339.06 11.8482 339.453 12.4482 339.72 13.1282C339.987 13.7948 340.12 14.5015 340.12 15.2482V15.6682C340.12 16.3882 339.987 17.0815 339.72 17.7482C339.467 18.4148 339.087 19.0148 338.58 19.5482C338.073 20.0682 337.453 20.4815 336.72 20.7882C335.987 21.0948 335.147 21.2482 334.2 21.2482ZM334.2 18.8682C334.88 18.8682 335.453 18.7215 335.92 18.4282C336.387 18.1215 336.74 17.7148 336.98 17.2082C337.22 16.6882 337.34 16.1015 337.34 15.4482C337.34 14.7815 337.213 14.1948 336.96 13.6882C336.72 13.1682 336.36 12.7615 335.88 12.4682C335.413 12.1615 334.853 12.0082 334.2 12.0082C333.547 12.0082 332.98 12.1615 332.5 12.4682C332.033 12.7615 331.673 13.1682 331.42 13.6882C331.167 14.1948 331.04 14.7815 331.04 15.4482C331.04 16.1015 331.16 16.6882 331.4 17.2082C331.653 17.7148 332.013 18.1215 332.48 18.4282C332.947 18.7215 333.52 18.8682 334.2 18.8682ZM343.154 20.8682V10.0082H345.354V14.6682H345.154C345.154 13.5748 345.294 12.6615 345.574 11.9282C345.854 11.1815 346.268 10.6215 346.814 10.2482C347.374 9.8615 348.068 9.66816 348.894 9.66816H349.014C349.854 9.66816 350.548 9.8615 351.094 10.2482C351.654 10.6215 352.068 11.1815 352.334 11.9282C352.614 12.6615 352.754 13.5748 352.754 14.6682H352.054C352.054 13.5748 352.194 12.6615 352.474 11.9282C352.768 11.1815 353.188 10.6215 353.734 10.2482C354.294 9.8615 354.988 9.66816 355.814 9.66816H355.934C356.774 9.66816 357.474 9.8615 358.034 10.2482C358.594 10.6215 359.014 11.1815 359.294 11.9282C359.588 12.6615 359.734 13.5748 359.734 14.6682V20.8682H356.954V14.4082C356.954 13.7282 356.781 13.1882 356.434 12.7882C356.088 12.3748 355.594 12.1682 354.954 12.1682C354.314 12.1682 353.801 12.3815 353.414 12.8082C353.028 13.2215 352.834 13.7815 352.834 14.4882V20.8682H350.054V14.4082C350.054 13.7282 349.881 13.1882 349.534 12.7882C349.188 12.3748 348.694 12.1682 348.054 12.1682C347.414 12.1682 346.901 12.3815 346.514 12.8082C346.128 13.2215 345.934 13.7815 345.934 14.4882V20.8682H343.154Z" fill="black"/>
</svg>
