<svg width="162" height="25" viewBox="0 0 162 25" fill="none" xmlns="http://www.w3.org/2000/svg">
<path d="M0.595863 23.8682V0.508163H5.84386V23.8682H0.595863ZM5.20386 14.4602V10.1082H14.2279V14.4602H5.20386ZM5.20386 4.86016V0.508163H14.6119V4.86016H5.20386ZM26.9206 24.4762C25.3846 24.4762 24.0193 24.2415 22.8246 23.7722C21.6299 23.2815 20.6166 22.6202 19.7846 21.7882C18.9739 20.9562 18.3553 20.0068 17.9286 18.9402C17.5019 17.8522 17.2886 16.7108 17.2886 15.5162V14.7802C17.2886 13.5642 17.5019 12.4122 17.9286 11.3242C18.3766 10.2148 19.0166 9.24416 19.8486 8.41216C20.7019 7.58016 21.7259 6.9295 22.9206 6.46016C24.1153 5.9695 25.4486 5.72416 26.9206 5.72416C28.4353 5.72416 29.7793 5.9695 30.9526 6.46016C32.1473 6.9295 33.1606 7.58016 33.9926 8.41216C34.8246 9.24416 35.4646 10.2148 35.9126 11.3242C36.3606 12.4122 36.5846 13.5642 36.5846 14.7802V15.5162C36.5846 16.7108 36.3713 17.8522 35.9446 18.9402C35.5179 20.0068 34.8886 20.9562 34.0566 21.7882C33.2459 22.6202 32.2433 23.2815 31.0486 23.7722C29.8539 24.2415 28.4779 24.4762 26.9206 24.4762ZM26.9206 20.1562C27.9233 20.1562 28.7553 19.9428 29.4166 19.5162C30.0779 19.0895 30.5793 18.4922 30.9206 17.7242C31.2833 16.9562 31.4646 16.1028 31.4646 15.1642C31.4646 14.1615 31.2833 13.2868 30.9206 12.5402C30.5579 11.7722 30.0353 11.1642 29.3526 10.7162C28.6913 10.2682 27.8806 10.0442 26.9206 10.0442C25.9819 10.0442 25.1713 10.2682 24.4886 10.7162C23.8059 11.1642 23.2833 11.7722 22.9206 12.5402C22.5793 13.2868 22.4086 14.1615 22.4086 15.1642C22.4086 16.1028 22.5793 16.9562 22.9206 17.7242C23.2619 18.4922 23.7739 19.0895 24.4566 19.5162C25.1393 19.9428 25.9606 20.1562 26.9206 20.1562ZM40.9819 23.8682V0.508163H46.1339V23.8682H40.9819ZM38.9019 4.28416V0.508163H46.1339V4.28416H38.9019ZM51.6756 23.8682V0.508163H56.8276V23.8682H51.6756ZM49.5956 4.28416V0.508163H56.8276V4.28416H49.5956ZM70.6894 24.4762C69.1534 24.4762 67.7881 24.2415 66.5934 23.7722C65.3987 23.2815 64.3854 22.6202 63.5534 21.7882C62.7427 20.9562 62.1241 20.0068 61.6974 18.9402C61.2707 17.8522 61.0574 16.7108 61.0574 15.5162V14.7802C61.0574 13.5642 61.2707 12.4122 61.6974 11.3242C62.1454 10.2148 62.7854 9.24416 63.6174 8.41216C64.4707 7.58016 65.4947 6.9295 66.6894 6.46016C67.8841 5.9695 69.2174 5.72416 70.6894 5.72416C72.2041 5.72416 73.5481 5.9695 74.7214 6.46016C75.9161 6.9295 76.9294 7.58016 77.7614 8.41216C78.5934 9.24416 79.2334 10.2148 79.6814 11.3242C80.1294 12.4122 80.3534 13.5642 80.3534 14.7802V15.5162C80.3534 16.7108 80.1401 17.8522 79.7134 18.9402C79.2867 20.0068 78.6574 20.9562 77.8254 21.7882C77.0147 22.6202 76.0121 23.2815 74.8174 23.7722C73.6227 24.2415 72.2467 24.4762 70.6894 24.4762ZM70.6894 20.1562C71.6921 20.1562 72.5241 19.9428 73.1854 19.5162C73.8467 19.0895 74.3481 18.4922 74.6894 17.7242C75.0521 16.9562 75.2334 16.1028 75.2334 15.1642C75.2334 14.1615 75.0521 13.2868 74.6894 12.5402C74.3267 11.7722 73.8041 11.1642 73.1214 10.7162C72.4601 10.2682 71.6494 10.0442 70.6894 10.0442C69.7507 10.0442 68.9401 10.2682 68.2574 10.7162C67.5747 11.1642 67.0521 11.7722 66.6894 12.5402C66.3481 13.2868 66.1774 14.1615 66.1774 15.1642C66.1774 16.1028 66.3481 16.9562 66.6894 17.7242C67.0307 18.4922 67.5427 19.0895 68.2254 19.5162C68.9081 19.9428 69.7294 20.1562 70.6894 20.1562ZM90.5524 23.8682L93.7524 6.90816H99.3524L103.064 23.8682H99.0964L95.2884 7.03616H97.5604L94.1364 23.8682H90.5524ZM89.3364 23.8682L89.3044 19.6122H92.8244L92.8564 23.8682H89.3364ZM87.0324 23.8682L82.3284 6.33216H87.3524L91.7364 23.8682H87.0324ZM100.408 23.8682L100.44 19.6122H103.96V23.8682H100.408ZM101.848 23.8682L105.752 6.33216H110.456L106.232 23.8682H101.848ZM131.619 24.4762C129.422 24.4762 127.555 24.0708 126.019 23.2602C124.504 22.4282 123.352 21.2548 122.563 19.7402C121.774 18.2255 121.379 16.4335 121.379 14.3642V0.508163H126.627V14.5562C126.627 15.5802 126.819 16.4762 127.203 17.2442C127.608 17.9908 128.174 18.5668 128.899 18.9722C129.646 19.3775 130.552 19.5802 131.619 19.5802C132.707 19.5802 133.614 19.3775 134.339 18.9722C135.086 18.5668 135.651 17.9908 136.035 17.2442C136.419 16.4975 136.611 15.6015 136.611 14.5562V0.508163H141.859V14.3642C141.859 16.4335 141.464 18.2255 140.675 19.7402C139.886 21.2548 138.734 22.4282 137.219 23.2602C135.704 24.0708 133.838 24.4762 131.619 24.4762ZM153.639 24.4122C151.143 24.4122 149.191 23.9002 147.783 22.8762C146.375 21.8522 145.628 20.4122 145.543 18.5562H150.087C150.172 19.1108 150.503 19.6122 151.079 20.0602C151.676 20.4868 152.562 20.7002 153.735 20.7002C154.631 20.7002 155.367 20.5508 155.943 20.2522C156.54 19.9322 156.839 19.4842 156.839 18.9082C156.839 18.3962 156.615 17.9908 156.167 17.6922C155.719 17.3722 154.919 17.1482 153.767 17.0202L152.391 16.8922C150.279 16.6788 148.69 16.0922 147.623 15.1322C146.578 14.1722 146.055 12.9455 146.055 11.4522C146.055 10.2148 146.364 9.18016 146.983 8.34816C147.602 7.51616 148.455 6.88683 149.543 6.46016C150.652 6.0335 151.911 5.82016 153.319 5.82016C155.58 5.82016 157.404 6.3215 158.791 7.32416C160.178 8.3055 160.903 9.73483 160.967 11.6122H156.423C156.338 11.0362 156.039 10.5562 155.527 10.1722C155.015 9.76683 154.258 9.56416 153.255 9.56416C152.466 9.56416 151.836 9.7135 151.367 10.0122C150.898 10.3108 150.663 10.7162 150.663 11.2282C150.663 11.7188 150.866 12.0922 151.271 12.3482C151.676 12.6042 152.338 12.7855 153.255 12.8922L154.631 13.0202C156.786 13.2548 158.46 13.8522 159.655 14.8122C160.85 15.7722 161.447 17.0628 161.447 18.6842C161.447 19.8575 161.127 20.8815 160.487 21.7562C159.847 22.6095 158.94 23.2708 157.767 23.7402C156.594 24.1882 155.218 24.4122 153.639 24.4122Z" fill="black"/>
</svg>
