<svg width="1122" height="129" viewBox="0 0 1122 129" fill="none" xmlns="http://www.w3.org/2000/svg">
<path d="M88.31 51.28C84.086 51.28 80.4593 50.5547 77.43 49.104C74.4007 47.6107 71.9047 45.6693 69.942 43.28C67.9793 40.848 66.5287 38.224 65.59 35.408C64.6513 32.592 64.182 29.8613 64.182 27.216V25.808C64.182 22.864 64.6513 19.984 65.59 17.168C66.5713 14.3093 68.0433 11.728 70.006 9.424C72.0113 7.12 74.5073 5.28533 77.494 3.92C80.4807 2.55466 83.9793 1.872 87.99 1.872C92.2567 1.872 96.0327 2.68266 99.318 4.304C102.646 5.88266 105.313 8.12266 107.318 11.024C109.323 13.8827 110.497 17.2107 110.838 21.008H98.934C98.6353 19.3867 97.9953 17.9787 97.014 16.784C96.0327 15.5893 94.774 14.672 93.238 14.032C91.702 13.3493 89.9527 13.008 87.99 13.008C86.1553 13.008 84.4913 13.328 82.998 13.968C81.5473 14.608 80.31 15.5253 79.286 16.72C78.3047 17.872 77.5367 19.28 76.982 20.944C76.47 22.608 76.214 24.4853 76.214 26.576C76.214 28.6667 76.47 30.544 76.982 32.208C77.5367 33.872 78.326 35.3013 79.35 36.496C80.4167 37.6907 81.6967 38.608 83.19 39.248C84.6833 39.8453 86.39 40.144 88.31 40.144C91.2967 40.144 93.814 39.4187 95.862 37.968C97.9527 36.5173 99.2113 34.576 99.638 32.144H111.542C111.158 35.6427 109.985 38.8427 108.022 41.744C106.059 44.6453 103.414 46.9707 100.086 48.72C96.758 50.4267 92.8327 51.28 88.31 51.28ZM134.887 51.28C131.772 51.28 128.999 50.8107 126.567 49.872C124.135 48.9333 122.065 47.632 120.359 45.968C118.695 44.304 117.415 42.384 116.519 40.208C115.665 38.032 115.239 35.7067 115.239 33.232V31.696C115.239 29.136 115.687 26.7467 116.583 24.528C117.521 22.3093 118.844 20.368 120.551 18.704C122.257 17.04 124.327 15.7387 126.759 14.8C129.191 13.8613 131.9 13.392 134.887 13.392C137.916 13.392 140.625 13.8613 143.015 14.8C145.447 15.7387 147.516 17.04 149.222 18.704C150.929 20.368 152.231 22.3093 153.127 24.528C154.065 26.7467 154.535 29.136 154.535 31.696V33.232C154.535 35.7067 154.087 38.032 153.191 40.208C152.337 42.384 151.057 44.304 149.351 45.968C147.687 47.632 145.639 48.9333 143.207 49.872C140.775 50.8107 138.001 51.28 134.887 51.28ZM134.887 41.552C136.679 41.552 138.151 41.168 139.303 40.4C140.497 39.632 141.393 38.5653 141.991 37.2C142.588 35.792 142.887 34.2133 142.887 32.464C142.887 30.6293 142.567 29.0293 141.927 27.664C141.329 26.256 140.433 25.1467 139.239 24.336C138.044 23.5253 136.593 23.12 134.887 23.12C133.18 23.12 131.729 23.5253 130.535 24.336C129.34 25.1467 128.423 26.256 127.783 27.664C127.185 29.0293 126.887 30.6293 126.887 32.464C126.887 34.2133 127.185 35.792 127.783 37.2C128.38 38.5653 129.276 39.632 130.471 40.4C131.665 41.168 133.137 41.552 134.887 41.552ZM160.911 50V14.672H170.128V29.84H169.616C169.616 26.1707 170.085 23.1413 171.024 20.752C171.962 18.32 173.349 16.5067 175.184 15.312C177.061 14.1173 179.322 13.52 181.968 13.52H182.48C186.49 13.52 189.584 14.864 191.76 17.552C193.978 20.1973 195.088 24.272 195.088 29.776V50H183.44V29.456C183.44 27.8347 182.949 26.512 181.968 25.488C181.029 24.4213 179.728 23.888 178.064 23.888C176.4 23.888 175.056 24.4213 174.032 25.488C173.05 26.512 172.56 27.8773 172.56 29.584V50H160.911ZM202.911 50V14.672H212.128V29.84H211.616C211.616 26.1707 212.085 23.1413 213.024 20.752C213.962 18.32 215.349 16.5067 217.184 15.312C219.061 14.1173 221.322 13.52 223.968 13.52H224.48C228.49 13.52 231.584 14.864 233.76 17.552C235.978 20.1973 237.088 24.272 237.088 29.776V50H225.44V29.456C225.44 27.8347 224.949 26.512 223.968 25.488C223.029 24.4213 221.728 23.888 220.064 23.888C218.4 23.888 217.056 24.4213 216.032 25.488C215.05 26.512 214.56 27.8773 214.56 29.584V50H202.911ZM261.488 51.28C258.501 51.28 255.856 50.768 253.552 49.744C251.248 48.72 249.306 47.3333 247.728 45.584C246.149 43.8347 244.933 41.872 244.08 39.696C243.269 37.52 242.864 35.28 242.864 32.976V31.696C242.864 29.3067 243.269 27.024 244.08 24.848C244.933 22.6293 246.128 20.6667 247.664 18.96C249.242 17.2533 251.162 15.9093 253.424 14.928C255.685 13.904 258.245 13.392 261.104 13.392C264.901 13.392 268.122 14.2453 270.768 15.952C273.413 17.6587 275.44 19.92 276.847 22.736C278.256 25.5093 278.96 28.5387 278.96 31.824V35.536H247.728V29.264H272.24L268.208 32.08C268.208 30.0747 267.93 28.3893 267.376 27.024C266.864 25.616 266.074 24.5493 265.008 23.824C263.984 23.0987 262.682 22.736 261.104 22.736C259.568 22.736 258.224 23.0987 257.072 23.824C255.962 24.5067 255.109 25.5733 254.512 27.024C253.914 28.432 253.616 30.224 253.616 32.4C253.616 34.3627 253.893 36.0693 254.448 37.52C255.002 38.928 255.856 40.016 257.008 40.784C258.16 41.552 259.653 41.936 261.488 41.936C263.109 41.936 264.432 41.6587 265.456 41.104C266.522 40.5493 267.269 39.8027 267.696 38.864H278.319C277.808 41.2533 276.784 43.3867 275.248 45.264C273.754 47.1413 271.834 48.6133 269.488 49.68C267.184 50.7467 264.517 51.28 261.488 51.28ZM301.227 51.28C298.155 51.28 295.488 50.7893 293.227 49.808C290.966 48.784 289.067 47.4187 287.531 45.712C286.038 44.0053 284.907 42.064 284.139 39.888C283.414 37.712 283.051 35.4507 283.051 33.104V31.824C283.051 29.3493 283.435 27.0027 284.203 24.784C285.014 22.5653 286.187 20.6027 287.723 18.896C289.259 17.1893 291.158 15.8453 293.419 14.864C295.68 13.8827 298.283 13.392 301.227 13.392C304.47 13.392 307.328 14.032 309.803 15.312C312.278 16.592 314.24 18.3627 315.691 20.624C317.184 22.8427 318.016 25.4027 318.187 28.304H306.795C306.667 26.896 306.134 25.7013 305.195 24.72C304.299 23.7387 302.976 23.248 301.227 23.248C299.734 23.248 298.496 23.632 297.515 24.4C296.576 25.168 295.872 26.2347 295.403 27.6C294.934 28.9653 294.699 30.5867 294.699 32.464C294.699 34.2133 294.891 35.7707 295.275 37.136C295.702 38.5013 296.384 39.568 297.323 40.336C298.304 41.0613 299.606 41.424 301.227 41.424C302.422 41.424 303.424 41.2107 304.235 40.784C305.046 40.3573 305.686 39.76 306.155 38.992C306.624 38.1813 306.923 37.2427 307.051 36.176H318.443C318.272 39.1627 317.419 41.7867 315.883 44.048C314.39 46.3093 312.384 48.08 309.867 49.36C307.35 50.64 304.47 51.28 301.227 51.28ZM341.181 50.512C337.341 50.512 334.269 50.0427 331.965 49.104C329.704 48.1653 328.061 46.608 327.037 44.432C326.013 42.256 325.501 39.312 325.501 35.6L325.565 5.456H336.317L336.253 35.92C336.253 37.4987 336.658 38.7147 337.469 39.568C338.322 40.3787 339.538 40.784 341.117 40.784H345.981V50.512H341.181ZM320.381 23.12V14.672H345.981V23.12H320.381ZM356.896 61.264L348 57.808L355.04 37.2L364.896 40.784L356.896 61.264ZM394.11 37.584V27.344H401.79C403.241 27.344 404.499 27.0667 405.566 26.512C406.633 25.9147 407.465 25.0827 408.062 24.016C408.659 22.9493 408.958 21.6907 408.958 20.24C408.958 18.7467 408.659 17.4667 408.062 16.4C407.465 15.3333 406.633 14.5227 405.566 13.968C404.499 13.4133 403.241 13.136 401.79 13.136H394.11V2.896H401.47C405.481 2.896 408.937 3.57866 411.838 4.944C414.782 6.26666 417.043 8.18666 418.622 10.704C420.201 13.2213 420.99 16.2293 420.99 19.728V20.752C420.99 24.208 420.201 27.1947 418.622 29.712C417.043 32.2293 414.782 34.1707 411.838 35.536C408.937 36.9013 405.481 37.584 401.47 37.584H394.11ZM383.486 50V2.896H395.39V50H383.486ZM426.736 50V3.28H438.384V50H426.736ZM422.768 11.728V3.28H438.384V11.728H422.768ZM468.35 50V39.632H466.43V28.56C466.43 26.9387 466.046 25.744 465.278 24.976C464.553 24.1653 463.337 23.76 461.63 23.76C460.819 23.76 459.625 23.7813 458.046 23.824C456.467 23.8667 454.803 23.9307 453.054 24.016C451.305 24.1013 449.705 24.1867 448.254 24.272V14.544C449.278 14.4587 450.494 14.3733 451.902 14.288C453.31 14.2027 454.761 14.1387 456.254 14.096C457.79 14.0533 459.198 14.032 460.478 14.032C464.105 14.032 467.177 14.5653 469.694 15.632C472.254 16.6987 474.195 18.2987 475.518 20.432C476.883 22.5653 477.566 25.2747 477.566 28.56V50H468.35ZM457.15 50.896C454.675 50.896 452.478 50.448 450.558 49.552C448.638 48.656 447.123 47.376 446.014 45.712C444.947 44.0053 444.414 41.9787 444.414 39.632C444.414 36.9867 445.118 34.8533 446.526 33.232C447.934 31.568 449.875 30.352 452.35 29.584C454.825 28.816 457.662 28.432 460.862 28.432H467.71V34.448H460.862C459.283 34.448 458.067 34.8533 457.214 35.664C456.361 36.432 455.934 37.4773 455.934 38.8C455.934 40.08 456.361 41.1253 457.214 41.936C458.067 42.704 459.283 43.088 460.862 43.088C461.886 43.088 462.782 42.9173 463.55 42.576C464.361 42.192 465.022 41.552 465.534 40.656C466.046 39.76 466.345 38.5227 466.43 36.944L469.118 39.504C468.905 41.936 468.307 44.0053 467.326 45.712C466.387 47.376 465.065 48.656 463.358 49.552C461.694 50.448 459.625 50.896 457.15 50.896ZM484.855 64.08V54.352H492.983C493.964 54.352 494.796 54.224 495.479 53.968C496.162 53.712 496.716 53.2853 497.143 52.688C497.57 52.1333 497.89 51.344 498.103 50.32L506.039 14.672H517.047L507.767 52.56C507.084 55.4613 506.124 57.744 504.887 59.408C503.692 61.1147 502.028 62.3093 499.895 62.992C497.804 63.7173 495.074 64.08 491.703 64.08H484.855ZM496.055 49.232V40.272H503.479V49.232H496.055ZM490.679 49.232L480.375 14.672H492.023L501.687 49.232H490.679ZM523.896 61.264L515 57.808L522.04 37.2L531.896 40.784L523.896 61.264ZM571.35 50V39.632H569.43V28.56C569.43 26.9387 569.046 25.744 568.278 24.976C567.553 24.1653 566.337 23.76 564.63 23.76C563.819 23.76 562.625 23.7813 561.046 23.824C559.467 23.8667 557.803 23.9307 556.054 24.016C554.305 24.1013 552.705 24.1867 551.254 24.272V14.544C552.278 14.4587 553.494 14.3733 554.902 14.288C556.31 14.2027 557.761 14.1387 559.254 14.096C560.79 14.0533 562.198 14.032 563.478 14.032C567.105 14.032 570.177 14.5653 572.694 15.632C575.254 16.6987 577.195 18.2987 578.518 20.432C579.883 22.5653 580.566 25.2747 580.566 28.56V50H571.35ZM560.15 50.896C557.675 50.896 555.478 50.448 553.558 49.552C551.638 48.656 550.123 47.376 549.014 45.712C547.947 44.0053 547.414 41.9787 547.414 39.632C547.414 36.9867 548.118 34.8533 549.526 33.232C550.934 31.568 552.875 30.352 555.35 29.584C557.825 28.816 560.662 28.432 563.862 28.432H570.71V34.448H563.862C562.283 34.448 561.067 34.8533 560.214 35.664C559.361 36.432 558.934 37.4773 558.934 38.8C558.934 40.08 559.361 41.1253 560.214 41.936C561.067 42.704 562.283 43.088 563.862 43.088C564.886 43.088 565.782 42.9173 566.55 42.576C567.361 42.192 568.022 41.552 568.534 40.656C569.046 39.76 569.345 38.5227 569.43 36.944L572.118 39.504C571.905 41.936 571.307 44.0053 570.326 45.712C569.387 47.376 568.065 48.656 566.358 49.552C564.694 50.448 562.625 50.896 560.15 50.896ZM588.349 50V14.672H597.565V29.84H597.053C597.053 26.1707 597.522 23.1413 598.461 20.752C599.4 18.32 600.786 16.5067 602.621 15.312C604.498 14.1173 606.76 13.52 609.405 13.52H609.917C613.928 13.52 617.021 14.864 619.197 17.552C621.416 20.1973 622.525 24.272 622.525 29.776V50H610.877V29.456C610.877 27.8347 610.386 26.512 609.405 25.488C608.466 24.4213 607.165 23.888 605.501 23.888C603.837 23.888 602.493 24.4213 601.469 25.488C600.488 26.512 599.997 27.8773 599.997 29.584V50H588.349ZM644.877 51.152C642.402 51.152 640.141 50.704 638.093 49.808C636.088 48.912 634.338 47.6747 632.845 46.096C631.394 44.4747 630.264 42.576 629.453 40.4C628.685 38.224 628.301 35.856 628.301 33.296V31.76C628.301 29.2 628.664 26.832 629.389 24.656C630.157 22.4373 631.245 20.5173 632.653 18.896C634.061 17.232 635.768 15.952 637.773 15.056C639.778 14.1173 642.018 13.648 644.493 13.648C647.352 13.648 649.784 14.288 651.789 15.568C653.837 16.8053 655.394 18.6187 656.461 21.008C657.57 23.3973 658.168 26.2987 658.253 29.712L655.565 27.728V3.28H667.213V50H657.997V35.664H659.277C659.192 38.8213 658.552 41.5733 657.357 43.92C656.162 46.224 654.498 48.016 652.365 49.296C650.274 50.5333 647.778 51.152 644.877 51.152ZM648.013 41.552C649.421 41.552 650.701 41.232 651.853 40.592C653.048 39.952 654.008 39.0133 654.733 37.776C655.458 36.5387 655.821 35.0453 655.821 33.296V31.12C655.821 29.4133 655.437 27.984 654.669 26.832C653.944 25.68 652.984 24.8053 651.789 24.208C650.637 23.568 649.378 23.248 648.013 23.248C646.477 23.248 645.09 23.6533 643.853 24.464C642.658 25.232 641.698 26.32 640.973 27.728C640.29 29.0933 639.949 30.6933 639.949 32.528C639.949 34.3627 640.29 35.9627 640.973 37.328C641.698 38.6507 642.658 39.696 643.853 40.464C645.09 41.1893 646.477 41.552 648.013 41.552ZM698.58 50V12.368H710.484V50H698.58ZM685.78 13.648V3.28H723.284V13.648H685.78ZM728.786 50V3.28H740.435V29.904H738.899C738.899 26.32 739.347 23.312 740.243 20.88C741.139 18.448 742.44 16.6133 744.147 15.376C745.896 14.1387 748.051 13.52 750.611 13.52H751.123C754.963 13.52 757.885 14.9067 759.891 17.68C761.939 20.4533 762.963 24.528 762.963 29.904V50H751.315V29.456C751.315 27.8347 750.824 26.512 749.843 25.488C748.861 24.4213 747.56 23.888 745.939 23.888C744.317 23.888 742.995 24.4213 741.971 25.488C740.947 26.512 740.435 27.8773 740.435 29.584V50H728.786ZM770.786 50V14.672H780.003V30.032H779.875C779.875 25.0827 780.899 21.2 782.947 18.384C785.037 15.568 788.024 14.16 791.907 14.16H793.315V24.144H790.627C788.024 24.144 785.997 24.848 784.547 26.256C783.139 27.664 782.435 29.6907 782.435 32.336V50H770.786ZM799.576 50V14.672H811.224V50H799.576ZM795.096 23.12V14.672H811.224V23.12H795.096ZM804.376 11.856C802.242 11.856 800.664 11.3227 799.64 10.256C798.658 9.14666 798.168 7.73867 798.168 6.032C798.168 4.32533 798.658 2.93866 799.64 1.872C800.664 0.762664 802.221 0.207996 804.312 0.207996C806.445 0.207996 808.002 0.762664 808.984 1.872C809.965 2.93866 810.456 4.32533 810.456 6.032C810.456 7.73867 809.965 9.14666 808.984 10.256C808.002 11.3227 806.466 11.856 804.376 11.856ZM826.443 50L816.331 14.672H828.235L837.643 50H826.443ZM830.155 50V40.272H841.483V50H830.155ZM834.251 50L842.251 14.672H853.387L844.683 50H834.251ZM874.488 51.28C871.501 51.28 868.856 50.768 866.552 49.744C864.248 48.72 862.306 47.3333 860.728 45.584C859.149 43.8347 857.933 41.872 857.08 39.696C856.269 37.52 855.864 35.28 855.864 32.976V31.696C855.864 29.3067 856.269 27.024 857.08 24.848C857.933 22.6293 859.128 20.6667 860.664 18.96C862.242 17.2533 864.162 15.9093 866.424 14.928C868.685 13.904 871.245 13.392 874.104 13.392C877.901 13.392 881.122 14.2453 883.768 15.952C886.413 17.6587 888.44 19.92 889.847 22.736C891.256 25.5093 891.96 28.5387 891.96 31.824V35.536H860.728V29.264H885.24L881.208 32.08C881.208 30.0747 880.93 28.3893 880.376 27.024C879.864 25.616 879.074 24.5493 878.008 23.824C876.984 23.0987 875.682 22.736 874.104 22.736C872.568 22.736 871.224 23.0987 870.072 23.824C868.962 24.5067 868.109 25.5733 867.512 27.024C866.914 28.432 866.616 30.224 866.616 32.4C866.616 34.3627 866.893 36.0693 867.448 37.52C868.002 38.928 868.856 40.016 870.008 40.784C871.16 41.552 872.653 41.936 874.488 41.936C876.109 41.936 877.432 41.6587 878.456 41.104C879.522 40.5493 880.269 39.8027 880.696 38.864H891.319C890.808 41.2533 889.784 43.3867 888.248 45.264C886.754 47.1413 884.834 48.6133 882.488 49.68C880.184 50.7467 877.517 51.28 874.488 51.28ZM924.986 50L931.258 15.824H943.418L950.586 50H941.754L934.33 16.08H939.706L932.922 50H924.986ZM922.81 50L922.746 40.272H929.786L929.85 50H922.81ZM917.114 50L907.834 14.672H919.226L927.802 50H917.114ZM944.89 50L944.954 40.272H951.994L951.93 50H944.89ZM947.706 50L955.45 14.672H966.074L957.626 50H947.706ZM973.388 50V14.672H985.036V50H973.388ZM968.908 23.12V14.672H985.036V23.12H968.908ZM978.188 11.856C976.055 11.856 974.476 11.3227 973.452 10.256C972.471 9.14666 971.98 7.73867 971.98 6.032C971.98 4.32533 972.471 2.93866 973.452 1.872C974.476 0.762664 976.033 0.207996 978.124 0.207996C980.257 0.207996 981.815 0.762664 982.796 1.872C983.777 2.93866 984.268 4.32533 984.268 6.032C984.268 7.73867 983.777 9.14666 982.796 10.256C981.815 11.3227 980.279 11.856 978.188 11.856ZM1010.43 50.512C1006.59 50.512 1003.52 50.0427 1001.22 49.104C998.954 48.1653 997.311 46.608 996.287 44.432C995.263 42.256 994.751 39.312 994.751 35.6L994.815 5.456H1005.57L1005.5 35.92C1005.5 37.4987 1005.91 38.7147 1006.72 39.568C1007.57 40.3787 1008.79 40.784 1010.37 40.784H1015.23V50.512H1010.43ZM989.631 23.12V14.672H1015.23V23.12H989.631ZM1021.47 50V3.28H1033.12V29.904H1031.59C1031.59 26.32 1032.03 23.312 1032.93 20.88C1033.83 18.448 1035.13 16.6133 1036.83 15.376C1038.58 14.1387 1040.74 13.52 1043.3 13.52H1043.81C1047.65 13.52 1050.57 14.9067 1052.58 17.68C1054.63 20.4533 1055.65 24.528 1055.65 29.904V50H1044V29.456C1044 27.8347 1043.51 26.512 1042.53 25.488C1041.55 24.4213 1040.25 23.888 1038.63 23.888C1037 23.888 1035.68 24.4213 1034.66 25.488C1033.63 26.512 1033.12 27.8773 1033.12 29.584V50H1021.47ZM219.371 113.176V104.472H250.987V113.176H219.371ZM277.507 127L266.371 80.28H278.659L287.043 119L285.059 117.528H290.243L288.003 119L294.339 81.944H304.003L295.235 127H277.507ZM305.283 127L295.875 81.944H306.051L313.475 119L311.235 117.528H316.099L314.435 119L321.667 80.28H333.187L323.395 127H305.283ZM338.568 127V80.28H350.216V106.904H348.68C348.68 103.32 349.128 100.312 350.024 97.88C350.92 95.448 352.221 93.6133 353.928 92.376C355.677 91.1387 357.832 90.52 360.392 90.52H360.904C364.744 90.52 367.666 91.9067 369.672 94.68C371.72 97.4533 372.744 101.528 372.744 106.904V127H361.096V106.456C361.096 104.835 360.605 103.512 359.624 102.488C358.642 101.421 357.341 100.888 355.72 100.888C354.098 100.888 352.776 101.421 351.752 102.488C350.728 103.512 350.216 104.877 350.216 106.584V127H338.568ZM397.144 128.28C394.157 128.28 391.512 127.768 389.208 126.744C386.904 125.72 384.962 124.333 383.384 122.584C381.805 120.835 380.589 118.872 379.736 116.696C378.925 114.52 378.52 112.28 378.52 109.976V108.696C378.52 106.307 378.925 104.024 379.736 101.848C380.589 99.6293 381.784 97.6667 383.32 95.96C384.898 94.2533 386.818 92.9093 389.08 91.928C391.341 90.904 393.901 90.392 396.76 90.392C400.557 90.392 403.778 91.2453 406.424 92.952C409.069 94.6587 411.096 96.92 412.504 99.736C413.912 102.509 414.616 105.539 414.616 108.824V112.536H383.384V106.264H407.896L403.864 109.08C403.864 107.075 403.586 105.389 403.032 104.024C402.52 102.616 401.73 101.549 400.664 100.824C399.64 100.099 398.338 99.736 396.76 99.736C395.224 99.736 393.88 100.099 392.728 100.824C391.618 101.507 390.765 102.573 390.168 104.024C389.57 105.432 389.272 107.224 389.272 109.4C389.272 111.363 389.549 113.069 390.104 114.52C390.658 115.928 391.512 117.016 392.664 117.784C393.816 118.552 395.309 118.936 397.144 118.936C398.765 118.936 400.088 118.659 401.112 118.104C402.178 117.549 402.925 116.803 403.352 115.864H413.976C413.464 118.253 412.44 120.387 410.904 122.264C409.41 124.141 407.49 125.613 405.144 126.68C402.84 127.747 400.173 128.28 397.144 128.28ZM420.755 127V91.672H429.971V107.032H429.843C429.843 102.083 430.867 98.2 432.915 95.384C435.006 92.568 437.993 91.16 441.875 91.16H443.283V101.144H440.595C437.993 101.144 435.966 101.848 434.515 103.256C433.107 104.664 432.403 106.691 432.403 109.336V127H420.755ZM464.331 128.28C461.345 128.28 458.699 127.768 456.395 126.744C454.091 125.72 452.15 124.333 450.571 122.584C448.993 120.835 447.777 118.872 446.923 116.696C446.113 114.52 445.707 112.28 445.707 109.976V108.696C445.707 106.307 446.113 104.024 446.923 101.848C447.777 99.6293 448.971 97.6667 450.507 95.96C452.086 94.2533 454.006 92.9093 456.267 91.928C458.529 90.904 461.089 90.392 463.947 90.392C467.745 90.392 470.966 91.2453 473.611 92.952C476.257 94.6587 478.283 96.92 479.691 99.736C481.099 102.509 481.803 105.539 481.803 108.824V112.536H450.571V106.264H475.083L471.051 109.08C471.051 107.075 470.774 105.389 470.219 104.024C469.707 102.616 468.918 101.549 467.851 100.824C466.827 100.099 465.526 99.736 463.947 99.736C462.411 99.736 461.067 100.099 459.915 100.824C458.806 101.507 457.953 102.573 457.355 104.024C456.758 105.432 456.459 107.224 456.459 109.4C456.459 111.363 456.737 113.069 457.291 114.52C457.846 115.928 458.699 117.016 459.851 117.784C461.003 118.552 462.497 118.936 464.331 118.936C465.953 118.936 467.275 118.659 468.299 118.104C469.366 117.549 470.113 116.803 470.539 115.864H481.163C480.651 118.253 479.627 120.387 478.091 122.264C476.598 124.141 474.678 125.613 472.331 126.68C470.027 127.747 467.361 128.28 464.331 128.28ZM517.837 127.512C513.997 127.512 510.925 127.043 508.621 126.104C506.36 125.165 504.717 123.608 503.693 121.432C502.669 119.256 502.157 116.312 502.157 112.6L502.221 82.456H512.973L512.909 112.92C512.909 114.499 513.315 115.715 514.125 116.568C514.979 117.379 516.195 117.784 517.773 117.784H522.637V127.512H517.837ZM497.037 100.12V91.672H522.637V100.12H497.037ZM528.88 127V80.28H540.528V106.904H538.992C538.992 103.32 539.44 100.312 540.336 97.88C541.232 95.448 542.534 93.6133 544.24 92.376C545.99 91.1387 548.144 90.52 550.704 90.52H551.216C555.056 90.52 557.979 91.9067 559.984 94.68C562.032 97.4533 563.056 101.528 563.056 106.904V127H551.408V106.456C551.408 104.835 550.918 103.512 549.936 102.488C548.955 101.421 547.654 100.888 546.032 100.888C544.411 100.888 543.088 101.421 542.064 102.488C541.04 103.512 540.528 104.877 540.528 106.584V127H528.88ZM587.456 128.28C584.47 128.28 581.824 127.768 579.52 126.744C577.216 125.72 575.275 124.333 573.696 122.584C572.118 120.835 570.902 118.872 570.048 116.696C569.238 114.52 568.832 112.28 568.832 109.976V108.696C568.832 106.307 569.238 104.024 570.048 101.848C570.902 99.6293 572.096 97.6667 573.632 95.96C575.211 94.2533 577.131 92.9093 579.392 91.928C581.654 90.904 584.214 90.392 587.072 90.392C590.87 90.392 594.091 91.2453 596.736 92.952C599.382 94.6587 601.408 96.92 602.816 99.736C604.224 102.509 604.928 105.539 604.928 108.824V112.536H573.696V106.264H598.208L594.176 109.08C594.176 107.075 593.899 105.389 593.344 104.024C592.832 102.616 592.043 101.549 590.976 100.824C589.952 100.099 588.651 99.736 587.072 99.736C585.536 99.736 584.192 100.099 583.04 100.824C581.931 101.507 581.078 102.573 580.48 104.024C579.883 105.432 579.584 107.224 579.584 109.4C579.584 111.363 579.862 113.069 580.416 114.52C580.971 115.928 581.824 117.016 582.976 117.784C584.128 118.552 585.622 118.936 587.456 118.936C589.078 118.936 590.4 118.659 591.424 118.104C592.491 117.549 593.238 116.803 593.664 115.864H604.288C603.776 118.253 602.752 120.387 601.216 122.264C599.723 124.141 597.803 125.613 595.456 126.68C593.152 127.747 590.486 128.28 587.456 128.28ZM624.898 127V91.8C624.898 87.6613 626.093 84.5893 628.482 82.584C630.872 80.536 634.413 79.512 639.106 79.512H643.65V88.088H638.85C637.826 88.088 637.037 88.3653 636.482 88.92C635.928 89.4747 635.65 90.264 635.65 91.288V127H624.898ZM620.93 100.888V92.44H644.162V100.888H620.93ZM660.47 128.152C656.46 128.152 653.345 126.851 651.126 124.248C648.95 121.603 647.862 117.571 647.862 112.152V91.672H659.51V112.472C659.51 114.051 659.98 115.331 660.918 116.312C661.857 117.293 663.116 117.784 664.694 117.784C666.273 117.784 667.553 117.293 668.534 116.312C669.516 115.331 670.006 114.008 670.006 112.344V91.672H681.654V127H672.438V112.152H673.078C673.078 115.779 672.609 118.787 671.67 121.176C670.774 123.523 669.43 125.272 667.638 126.424C665.846 127.576 663.628 128.152 660.982 128.152H660.47ZM690.255 127V91.672H699.471V106.84H698.959C698.959 103.171 699.429 100.141 700.367 97.752C701.306 95.32 702.693 93.5067 704.527 92.312C706.405 91.1173 708.666 90.52 711.311 90.52H711.823C715.834 90.52 718.927 91.864 721.103 94.552C723.322 97.1973 724.431 101.272 724.431 106.776V127H712.783V106.456C712.783 104.835 712.293 103.512 711.311 102.488C710.373 101.421 709.071 100.888 707.407 100.888C705.743 100.888 704.399 101.421 703.375 102.488C702.394 103.512 701.903 104.877 701.903 106.584V127H690.255ZM745.318 127V91.672H754.534V106.84H754.022C754.022 103.171 754.491 100.141 755.43 97.752C756.368 95.32 757.755 93.5067 759.59 92.312C761.467 91.1173 763.728 90.52 766.374 90.52H766.886C770.896 90.52 773.99 91.864 776.166 94.552C778.384 97.1973 779.494 101.272 779.494 106.776V127H767.846V106.456C767.846 104.835 767.355 103.512 766.374 102.488C765.435 101.421 764.134 100.888 762.47 100.888C760.806 100.888 759.462 101.421 758.438 102.488C757.456 103.512 756.966 104.877 756.966 106.584V127H745.318ZM803.894 128.28C800.907 128.28 798.262 127.768 795.958 126.744C793.654 125.72 791.712 124.333 790.134 122.584C788.555 120.835 787.339 118.872 786.486 116.696C785.675 114.52 785.27 112.28 785.27 109.976V108.696C785.27 106.307 785.675 104.024 786.486 101.848C787.339 99.6293 788.534 97.6667 790.07 95.96C791.648 94.2533 793.568 92.9093 795.83 91.928C798.091 90.904 800.651 90.392 803.51 90.392C807.307 90.392 810.528 91.2453 813.174 92.952C815.819 94.6587 817.846 96.92 819.254 99.736C820.662 102.509 821.366 105.539 821.366 108.824V112.536H790.134V106.264H814.646L810.614 109.08C810.614 107.075 810.336 105.389 809.782 104.024C809.27 102.616 808.48 101.549 807.414 100.824C806.39 100.099 805.088 99.736 803.51 99.736C801.974 99.736 800.63 100.099 799.478 100.824C798.368 101.507 797.515 102.573 796.918 104.024C796.32 105.432 796.022 107.224 796.022 109.4C796.022 111.363 796.299 113.069 796.854 114.52C797.408 115.928 798.262 117.016 799.414 117.784C800.566 118.552 802.059 118.936 803.894 118.936C805.515 118.936 806.838 118.659 807.862 118.104C808.928 117.549 809.675 116.803 810.102 115.864H820.726C820.214 118.253 819.19 120.387 817.654 122.264C816.16 124.141 814.24 125.613 811.894 126.68C809.59 127.747 806.923 128.28 803.894 128.28ZM833.786 127L823.674 91.672H835.578L844.986 127H833.786ZM837.498 127V117.272H848.826V127H837.498ZM841.594 127L849.594 91.672H860.73L852.026 127H841.594ZM881.831 128.28C878.845 128.28 876.199 127.768 873.895 126.744C871.591 125.72 869.65 124.333 868.071 122.584C866.493 120.835 865.277 118.872 864.423 116.696C863.613 114.52 863.207 112.28 863.207 109.976V108.696C863.207 106.307 863.613 104.024 864.423 101.848C865.277 99.6293 866.471 97.6667 868.007 95.96C869.586 94.2533 871.506 92.9093 873.767 91.928C876.029 90.904 878.589 90.392 881.447 90.392C885.245 90.392 888.466 91.2453 891.111 92.952C893.757 94.6587 895.783 96.92 897.191 99.736C898.599 102.509 899.303 105.539 899.303 108.824V112.536H868.071V106.264H892.583L888.551 109.08C888.551 107.075 888.274 105.389 887.719 104.024C887.207 102.616 886.418 101.549 885.351 100.824C884.327 100.099 883.026 99.736 881.447 99.736C879.911 99.736 878.567 100.099 877.415 100.824C876.306 101.507 875.453 102.573 874.855 104.024C874.258 105.432 873.959 107.224 873.959 109.4C873.959 111.363 874.237 113.069 874.791 114.52C875.346 115.928 876.199 117.016 877.351 117.784C878.503 118.552 879.997 118.936 881.831 118.936C883.453 118.936 884.775 118.659 885.799 118.104C886.866 117.549 887.613 116.803 888.039 115.864H898.663C898.151 118.253 897.127 120.387 895.591 122.264C894.098 124.141 892.178 125.613 889.831 126.68C887.527 127.747 884.861 128.28 881.831 128.28ZM905.443 127V91.672H914.659V107.032H914.531C914.531 102.083 915.555 98.2 917.603 95.384C919.693 92.568 922.68 91.16 926.563 91.16H927.971V101.144H925.283C922.68 101.144 920.653 101.848 919.203 103.256C917.795 104.664 917.091 106.691 917.091 109.336V127H905.443ZM962.206 128.28C959.22 128.28 956.574 127.768 954.27 126.744C951.966 125.72 950.025 124.333 948.446 122.584C946.868 120.835 945.652 118.872 944.798 116.696C943.988 114.52 943.582 112.28 943.582 109.976V108.696C943.582 106.307 943.988 104.024 944.798 101.848C945.652 99.6293 946.846 97.6667 948.382 95.96C949.961 94.2533 951.881 92.9093 954.142 91.928C956.404 90.904 958.964 90.392 961.822 90.392C965.62 90.392 968.841 91.2453 971.486 92.952C974.132 94.6587 976.158 96.92 977.566 99.736C978.974 102.509 979.678 105.539 979.678 108.824V112.536H948.446V106.264H972.958L968.926 109.08C968.926 107.075 968.649 105.389 968.094 104.024C967.582 102.616 966.793 101.549 965.726 100.824C964.702 100.099 963.401 99.736 961.822 99.736C960.286 99.736 958.942 100.099 957.79 100.824C956.681 101.507 955.828 102.573 955.23 104.024C954.633 105.432 954.334 107.224 954.334 109.4C954.334 111.363 954.612 113.069 955.166 114.52C955.721 115.928 956.574 117.016 957.726 117.784C958.878 118.552 960.372 118.936 962.206 118.936C963.828 118.936 965.15 118.659 966.174 118.104C967.241 117.549 967.988 116.803 968.414 115.864H979.038C978.526 118.253 977.502 120.387 975.966 122.264C974.473 124.141 972.553 125.613 970.206 126.68C967.902 127.747 965.236 128.28 962.206 128.28ZM985.818 127V91.672H995.034V106.84H994.522C994.522 103.171 994.991 100.141 995.93 97.752C996.868 95.32 998.255 93.5067 1000.09 92.312C1001.97 91.1173 1004.23 90.52 1006.87 90.52H1007.39C1011.4 90.52 1014.49 91.864 1016.67 94.552C1018.88 97.1973 1019.99 101.272 1019.99 106.776V127H1008.35V106.456C1008.35 104.835 1007.86 103.512 1006.87 102.488C1005.94 101.421 1004.63 100.888 1002.97 100.888C1001.31 100.888 999.962 101.421 998.938 102.488C997.956 103.512 997.466 104.877 997.466 106.584V127H985.818ZM1042.35 128.152C1039.87 128.152 1037.61 127.704 1035.56 126.808C1033.56 125.912 1031.81 124.675 1030.31 123.096C1028.86 121.475 1027.73 119.576 1026.92 117.4C1026.15 115.224 1025.77 112.856 1025.77 110.296V108.76C1025.77 106.2 1026.13 103.832 1026.86 101.656C1027.63 99.4373 1028.71 97.5173 1030.12 95.896C1031.53 94.232 1033.24 92.952 1035.24 92.056C1037.25 91.1173 1039.49 90.648 1041.96 90.648C1044.82 90.648 1047.25 91.288 1049.26 92.568C1051.31 93.8053 1052.86 95.6187 1053.93 98.008C1055.04 100.397 1055.64 103.299 1055.72 106.712L1053.03 104.728V80.28H1064.68V127H1055.47V112.664H1056.75C1056.66 115.821 1056.02 118.573 1054.83 120.92C1053.63 123.224 1051.97 125.016 1049.83 126.296C1047.74 127.533 1045.25 128.152 1042.35 128.152ZM1045.48 118.552C1046.89 118.552 1048.17 118.232 1049.32 117.592C1050.52 116.952 1051.48 116.013 1052.2 114.776C1052.93 113.539 1053.29 112.045 1053.29 110.296V108.12C1053.29 106.413 1052.91 104.984 1052.14 103.832C1051.41 102.68 1050.45 101.805 1049.26 101.208C1048.11 100.568 1046.85 100.248 1045.48 100.248C1043.95 100.248 1042.56 100.653 1041.32 101.464C1040.13 102.232 1039.17 103.32 1038.44 104.728C1037.76 106.093 1037.42 107.693 1037.42 109.528C1037.42 111.363 1037.76 112.963 1038.44 114.328C1039.17 115.651 1040.13 116.696 1041.32 117.464C1042.56 118.189 1043.95 118.552 1045.48 118.552ZM1087.15 128.152C1082.03 128.152 1077.99 127.107 1075.05 125.016C1072.11 122.883 1070.53 119.896 1070.31 116.056H1080.55C1080.72 117.123 1081.39 118.04 1082.54 118.808C1083.69 119.576 1085.31 119.96 1087.4 119.96C1088.9 119.96 1090.18 119.747 1091.24 119.32C1092.35 118.851 1092.91 118.104 1092.91 117.08C1092.91 116.184 1092.48 115.459 1091.63 114.904C1090.77 114.307 1089.22 113.901 1086.95 113.688L1084.52 113.432C1080 112.963 1076.67 111.725 1074.54 109.72C1072.4 107.715 1071.34 105.197 1071.34 102.168C1071.34 99.5653 1071.98 97.432 1073.26 95.768C1074.54 94.0613 1076.31 92.7813 1078.57 91.928C1080.83 91.0747 1083.41 90.648 1086.31 90.648C1091.05 90.648 1094.87 91.6933 1097.77 93.784C1100.67 95.832 1102.21 98.7973 1102.38 102.68H1092.14C1091.97 101.613 1091.39 100.717 1090.41 99.992C1089.43 99.224 1088.02 98.84 1086.19 98.84C1084.86 98.84 1083.78 99.0747 1082.92 99.544C1082.11 100.013 1081.71 100.675 1081.71 101.528C1081.71 102.424 1082.09 103.085 1082.86 103.512C1083.67 103.939 1084.95 104.259 1086.7 104.472L1089.13 104.728C1093.65 105.197 1097.13 106.456 1099.56 108.504C1102.04 110.509 1103.27 113.155 1103.27 116.44C1103.27 118.872 1102.61 120.963 1101.29 122.712C1100.01 124.461 1098.15 125.805 1095.72 126.744C1093.33 127.683 1090.47 128.152 1087.15 128.152ZM1109.26 110.616V80.28H1121.16V110.616H1109.26ZM1108.43 127V115.864H1122V127H1108.43Z" fill="black"/>
<path d="M10.7663 114.584V104.344H18.4463C19.8969 104.344 21.1556 104.067 22.2223 103.512C23.2889 102.915 24.1209 102.083 24.7183 101.016C25.3156 99.9493 25.6143 98.6907 25.6143 97.24C25.6143 95.7467 25.3156 94.4667 24.7183 93.4C24.1209 92.3333 23.2889 91.5227 22.2223 90.968C21.1556 90.4133 19.8969 90.136 18.4463 90.136H10.7663V79.896H18.1263C22.1369 79.896 25.5929 80.5787 28.4943 81.944C31.4383 83.2667 33.6996 85.1867 35.2783 87.704C36.8569 90.2213 37.6463 93.2293 37.6463 96.728V97.752C37.6463 101.208 36.8569 104.195 35.2783 106.712C33.6996 109.229 31.4383 111.171 28.4943 112.536C25.5929 113.901 22.1369 114.584 18.1263 114.584H10.7663ZM0.14225 127V79.896H12.0463V127H0.14225ZM63.7563 127V116.632H61.8363V105.56C61.8363 103.939 61.4523 102.744 60.6843 101.976C59.9589 101.165 58.7429 100.76 57.0363 100.76C56.2256 100.76 55.0309 100.781 53.4523 100.824C51.8736 100.867 50.2096 100.931 48.4603 101.016C46.7109 101.101 45.1109 101.187 43.6603 101.272V91.544C44.6843 91.4587 45.9003 91.3733 47.3083 91.288C48.7163 91.2027 50.1669 91.1387 51.6603 91.096C53.1963 91.0533 54.6043 91.032 55.8843 91.032C59.5109 91.032 62.5829 91.5653 65.1003 92.632C67.6603 93.6987 69.6016 95.2987 70.9243 97.432C72.2896 99.5653 72.9723 102.275 72.9723 105.56V127H63.7563ZM52.5563 127.896C50.0816 127.896 47.8843 127.448 45.9643 126.552C44.0443 125.656 42.5296 124.376 41.4203 122.712C40.3536 121.005 39.8203 118.979 39.8203 116.632C39.8203 113.987 40.5243 111.853 41.9323 110.232C43.3403 108.568 45.2816 107.352 47.7563 106.584C50.2309 105.816 53.0683 105.432 56.2683 105.432H63.1163V111.448H56.2683C54.6896 111.448 53.4736 111.853 52.6203 112.664C51.7669 113.432 51.3403 114.477 51.3403 115.8C51.3403 117.08 51.7669 118.125 52.6203 118.936C53.4736 119.704 54.6896 120.088 56.2683 120.088C57.2923 120.088 58.1883 119.917 58.9563 119.576C59.7669 119.192 60.4283 118.552 60.9403 117.656C61.4523 116.76 61.7509 115.523 61.8363 113.944L64.5243 116.504C64.3109 118.936 63.7136 121.005 62.7323 122.712C61.7936 124.376 60.4709 125.656 58.7643 126.552C57.1003 127.448 55.0309 127.896 52.5563 127.896ZM102.131 127V116.632H100.211V105.56C100.211 103.939 99.8273 102.744 99.0593 101.976C98.3339 101.165 97.1179 100.76 95.4113 100.76C94.6006 100.76 93.4059 100.781 91.8273 100.824C90.2486 100.867 88.5846 100.931 86.8353 101.016C85.0859 101.101 83.4859 101.187 82.0353 101.272V91.544C83.0593 91.4587 84.2753 91.3733 85.6833 91.288C87.0913 91.2027 88.5419 91.1387 90.0353 91.096C91.5713 91.0533 92.9793 91.032 94.2593 91.032C97.8859 91.032 100.958 91.5653 103.475 92.632C106.035 93.6987 107.977 95.2987 109.299 97.432C110.665 99.5653 111.347 102.275 111.347 105.56V127H102.131ZM90.9313 127.896C88.4566 127.896 86.2593 127.448 84.3393 126.552C82.4193 125.656 80.9046 124.376 79.7953 122.712C78.7286 121.005 78.1953 118.979 78.1953 116.632C78.1953 113.987 78.8993 111.853 80.3073 110.232C81.7153 108.568 83.6566 107.352 86.1313 106.584C88.6059 105.816 91.4433 105.432 94.6433 105.432H101.491V111.448H94.6433C93.0646 111.448 91.8486 111.853 90.9953 112.664C90.1419 113.432 89.7153 114.477 89.7153 115.8C89.7153 117.08 90.1419 118.125 90.9953 118.936C91.8486 119.704 93.0646 120.088 94.6433 120.088C95.6673 120.088 96.5633 119.917 97.3313 119.576C98.1419 119.192 98.8033 118.552 99.3153 117.656C99.8273 116.76 100.126 115.523 100.211 113.944L102.899 116.504C102.686 118.936 102.089 121.005 101.107 122.712C100.169 124.376 98.8459 125.656 97.1393 126.552C95.4753 127.448 93.4059 127.896 90.9313 127.896ZM119.642 127V80.28H131.29V127H119.642ZM115.674 88.728V80.28H131.29V88.728H115.674ZM156.712 127.512C152.872 127.512 149.8 127.043 147.496 126.104C145.235 125.165 143.592 123.608 142.568 121.432C141.544 119.256 141.032 116.312 141.032 112.6L141.096 82.456H151.848L151.784 112.92C151.784 114.499 152.19 115.715 153 116.568C153.854 117.379 155.07 117.784 156.648 117.784H161.512V127.512H156.712ZM135.912 100.12V91.672H161.512V100.12H135.912ZM179.595 128.152C175.585 128.152 172.47 126.851 170.251 124.248C168.075 121.603 166.987 117.571 166.987 112.152V91.672H178.635V112.472C178.635 114.051 179.105 115.331 180.043 116.312C180.982 117.293 182.241 117.784 183.819 117.784C185.398 117.784 186.678 117.293 187.659 116.312C188.641 115.331 189.131 114.008 189.131 112.344V91.672H200.779V127H191.563V112.152H192.203C192.203 115.779 191.734 118.787 190.795 121.176C189.899 123.523 188.555 125.272 186.763 126.424C184.971 127.576 182.753 128.152 180.107 128.152H179.595Z" fill="#E1647D"/>
</svg>
