<svg width="135" height="58" viewBox="0 0 135 58" fill="none" xmlns="http://www.w3.org/2000/svg">
<path d="M25.0001 7.86816C18.2104 7.86816 17.359 7.89294 14.6925 7.99752C12.0315 8.10192 10.2142 8.46543 8.624 8.99682C6.98003 9.54627 5.58584 10.2815 4.19604 11.4767C2.80617 12.6719 1.95129 13.8711 1.31247 15.2849C0.694416 16.6524 0.271886 18.2153 0.150345 20.5037C0.0287293 22.7969 0 23.5291 0 29.3682C0 35.2072 0.0287293 35.9394 0.150345 38.2326C0.271886 40.521 0.694416 42.0839 1.31247 43.4515C1.95136 44.8653 2.80624 46.0643 4.19604 47.2596C5.58591 48.4549 6.98003 49.1901 8.624 49.7395C10.2142 50.2709 12.0315 50.6343 14.6925 50.7388C17.359 50.8434 18.2104 50.8682 25.0001 50.8682C31.7896 50.8682 32.6409 50.8434 35.3075 50.7388C37.9684 50.6344 39.7858 50.2709 41.3759 49.7395C43.0199 49.1901 44.4141 48.4549 45.804 47.2596C47.1938 46.0643 48.0487 44.8653 48.6876 43.4515C49.3055 42.0839 49.7282 40.521 49.8496 38.2326C49.9712 35.9394 50 35.2072 50 29.3682C50 23.5291 49.9712 22.7969 49.8496 20.5037C49.7282 18.2153 49.3055 16.6524 48.6876 15.2849C48.0487 13.8711 47.1938 12.6719 45.804 11.4767C44.4141 10.2815 43.0199 9.54627 41.3759 8.99682C39.7858 8.46543 37.9684 8.10192 35.3075 7.99752C32.6409 7.89294 31.7896 7.86816 25.0001 7.86816ZM25.0001 11.742C31.6752 11.742 32.466 11.764 35.1021 11.8674C37.5397 11.963 38.8634 12.3132 39.7442 12.6077C40.9113 12.9977 41.744 13.4636 42.6188 14.2159C43.4937 14.9683 44.0354 15.6845 44.489 16.6881C44.8313 17.4457 45.2386 18.5841 45.3497 20.6803C45.47 22.9474 45.4955 23.6275 45.4955 29.3682C45.4955 35.1089 45.47 35.7889 45.3497 38.056C45.2386 40.1523 44.8313 41.2907 44.489 42.0482C44.0354 43.0519 43.4937 43.768 42.6188 44.5203C41.744 45.2728 40.9112 45.7386 39.7443 46.1287C38.8634 46.4231 37.5396 46.7734 35.1021 46.8689C32.4664 46.9724 31.6758 46.9943 25 46.9943C18.3242 46.9943 17.5337 46.9724 14.8979 46.8689C12.4603 46.7734 11.1366 46.4231 10.2558 46.1287C9.08873 45.7386 8.25595 45.2728 7.3812 44.5203C6.50637 43.768 5.9646 43.0518 5.51104 42.0483C5.16867 41.2907 4.76147 40.1522 4.65028 38.056C4.53 35.7889 4.50447 35.1089 4.50447 29.3682C4.50447 23.6275 4.53 22.9474 4.65028 20.6803C4.76147 18.584 5.16867 17.4457 5.51104 16.6881C5.9646 15.6845 6.50637 14.9683 7.38112 14.216C8.25595 13.4636 9.0888 12.9977 10.2557 12.6077C11.1366 12.3132 12.4604 11.963 14.8979 11.8674C17.534 11.764 18.3248 11.742 25 11.742" fill="#100F0D"/>
<path d="M24.9995 36.535C20.397 36.535 16.6661 33.3264 16.6661 29.3684C16.6661 25.4102 20.397 22.2016 24.9995 22.2016C29.6019 22.2016 33.3328 25.4102 33.3328 29.3684C33.3328 33.3264 29.6019 36.535 24.9995 36.535ZM24.9995 18.3278C17.9093 18.3278 12.1616 23.2708 12.1616 29.3684C12.1616 35.4659 17.9093 40.4089 24.9995 40.4089C32.0896 40.4089 37.8373 35.4659 37.8373 29.3684C37.8373 23.2708 32.0896 18.3278 24.9995 18.3278ZM41.3446 17.8916C41.3446 19.3165 40.0014 20.4716 38.3445 20.4716C36.6877 20.4716 35.3445 19.3165 35.3445 17.8916C35.3445 16.4667 36.6877 15.3115 38.3445 15.3115C40.0014 15.3115 41.3446 16.4667 41.3446 17.8916Z" fill="#100F0D"/>
<path d="M126.875 11.1365V47.5998C126.875 48.4335 126.497 49.233 125.825 49.8225C125.153 50.412 124.241 50.7432 123.29 50.7432H81.7096C80.7589 50.7432 79.8471 50.412 79.1749 49.8225C78.5027 49.233 78.125 48.4335 78.125 47.5998V11.1365C78.125 10.3029 78.5027 9.50334 79.1749 8.91384C79.8471 8.32434 80.7589 7.99316 81.7096 7.99316H123.29C124.241 7.99316 125.153 8.32434 125.825 8.91384C126.497 9.50334 126.875 10.3029 126.875 11.1365ZM92.4632 24.3388H85.2941V44.4564H92.4632V24.3388ZM93.1085 17.4233C93.1122 16.9478 93.0092 16.4762 92.8051 16.0356C92.6011 15.595 92.3001 15.194 91.9193 14.8554C91.5385 14.5168 91.0854 14.2473 90.5858 14.0622C90.0862 13.8772 89.55 13.7803 89.0077 13.777H88.8787C87.7759 13.777 86.7183 14.1612 85.9385 14.845C85.1587 15.5288 84.7206 16.4562 84.7206 17.4233C84.7206 18.3904 85.1587 19.3178 85.9385 20.0017C86.7183 20.6855 87.7759 21.0696 88.8787 21.0696C89.421 21.0813 89.9606 20.9992 90.4668 20.828C90.9729 20.6567 91.4356 20.3997 91.8284 20.0716C92.2212 19.7435 92.5364 19.3507 92.756 18.9157C92.9757 18.4807 93.0954 18.0121 93.1085 17.5365V17.4233ZM119.706 32.2349C119.706 26.1871 115.318 23.8358 110.96 23.8358C109.532 23.7731 108.111 24.0397 106.838 24.6089C105.565 25.1781 104.485 26.0301 103.704 27.0798H103.504V24.3388H96.7647V44.4564H103.934V33.7563C103.83 32.6605 104.224 31.573 105.029 30.7302C105.835 29.8873 106.987 29.3572 108.235 29.255H108.508C110.788 29.255 112.479 30.5124 112.479 33.6809V44.4564H119.649L119.706 32.2349Z" fill="black"/>
</svg>
