<svg width="175" height="26" viewBox="0 0 175 26" fill="none" xmlns="http://www.w3.org/2000/svg">
<path d="M0.330238 24.8682V1.50816H7.56224L12.9062 14.6282H13.5142L18.7942 1.50816H26.1542V24.8682H20.9702V4.93216L21.7062 4.99616L15.5302 20.1322H10.5382L4.33024 4.99616L5.13024 4.93216V24.8682H0.330238ZM42.2967 24.8682V19.6842H41.4327V14.0522C41.4327 13.1562 41.2194 12.4842 40.7927 12.0362C40.366 11.5882 39.6834 11.3642 38.7447 11.3642C38.2754 11.3642 37.6567 11.3748 36.8887 11.3962C36.1207 11.4175 35.3314 11.4495 34.5207 11.4922C33.71 11.5348 32.974 11.5775 32.3127 11.6202V7.30016C32.8034 7.2575 33.3794 7.21483 34.0407 7.17216C34.702 7.1295 35.3847 7.0975 36.0887 7.07616C36.7927 7.05483 37.454 7.04416 38.0727 7.04416C39.8647 7.04416 41.3687 7.30016 42.5847 7.81216C43.822 8.32416 44.7607 9.10283 45.4007 10.1482C46.0407 11.1722 46.3607 12.4948 46.3607 14.1162V24.8682H42.2967ZM36.6967 25.3162C35.438 25.3162 34.3287 25.0922 33.3687 24.6442C32.43 24.1962 31.694 23.5562 31.1607 22.7242C30.6274 21.8708 30.3607 20.8575 30.3607 19.6842C30.3607 18.4042 30.6914 17.3588 31.3527 16.5482C32.014 15.7162 32.942 15.1082 34.1367 14.7242C35.3314 14.3188 36.7074 14.1162 38.2647 14.1162H42.0087V16.9642H38.2327C37.3367 16.9642 36.6434 17.1882 36.1527 17.6362C35.6834 18.0628 35.4487 18.6495 35.4487 19.3962C35.4487 20.1002 35.6834 20.6762 36.1527 21.1242C36.6434 21.5508 37.3367 21.7642 38.2327 21.7642C38.8087 21.7642 39.3207 21.6682 39.7687 21.4762C40.238 21.2628 40.622 20.9108 40.9207 20.4202C41.2194 19.9295 41.39 19.2468 41.4327 18.3722L42.6487 19.6522C42.542 20.8682 42.2434 21.8922 41.7527 22.7242C41.2834 23.5562 40.622 24.1962 39.7687 24.6442C38.9367 25.0922 37.9127 25.3162 36.6967 25.3162ZM58.5368 25.4442C57.2994 25.4442 56.1688 25.2202 55.1448 24.7722C54.1421 24.3242 53.2674 23.7055 52.5208 22.9162C51.7741 22.1055 51.1981 21.1562 50.7928 20.0682C50.4088 18.9802 50.2168 17.8068 50.2168 16.5482V15.8122C50.2168 14.5535 50.3981 13.3802 50.7608 12.2922C51.1448 11.2042 51.6888 10.2548 52.3928 9.44416C53.1181 8.61216 53.9821 7.97216 54.9848 7.52416C55.9874 7.05483 57.1074 6.82016 58.3448 6.82016C59.7528 6.82016 60.9688 7.1295 61.9928 7.74816C63.0168 8.3455 63.8168 9.2415 64.3928 10.4362C64.9688 11.6095 65.2888 13.0602 65.3528 14.7882L64.0088 13.5402V1.50816H69.1608V24.8682H65.0968V17.6042H65.8008C65.7368 19.2682 65.3848 20.6868 64.7448 21.8602C64.1261 23.0335 63.2834 23.9295 62.2168 24.5482C61.1501 25.1455 59.9234 25.4442 58.5368 25.4442ZM59.8168 21.1562C60.6061 21.1562 61.3208 20.9855 61.9608 20.6442C62.6221 20.2815 63.1448 19.7588 63.5288 19.0762C63.9341 18.3935 64.1368 17.5722 64.1368 16.6122V15.4282C64.1368 14.4895 63.9341 13.7002 63.5288 13.0602C63.1234 12.4202 62.5901 11.9295 61.9288 11.5882C61.2674 11.2468 60.5528 11.0762 59.7848 11.0762C58.9314 11.0762 58.1634 11.3002 57.4808 11.7482C56.8194 12.1748 56.2968 12.7722 55.9128 13.5402C55.5288 14.2868 55.3368 15.1615 55.3368 16.1642C55.3368 17.1882 55.5288 18.0735 55.9128 18.8202C56.2968 19.5668 56.8301 20.1428 57.5128 20.5482C58.1954 20.9535 58.9634 21.1562 59.8168 21.1562ZM82.4367 25.4762C80.9434 25.4762 79.6207 25.2202 78.4687 24.7082C77.3381 24.1962 76.3887 23.5135 75.6207 22.6602C74.8741 21.7855 74.2981 20.8148 73.8927 19.7482C73.5087 18.6602 73.3167 17.5508 73.3167 16.4202V15.7802C73.3167 14.6068 73.5087 13.4868 73.8927 12.4202C74.2981 11.3322 74.8741 10.3615 75.6207 9.50816C76.3674 8.65483 77.2954 7.98283 78.4047 7.49216C79.5354 6.98016 80.8154 6.72416 82.2447 6.72416C84.1221 6.72416 85.7007 7.15083 86.9807 8.00416C88.2821 8.83616 89.2741 9.93483 89.9567 11.3002C90.6394 12.6442 90.9807 14.1162 90.9807 15.7162V17.4442H75.4607V14.5322H87.8767L86.2127 15.8762C86.2127 14.8308 86.0634 13.9348 85.7647 13.1882C85.4661 12.4415 85.0181 11.8762 84.4207 11.4922C83.8447 11.0868 83.1194 10.8842 82.2447 10.8842C81.3487 10.8842 80.5914 11.0868 79.9727 11.4922C79.3541 11.8975 78.8847 12.4948 78.5647 13.2842C78.2447 14.0522 78.0847 15.0015 78.0847 16.1322C78.0847 17.1775 78.2341 18.0948 78.5327 18.8842C78.8314 19.6522 79.3007 20.2495 79.9407 20.6762C80.5807 21.1028 81.4127 21.3162 82.4367 21.3162C83.3754 21.3162 84.1434 21.1348 84.7407 20.7722C85.3381 20.4095 85.7434 19.9615 85.9567 19.4282H90.6607C90.4047 20.6015 89.9034 21.6468 89.1567 22.5642C88.4101 23.4815 87.4714 24.1962 86.3407 24.7082C85.2101 25.2202 83.9087 25.4762 82.4367 25.4762ZM108.724 24.8682L111.924 7.90816H117.524L121.236 24.8682H117.268L113.46 8.03616H115.732L112.308 24.8682H108.724ZM107.508 24.8682L107.476 20.6122H110.996L111.028 24.8682H107.508ZM105.204 24.8682L100.5 7.33216H105.524L109.908 24.8682H105.204ZM118.58 24.8682L118.612 20.6122H122.132V24.8682H118.58ZM120.02 24.8682L123.924 7.33216H128.628L124.404 24.8682H120.02ZM133.224 24.8682V7.33216H138.344V24.8682H133.224ZM130.888 11.1082V7.33216H138.344V11.1082H130.888ZM135.208 5.60416C134.248 5.60416 133.534 5.35883 133.064 4.86816C132.616 4.35616 132.392 3.71616 132.392 2.94816C132.392 2.15883 132.616 1.51883 133.064 1.02816C133.534 0.516162 134.248 0.260162 135.208 0.260162C136.168 0.260162 136.872 0.516162 137.32 1.02816C137.79 1.51883 138.024 2.15883 138.024 2.94816C138.024 3.71616 137.79 4.35616 137.32 4.86816C136.872 5.35883 136.168 5.60416 135.208 5.60416ZM151.648 25.0922C149.877 25.0922 148.448 24.8788 147.36 24.4522C146.272 24.0042 145.472 23.2682 144.96 22.2442C144.469 21.1988 144.224 19.7908 144.224 18.0202V2.59616H148.992V18.2122C148.992 19.0442 149.205 19.6842 149.632 20.1322C150.08 20.5588 150.709 20.7722 151.52 20.7722H154.112V25.0922H151.648ZM141.568 11.0762V7.33216H154.112V11.0762H141.568ZM158.155 24.8682V1.50816H163.275V14.9802H162.507C162.507 13.2095 162.731 11.7162 163.179 10.5002C163.627 9.28416 164.288 8.36683 165.163 7.74816C166.037 7.10816 167.136 6.78816 168.459 6.78816H168.683C170.624 6.78816 172.107 7.4815 173.131 8.86816C174.155 10.2335 174.667 12.2388 174.667 14.8842V24.8682H169.547V14.5642C169.547 13.6042 169.259 12.8362 168.683 12.2602C168.128 11.6628 167.392 11.3642 166.475 11.3642C165.515 11.3642 164.736 11.6735 164.139 12.2922C163.563 12.9108 163.275 13.7322 163.275 14.7562V24.8682H158.155Z" fill="black"/>
</svg>
