<svg width="45" height="12" viewBox="0 0 45 12" fill="none" xmlns="http://www.w3.org/2000/svg">
<path d="M0.628809 11.3213V0.371289H4.12381L8.72881 9.55129H9.22381L8.92381 9.82129V0.371289H10.9338V11.3213H7.42381L2.81881 2.14129H2.30881L2.60881 1.87129V11.3213H0.628809ZM18.4066 11.3213V8.90629H18.0616V6.22129C18.0616 5.75129 17.9466 5.40129 17.7166 5.17129C17.4866 4.94129 17.1316 4.82629 16.6516 4.82629C16.4016 4.82629 16.1016 4.83129 15.7516 4.84129C15.4016 4.85129 15.0466 4.86629 14.6866 4.88629C14.3366 4.89629 14.0216 4.91129 13.7416 4.93129V3.16129C13.9716 3.14129 14.2316 3.12129 14.5216 3.10129C14.8116 3.08129 15.1066 3.07129 15.4066 3.07129C15.7166 3.06129 16.0066 3.05629 16.2766 3.05629C17.1166 3.05629 17.8116 3.16629 18.3616 3.38629C18.9216 3.60629 19.3416 3.95129 19.6216 4.42129C19.9116 4.89129 20.0566 5.50629 20.0566 6.26629V11.3213H18.4066ZM15.7816 11.5313C15.1916 11.5313 14.6716 11.4263 14.2216 11.2163C13.7816 11.0063 13.4366 10.7063 13.1866 10.3163C12.9466 9.92629 12.8266 9.45629 12.8266 8.90629C12.8266 8.30629 12.9716 7.81629 13.2616 7.43629C13.5616 7.05629 13.9766 6.77129 14.5066 6.58129C15.0466 6.39129 15.6766 6.29629 16.3966 6.29629H18.2866V7.54129H16.3666C15.8866 7.54129 15.5166 7.66129 15.2566 7.90129C15.0066 8.13129 14.8816 8.43129 14.8816 8.80129C14.8816 9.17129 15.0066 9.47129 15.2566 9.70129C15.5166 9.93129 15.8866 10.0463 16.3666 10.0463C16.6566 10.0463 16.9216 9.99629 17.1616 9.89629C17.4116 9.78629 17.6166 9.60629 17.7766 9.35629C17.9466 9.09629 18.0416 8.74629 18.0616 8.30629L18.5716 8.89129C18.5216 9.46129 18.3816 9.94129 18.1516 10.3313C17.9316 10.7213 17.6216 11.0213 17.2216 11.2313C16.8316 11.4313 16.3516 11.5313 15.7816 11.5313ZM22.29 11.3213V3.17629H23.94V6.67129H23.79C23.79 5.85129 23.895 5.16629 24.105 4.61629C24.315 4.05629 24.625 3.63629 25.035 3.35629C25.455 3.06629 25.975 2.92129 26.595 2.92129H26.685C27.315 2.92129 27.835 3.06629 28.245 3.35629C28.665 3.63629 28.975 4.05629 29.175 4.61629C29.385 5.16629 29.49 5.85129 29.49 6.67129H28.965C28.965 5.85129 29.07 5.16629 29.28 4.61629C29.5 4.05629 29.815 3.63629 30.225 3.35629C30.645 3.06629 31.165 2.92129 31.785 2.92129H31.875C32.505 2.92129 33.03 3.06629 33.45 3.35629C33.87 3.63629 34.185 4.05629 34.395 4.61629C34.615 5.16629 34.725 5.85129 34.725 6.67129V11.3213H32.64V6.47629C32.64 5.96629 32.51 5.56129 32.25 5.26129C31.99 4.95129 31.62 4.79629 31.14 4.79629C30.66 4.79629 30.275 4.95629 29.985 5.27629C29.695 5.58629 29.55 6.00629 29.55 6.53629V11.3213H27.465V6.47629C27.465 5.96629 27.335 5.56129 27.075 5.26129C26.815 4.95129 26.445 4.79629 25.965 4.79629C25.485 4.79629 25.1 4.95629 24.81 5.27629C24.52 5.58629 24.375 6.00629 24.375 6.53629V11.3213H22.29ZM40.5981 11.6063C39.8981 11.6063 39.2831 11.4863 38.7531 11.2463C38.2331 11.0063 37.7981 10.6863 37.4481 10.2863C37.1081 9.87629 36.8481 9.42129 36.6681 8.92129C36.4981 8.42129 36.4131 7.91129 36.4131 7.39129V7.10629C36.4131 6.56629 36.4981 6.04629 36.6681 5.54629C36.8481 5.03629 37.1081 4.58629 37.4481 4.19629C37.7981 3.79629 38.2281 3.48129 38.7381 3.25129C39.2481 3.01129 39.8381 2.89129 40.5081 2.89129C41.3881 2.89129 42.1231 3.08629 42.7131 3.47629C43.3131 3.85629 43.7631 4.36129 44.0631 4.99129C44.3631 5.61129 44.5131 6.28129 44.5131 7.00129V7.75129H37.2981V6.47629H43.2081L42.5631 7.10629C42.5631 6.58629 42.4881 6.14129 42.3381 5.77129C42.1881 5.40129 41.9581 5.11629 41.6481 4.91629C41.3481 4.71629 40.9681 4.61629 40.5081 4.61629C40.0481 4.61629 39.6581 4.72129 39.3381 4.93129C39.0181 5.14129 38.7731 5.44629 38.6031 5.84629C38.4431 6.23629 38.3631 6.70629 38.3631 7.25629C38.3631 7.76629 38.4431 8.22129 38.6031 8.62129C38.7631 9.01129 39.0081 9.32129 39.3381 9.55129C39.6681 9.77129 40.0881 9.88129 40.5981 9.88129C41.1081 9.88129 41.5231 9.78129 41.8431 9.58129C42.1631 9.37129 42.3681 9.11629 42.4581 8.81629H44.3781C44.2581 9.37629 44.0281 9.86629 43.6881 10.2863C43.3481 10.7063 42.9131 11.0313 42.3831 11.2613C41.8631 11.4913 41.2681 11.6063 40.5981 11.6063Z" fill="black"/>
</svg>
