<svg width="75" height="13" viewBox="0 0 75 13" fill="none" xmlns="http://www.w3.org/2000/svg">
<path d="M2.45881 8.43102V6.58602H4.58881C5.01881 6.58602 5.37881 6.50102 5.66881 6.33102C5.96881 6.16102 6.19381 5.92602 6.34381 5.62602C6.50381 5.32602 6.58381 4.98102 6.58381 4.59102C6.58381 4.20101 6.50381 3.85601 6.34381 3.55602C6.19381 3.25601 5.96881 3.02601 5.66881 2.86602C5.37881 2.69602 5.01881 2.61101 4.58881 2.61101H2.45881V0.766015H4.40881C5.32881 0.766015 6.10881 0.916015 6.74881 1.21601C7.39881 1.51602 7.89381 1.94602 8.23381 2.50602C8.57381 3.05602 8.74381 3.71102 8.74381 4.47102V4.71102C8.74381 5.47102 8.57381 6.13102 8.23381 6.69102C7.89381 7.24102 7.39881 7.67102 6.74881 7.98102C6.10881 8.28102 5.32881 8.43102 4.40881 8.43102H2.45881ZM0.628809 11.791V0.766015H2.75881V11.791H0.628809ZM10.3369 11.791V0.841015H12.4219V7.23102H12.0619C12.0619 6.41102 12.1669 5.71602 12.3769 5.14602C12.5869 4.57602 12.8969 4.14102 13.3069 3.84102C13.7269 3.54102 14.2569 3.39102 14.8969 3.39102H14.9869C15.9169 3.39102 16.6219 3.71102 17.1019 4.35102C17.5819 4.99102 17.8219 5.92102 17.8219 7.14102V11.791H15.7369V6.94602C15.7369 6.42602 15.5869 6.01602 15.2869 5.71602C14.9969 5.41602 14.6119 5.26602 14.1319 5.26602C13.6219 5.26602 13.2069 5.43602 12.8869 5.77602C12.5769 6.10602 12.4219 6.54102 12.4219 7.08102V11.791H10.3369ZM23.9784 12.076C23.2584 12.076 22.6234 11.961 22.0734 11.731C21.5234 11.501 21.0584 11.191 20.6784 10.801C20.2984 10.401 20.0084 9.95102 19.8084 9.45102C19.6184 8.95102 19.5234 8.43102 19.5234 7.89102V7.57602C19.5234 7.01602 19.6234 6.48602 19.8234 5.98602C20.0334 5.47602 20.3284 5.02602 20.7084 4.63602C21.0984 4.23602 21.5684 3.92602 22.1184 3.70602C22.6684 3.47602 23.2884 3.36102 23.9784 3.36102C24.6684 3.36102 25.2884 3.47602 25.8384 3.70602C26.3884 3.92602 26.8534 4.23602 27.2334 4.63602C27.6234 5.02602 27.9184 5.47602 28.1184 5.98602C28.3184 6.48602 28.4184 7.01602 28.4184 7.57602V7.89102C28.4184 8.43102 28.3184 8.95102 28.1184 9.45102C27.9284 9.95102 27.6434 10.401 27.2634 10.801C26.8834 11.191 26.4184 11.501 25.8684 11.731C25.3184 11.961 24.6884 12.076 23.9784 12.076ZM23.9784 10.291C24.4884 10.291 24.9184 10.181 25.2684 9.96102C25.6184 9.73102 25.8834 9.42602 26.0634 9.04602C26.2434 8.65602 26.3334 8.21602 26.3334 7.72602C26.3334 7.22602 26.2384 6.78602 26.0484 6.40602C25.8684 6.01602 25.5984 5.71102 25.2384 5.49102C24.8884 5.26102 24.4684 5.14602 23.9784 5.14602C23.4884 5.14602 23.0634 5.26102 22.7034 5.49102C22.3534 5.71102 22.0834 6.01602 21.8934 6.40602C21.7034 6.78602 21.6084 7.22602 21.6084 7.72602C21.6084 8.21602 21.6984 8.65602 21.8784 9.04602C22.0684 9.42602 22.3384 9.73102 22.6884 9.96102C23.0384 10.181 23.4684 10.291 23.9784 10.291ZM30.2441 11.791V3.64601H31.8941V7.14102H31.7441C31.7441 6.31102 31.8541 5.62102 32.0741 5.07102C32.2941 4.51102 32.6191 4.09102 33.0491 3.81102C33.4891 3.53102 34.0341 3.39102 34.6841 3.39102H34.7741C35.7441 3.39102 36.4791 3.70602 36.9791 4.33602C37.4791 4.95602 37.7291 5.88602 37.7291 7.12602V11.791H35.6441V6.94602C35.6441 6.44602 35.4991 6.04102 35.2091 5.73102C34.9291 5.42102 34.5391 5.26602 34.0391 5.26602C33.5291 5.26602 33.1141 5.42602 32.7941 5.74602C32.4841 6.05602 32.3291 6.47602 32.3291 7.00602V11.791H30.2441ZM43.6156 12.076C42.9156 12.076 42.3006 11.956 41.7706 11.716C41.2506 11.476 40.8156 11.156 40.4656 10.756C40.1256 10.346 39.8656 9.89102 39.6856 9.39102C39.5156 8.89102 39.4306 8.38102 39.4306 7.86102V7.57602C39.4306 7.03602 39.5156 6.51602 39.6856 6.01602C39.8656 5.50602 40.1256 5.05602 40.4656 4.66602C40.8156 4.26602 41.2456 3.95101 41.7556 3.72101C42.2656 3.48102 42.8556 3.36102 43.5256 3.36102C44.4056 3.36102 45.1406 3.55602 45.7306 3.94602C46.3306 4.32602 46.7806 4.83102 47.0806 5.46102C47.3806 6.08102 47.5306 6.75102 47.5306 7.47102V8.22102H40.3156V6.94602H46.2256L45.5806 7.57602C45.5806 7.05602 45.5056 6.61102 45.3556 6.24102C45.2056 5.87102 44.9756 5.58602 44.6656 5.38602C44.3656 5.18602 43.9856 5.08602 43.5256 5.08602C43.0656 5.08602 42.6756 5.19102 42.3556 5.40102C42.0356 5.61102 41.7906 5.91602 41.6206 6.31602C41.4606 6.70602 41.3806 7.17602 41.3806 7.72602C41.3806 8.23602 41.4606 8.69102 41.6206 9.09102C41.7806 9.48102 42.0256 9.79102 42.3556 10.021C42.6856 10.241 43.1056 10.351 43.6156 10.351C44.1256 10.351 44.5406 10.251 44.8606 10.051C45.1806 9.84102 45.3856 9.58602 45.4756 9.28602H47.3956C47.2756 9.84602 47.0456 10.336 46.7056 10.756C46.3656 11.176 45.9306 11.501 45.4006 11.731C44.8806 11.961 44.2856 12.076 43.6156 12.076ZM52.5097 11.791V3.64601H54.1597V7.14102H54.0097C54.0097 6.31102 54.1197 5.62102 54.3397 5.07102C54.5597 4.51102 54.8847 4.09102 55.3147 3.81102C55.7547 3.53102 56.2997 3.39102 56.9497 3.39102H57.0397C58.0097 3.39102 58.7447 3.70602 59.2447 4.33602C59.7447 4.95602 59.9947 5.88602 59.9947 7.12602V11.791H57.9097V6.94602C57.9097 6.44602 57.7647 6.04102 57.4747 5.73102C57.1947 5.42102 56.8047 5.26602 56.3047 5.26602C55.7947 5.26602 55.3797 5.42602 55.0597 5.74602C54.7497 6.05602 54.5947 6.47602 54.5947 7.00602V11.791H52.5097ZM66.1513 12.076C65.4313 12.076 64.7963 11.961 64.2463 11.731C63.6963 11.501 63.2313 11.191 62.8513 10.801C62.4713 10.401 62.1813 9.95102 61.9813 9.45102C61.7913 8.95102 61.6963 8.43102 61.6963 7.89102V7.57602C61.6963 7.01602 61.7963 6.48602 61.9963 5.98602C62.2063 5.47602 62.5013 5.02602 62.8813 4.63602C63.2713 4.23602 63.7413 3.92602 64.2913 3.70602C64.8413 3.47602 65.4613 3.36102 66.1513 3.36102C66.8413 3.36102 67.4613 3.47602 68.0113 3.70602C68.5613 3.92602 69.0263 4.23602 69.4063 4.63602C69.7963 5.02602 70.0913 5.47602 70.2913 5.98602C70.4913 6.48602 70.5913 7.01602 70.5913 7.57602V7.89102C70.5913 8.43102 70.4913 8.95102 70.2913 9.45102C70.1013 9.95102 69.8163 10.401 69.4363 10.801C69.0563 11.191 68.5913 11.501 68.0413 11.731C67.4913 11.961 66.8613 12.076 66.1513 12.076ZM66.1513 10.291C66.6613 10.291 67.0913 10.181 67.4413 9.96102C67.7913 9.73102 68.0563 9.42602 68.2363 9.04602C68.4163 8.65602 68.5063 8.21602 68.5063 7.72602C68.5063 7.22602 68.4113 6.78602 68.2213 6.40602C68.0413 6.01602 67.7713 5.71102 67.4113 5.49102C67.0613 5.26102 66.6413 5.14602 66.1513 5.14602C65.6613 5.14602 65.2363 5.26102 64.8763 5.49102C64.5263 5.71102 64.2563 6.01602 64.0663 6.40602C63.8763 6.78602 63.7813 7.22602 63.7813 7.72602C63.7813 8.21602 63.8713 8.65602 64.0513 9.04602C64.2413 9.42602 64.5113 9.73102 64.8613 9.96102C65.2113 10.181 65.6413 10.291 66.1513 10.291ZM71.9112 11.791V9.39102H74.2512V11.791H71.9112Z" fill="black"/>
</svg>
