<svg width="533" height="27" viewBox="0 0 533 27" fill="none" xmlns="http://www.w3.org/2000/svg">
<path d="M4.24 16.3882V13.9282H7.08C7.65333 13.9282 8.13333 13.8148 8.52 13.5882C8.92 13.3615 9.22 13.0482 9.42 12.6482C9.63333 12.2482 9.74 11.7882 9.74 11.2682C9.74 10.7482 9.63333 10.2882 9.42 9.88816C9.22 9.48816 8.92 9.1815 8.52 8.96816C8.13333 8.7415 7.65333 8.62816 7.08 8.62816H4.24V6.16816H6.84C8.06667 6.16816 9.10667 6.36816 9.96 6.76816C10.8267 7.16816 11.4867 7.7415 11.94 8.48816C12.3933 9.2215 12.62 10.0948 12.62 11.1082V11.4282C12.62 12.4415 12.3933 13.3215 11.94 14.0682C11.4867 14.8015 10.8267 15.3748 9.96 15.7882C9.10667 16.1882 8.06667 16.3882 6.84 16.3882H4.24ZM1.8 20.8682V6.16816H4.64V20.8682H1.8ZM15.4222 20.8682V10.0082H17.6222V14.6082H17.5622C17.5622 13.0482 17.8955 11.8682 18.5622 11.0682C19.2289 10.2682 20.2089 9.86816 21.5022 9.86816H21.9022V12.2882H21.1422C20.2089 12.2882 19.4822 12.5415 18.9622 13.0482C18.4555 13.5415 18.2022 14.2615 18.2022 15.2082V20.8682H15.4222ZM24.882 20.8682V10.0082H27.662V20.8682H24.882ZM23.362 12.0882V10.0082H27.662V12.0882H23.362ZM25.902 8.70816C25.3554 8.70816 24.9487 8.56816 24.682 8.28816C24.4287 7.99483 24.302 7.63483 24.302 7.20816C24.302 6.75483 24.4287 6.38816 24.682 6.10816C24.9487 5.82816 25.3554 5.68816 25.902 5.68816C26.4487 5.68816 26.8487 5.82816 27.102 6.10816C27.3554 6.38816 27.482 6.75483 27.482 7.20816C27.482 7.63483 27.3554 7.99483 27.102 8.28816C26.8487 8.56816 26.4487 8.70816 25.902 8.70816ZM33.6459 20.8682L30.2459 10.0082H33.1059L36.3659 20.8682H33.6459ZM34.4659 20.8682V18.5882H37.4059V20.8682H34.4659ZM35.5659 20.8682L38.3659 10.0082H41.0459L38.1059 20.8682H35.5659ZM50.1889 20.8682V17.6482H49.7289V14.0682C49.7289 13.4415 49.5756 12.9748 49.2689 12.6682C48.9622 12.3615 48.4889 12.2082 47.8489 12.2082C47.5156 12.2082 47.1156 12.2148 46.6489 12.2282C46.1822 12.2415 45.7089 12.2615 45.2289 12.2882C44.7622 12.3015 44.3422 12.3215 43.9689 12.3482V9.98816C44.2756 9.9615 44.6222 9.93483 45.0089 9.90816C45.3956 9.8815 45.7889 9.86816 46.1889 9.86816C46.6022 9.85483 46.9889 9.84816 47.3489 9.84816C48.4689 9.84816 49.3956 9.99483 50.1289 10.2882C50.8756 10.5815 51.4356 11.0415 51.8089 11.6682C52.1956 12.2948 52.3889 13.1148 52.3889 14.1282V20.8682H50.1889ZM46.6889 21.1482C45.9022 21.1482 45.2089 21.0082 44.6089 20.7282C44.0222 20.4482 43.5622 20.0482 43.2289 19.5282C42.9089 19.0082 42.7489 18.3815 42.7489 17.6482C42.7489 16.8482 42.9422 16.1948 43.3289 15.6882C43.7289 15.1815 44.2822 14.8015 44.9889 14.5482C45.7089 14.2948 46.5489 14.1682 47.5089 14.1682H50.0289V15.8282H47.4689C46.8289 15.8282 46.3356 15.9882 45.9889 16.3082C45.6556 16.6148 45.4889 17.0148 45.4889 17.5082C45.4889 18.0015 45.6556 18.4015 45.9889 18.7082C46.3356 19.0148 46.8289 19.1682 47.4689 19.1682C47.8556 19.1682 48.2089 19.1015 48.5289 18.9682C48.8622 18.8215 49.1356 18.5815 49.3489 18.2482C49.5756 17.9015 49.7022 17.4348 49.7289 16.8482L50.4089 17.6282C50.3422 18.3882 50.1556 19.0282 49.8489 19.5482C49.5556 20.0682 49.1422 20.4682 48.6089 20.7482C48.0889 21.0148 47.4489 21.1482 46.6889 21.1482ZM60.7867 21.2482C59.8401 21.2482 59.0201 21.0882 58.3267 20.7682C57.6467 20.4482 57.0734 20.0215 56.6067 19.4882C56.1534 18.9548 55.8134 18.3548 55.5867 17.6882C55.3601 17.0215 55.2467 16.3415 55.2467 15.6482V15.2682C55.2467 14.5348 55.3601 13.8348 55.5867 13.1682C55.8267 12.4882 56.1801 11.8882 56.6467 11.3682C57.1134 10.8348 57.6867 10.4148 58.3667 10.1082C59.0601 9.78816 59.8601 9.62816 60.7667 9.62816C61.7134 9.62816 62.5601 9.81483 63.3067 10.1882C64.0534 10.5482 64.6467 11.0548 65.0867 11.7082C65.5401 12.3615 65.7934 13.1215 65.8467 13.9882H63.1467C63.0801 13.4282 62.8401 12.9615 62.4267 12.5882C62.0267 12.2148 61.4734 12.0282 60.7667 12.0282C60.1534 12.0282 59.6401 12.1748 59.2267 12.4682C58.8267 12.7615 58.5267 13.1682 58.3267 13.6882C58.1267 14.1948 58.0267 14.7815 58.0267 15.4482C58.0267 16.0882 58.1201 16.6682 58.3067 17.1882C58.5067 17.7082 58.8067 18.1148 59.2067 18.4082C59.6201 18.7015 60.1467 18.8482 60.7867 18.8482C61.2667 18.8482 61.6801 18.7615 62.0267 18.5882C62.3734 18.4148 62.6467 18.1748 62.8467 17.8682C63.0601 17.5615 63.1934 17.2148 63.2467 16.8282H65.9467C65.8934 17.7082 65.6334 18.4815 65.1667 19.1482C64.7134 19.8015 64.1067 20.3148 63.3467 20.6882C62.6001 21.0615 61.7467 21.2482 60.7867 21.2482ZM68.4537 25.1482V22.7682H70.4937C70.8804 22.7682 71.2004 22.7148 71.4537 22.6082C71.7204 22.5148 71.9404 22.3548 72.1137 22.1282C72.2871 21.9148 72.4204 21.6148 72.5137 21.2282L75.4337 10.0082H78.0937L74.8737 21.8282C74.6604 22.6415 74.3604 23.2882 73.9737 23.7682C73.5871 24.2615 73.0871 24.6148 72.4737 24.8282C71.8737 25.0415 71.1271 25.1482 70.2337 25.1482H68.4537ZM71.8337 20.6282V18.4282H74.1537V20.6282H71.8337ZM70.8937 20.6282L67.3737 10.0082H70.1737L73.5137 20.6282H70.8937ZM88.1806 16.3882V13.9282H91.0206C91.594 13.9282 92.074 13.8148 92.4606 13.5882C92.8606 13.3615 93.1606 13.0482 93.3606 12.6482C93.574 12.2482 93.6806 11.7882 93.6806 11.2682C93.6806 10.7482 93.574 10.2882 93.3606 9.88816C93.1606 9.48816 92.8606 9.1815 92.4606 8.96816C92.074 8.7415 91.594 8.62816 91.0206 8.62816H88.1806V6.16816H90.7806C92.0073 6.16816 93.0473 6.36816 93.9006 6.76816C94.7673 7.16816 95.4273 7.7415 95.8806 8.48816C96.334 9.2215 96.5606 10.0948 96.5606 11.1082V11.4282C96.5606 12.4415 96.334 13.3215 95.8806 14.0682C95.4273 14.8015 94.7673 15.3748 93.9006 15.7882C93.0473 16.1882 92.0073 16.3882 90.7806 16.3882H88.1806ZM85.7406 20.8682V6.16816H88.5806V20.8682H85.7406ZM104.348 21.2482C103.388 21.2482 102.542 21.0948 101.808 20.7882C101.075 20.4815 100.455 20.0682 99.9484 19.5482C99.4418 19.0148 99.0551 18.4148 98.7884 17.7482C98.5351 17.0815 98.4084 16.3882 98.4084 15.6682V15.2482C98.4084 14.5015 98.5418 13.7948 98.8084 13.1282C99.0884 12.4482 99.4818 11.8482 99.9884 11.3282C100.508 10.7948 101.135 10.3815 101.868 10.0882C102.602 9.7815 103.428 9.62816 104.348 9.62816C105.268 9.62816 106.095 9.7815 106.828 10.0882C107.562 10.3815 108.182 10.7948 108.688 11.3282C109.208 11.8482 109.602 12.4482 109.868 13.1282C110.135 13.7948 110.268 14.5015 110.268 15.2482V15.6682C110.268 16.3882 110.135 17.0815 109.868 17.7482C109.615 18.4148 109.235 19.0148 108.728 19.5482C108.222 20.0682 107.602 20.4815 106.868 20.7882C106.135 21.0948 105.295 21.2482 104.348 21.2482ZM104.348 18.8682C105.028 18.8682 105.602 18.7215 106.068 18.4282C106.535 18.1215 106.888 17.7148 107.128 17.2082C107.368 16.6882 107.488 16.1015 107.488 15.4482C107.488 14.7815 107.362 14.1948 107.108 13.6882C106.868 13.1682 106.508 12.7615 106.028 12.4682C105.562 12.1615 105.002 12.0082 104.348 12.0082C103.695 12.0082 103.128 12.1615 102.648 12.4682C102.182 12.7615 101.822 13.1682 101.568 13.6882C101.315 14.1948 101.188 14.7815 101.188 15.4482C101.188 16.1015 101.308 16.6882 101.548 17.2082C101.802 17.7148 102.162 18.1215 102.628 18.4282C103.095 18.7215 103.668 18.8682 104.348 18.8682ZM113.443 20.8682V6.26816H116.223V20.8682H113.443ZM112.083 8.34816V6.26816H116.223V8.34816H112.083ZM120.516 20.8682V10.0082H123.296V20.8682H120.516ZM118.996 12.0882V10.0082H123.296V12.0882H118.996ZM121.536 8.70816C120.99 8.70816 120.583 8.56816 120.316 8.28816C120.063 7.99483 119.936 7.63483 119.936 7.20816C119.936 6.75483 120.063 6.38816 120.316 6.10816C120.583 5.82816 120.99 5.68816 121.536 5.68816C122.083 5.68816 122.483 5.82816 122.736 6.10816C122.99 6.38816 123.116 6.75483 123.116 7.20816C123.116 7.63483 122.99 7.99483 122.736 8.28816C122.483 8.56816 122.083 8.70816 121.536 8.70816ZM131.92 21.2482C130.974 21.2482 130.154 21.0882 129.46 20.7682C128.78 20.4482 128.207 20.0215 127.74 19.4882C127.287 18.9548 126.947 18.3548 126.72 17.6882C126.494 17.0215 126.38 16.3415 126.38 15.6482V15.2682C126.38 14.5348 126.494 13.8348 126.72 13.1682C126.96 12.4882 127.314 11.8882 127.78 11.3682C128.247 10.8348 128.82 10.4148 129.5 10.1082C130.194 9.78816 130.994 9.62816 131.9 9.62816C132.847 9.62816 133.694 9.81483 134.44 10.1882C135.187 10.5482 135.78 11.0548 136.22 11.7082C136.674 12.3615 136.927 13.1215 136.98 13.9882H134.28C134.214 13.4282 133.974 12.9615 133.56 12.5882C133.16 12.2148 132.607 12.0282 131.9 12.0282C131.287 12.0282 130.774 12.1748 130.36 12.4682C129.96 12.7615 129.66 13.1682 129.46 13.6882C129.26 14.1948 129.16 14.7815 129.16 15.4482C129.16 16.0882 129.254 16.6682 129.44 17.1882C129.64 17.7082 129.94 18.1148 130.34 18.4082C130.754 18.7015 131.28 18.8482 131.92 18.8482C132.4 18.8482 132.814 18.7615 133.16 18.5882C133.507 18.4148 133.78 18.1748 133.98 17.8682C134.194 17.5615 134.327 17.2148 134.38 16.8282H137.08C137.027 17.7082 136.767 18.4815 136.3 19.1482C135.847 19.8015 135.24 20.3148 134.48 20.6882C133.734 21.0615 132.88 21.2482 131.92 21.2482ZM139.587 25.1482V22.7682H141.627C142.014 22.7682 142.334 22.7148 142.587 22.6082C142.854 22.5148 143.074 22.3548 143.247 22.1282C143.421 21.9148 143.554 21.6148 143.647 21.2282L146.567 10.0082H149.227L146.007 21.8282C145.794 22.6415 145.494 23.2882 145.107 23.7682C144.721 24.2615 144.221 24.6148 143.607 24.8282C143.007 25.0415 142.261 25.1482 141.367 25.1482H139.587ZM142.967 20.6282V18.4282H145.287V20.6282H142.967ZM142.027 20.6282L138.507 10.0082H141.307L144.647 20.6282H142.027Z" fill="black"/>
<path d="M182.24 20.9482V18.3082H185.26C186.02 18.3082 186.693 18.1948 187.28 17.9682C187.88 17.7282 188.387 17.3948 188.8 16.9682C189.213 16.5415 189.527 16.0415 189.74 15.4682C189.967 14.8815 190.08 14.2348 190.08 13.5282C190.08 12.7948 189.967 12.1415 189.74 11.5682C189.527 10.9815 189.213 10.4815 188.8 10.0682C188.387 9.65483 187.88 9.3415 187.28 9.12816C186.693 8.91483 186.02 8.80816 185.26 8.80816H182.24V6.16816H185.08C186.4 6.16816 187.553 6.3615 188.54 6.74816C189.527 7.13483 190.347 7.66816 191 8.34816C191.653 9.01483 192.14 9.7815 192.46 10.6482C192.793 11.5015 192.96 12.3882 192.96 13.3082V13.7482C192.96 14.6282 192.793 15.4948 192.46 16.3482C192.14 17.2015 191.653 17.9748 191 18.6682C190.347 19.3615 189.527 19.9148 188.54 20.3282C187.553 20.7415 186.4 20.9482 185.08 20.9482H182.24ZM179.8 20.9482V6.16816H182.64V20.9482H179.8ZM196.403 20.8682V10.0082H199.183V20.8682H196.403ZM194.883 12.0882V10.0082H199.183V12.0882H194.883ZM197.423 8.70816C196.876 8.70816 196.47 8.56816 196.203 8.28816C195.95 7.99483 195.823 7.63483 195.823 7.20816C195.823 6.75483 195.95 6.38816 196.203 6.10816C196.47 5.82816 196.876 5.68816 197.423 5.68816C197.97 5.68816 198.37 5.82816 198.623 6.10816C198.876 6.38816 199.003 6.75483 199.003 7.20816C199.003 7.63483 198.876 7.99483 198.623 8.28816C198.37 8.56816 197.97 8.70816 197.423 8.70816ZM206.927 21.2082C205.434 21.2082 204.26 20.8948 203.407 20.2682C202.567 19.6282 202.127 18.7482 202.087 17.6282H204.587C204.627 18.0015 204.834 18.3415 205.207 18.6482C205.58 18.9548 206.167 19.1082 206.967 19.1082C207.634 19.1082 208.16 18.9882 208.547 18.7482C208.947 18.5082 209.147 18.1815 209.147 17.7682C209.147 17.4082 208.994 17.1215 208.687 16.9082C208.394 16.6948 207.887 16.5548 207.167 16.4882L206.207 16.3882C204.994 16.2548 204.06 15.9082 203.407 15.3482C202.754 14.7882 202.427 14.0415 202.427 13.1082C202.427 12.3615 202.614 11.7348 202.987 11.2282C203.36 10.7215 203.874 10.3415 204.527 10.0882C205.194 9.8215 205.954 9.68816 206.807 9.68816C208.14 9.68816 209.22 9.9815 210.047 10.5682C210.874 11.1548 211.307 12.0148 211.347 13.1482H208.847C208.82 12.7748 208.634 12.4548 208.287 12.1882C207.94 11.9215 207.44 11.7882 206.787 11.7882C206.2 11.7882 205.747 11.9015 205.427 12.1282C205.107 12.3548 204.947 12.6482 204.947 13.0082C204.947 13.3548 205.074 13.6215 205.327 13.8082C205.594 13.9948 206.02 14.1215 206.607 14.1882L207.567 14.2882C208.847 14.4215 209.847 14.7748 210.567 15.3482C211.3 15.9215 211.667 16.6948 211.667 17.6682C211.667 18.3882 211.467 19.0148 211.067 19.5482C210.68 20.0682 210.134 20.4748 209.427 20.7682C208.72 21.0615 207.887 21.2082 206.927 21.2082ZM219.384 21.2482C218.437 21.2482 217.617 21.0882 216.924 20.7682C216.244 20.4482 215.67 20.0215 215.204 19.4882C214.75 18.9548 214.41 18.3548 214.184 17.6882C213.957 17.0215 213.844 16.3415 213.844 15.6482V15.2682C213.844 14.5348 213.957 13.8348 214.184 13.1682C214.424 12.4882 214.777 11.8882 215.244 11.3682C215.71 10.8348 216.284 10.4148 216.964 10.1082C217.657 9.78816 218.457 9.62816 219.364 9.62816C220.31 9.62816 221.157 9.81483 221.904 10.1882C222.65 10.5482 223.244 11.0548 223.684 11.7082C224.137 12.3615 224.39 13.1215 224.444 13.9882H221.744C221.677 13.4282 221.437 12.9615 221.024 12.5882C220.624 12.2148 220.07 12.0282 219.364 12.0282C218.75 12.0282 218.237 12.1748 217.824 12.4682C217.424 12.7615 217.124 13.1682 216.924 13.6882C216.724 14.1948 216.624 14.7815 216.624 15.4482C216.624 16.0882 216.717 16.6682 216.904 17.1882C217.104 17.7082 217.404 18.1148 217.804 18.4082C218.217 18.7015 218.744 18.8482 219.384 18.8482C219.864 18.8482 220.277 18.7615 220.624 18.5882C220.97 18.4148 221.244 18.1748 221.444 17.8682C221.657 17.5615 221.79 17.2148 221.844 16.8282H224.544C224.49 17.7082 224.23 18.4815 223.764 19.1482C223.31 19.8015 222.704 20.3148 221.944 20.6882C221.197 21.0615 220.344 21.2482 219.384 21.2482ZM227.511 20.8682V6.26816H230.291V20.8682H227.511ZM226.151 8.34816V6.26816H230.291V8.34816H226.151ZM240.644 20.8682V17.6482H240.184V14.0682C240.184 13.4415 240.031 12.9748 239.724 12.6682C239.418 12.3615 238.944 12.2082 238.304 12.2082C237.971 12.2082 237.571 12.2148 237.104 12.2282C236.638 12.2415 236.164 12.2615 235.684 12.2882C235.218 12.3015 234.798 12.3215 234.424 12.3482V9.98816C234.731 9.9615 235.078 9.93483 235.464 9.90816C235.851 9.8815 236.244 9.86816 236.644 9.86816C237.058 9.85483 237.444 9.84816 237.804 9.84816C238.924 9.84816 239.851 9.99483 240.584 10.2882C241.331 10.5815 241.891 11.0415 242.264 11.6682C242.651 12.2948 242.844 13.1148 242.844 14.1282V20.8682H240.644ZM237.144 21.1482C236.358 21.1482 235.664 21.0082 235.064 20.7282C234.478 20.4482 234.018 20.0482 233.684 19.5282C233.364 19.0082 233.204 18.3815 233.204 17.6482C233.204 16.8482 233.398 16.1948 233.784 15.6882C234.184 15.1815 234.738 14.8015 235.444 14.5482C236.164 14.2948 237.004 14.1682 237.964 14.1682H240.484V15.8282H237.924C237.284 15.8282 236.791 15.9882 236.444 16.3082C236.111 16.6148 235.944 17.0148 235.944 17.5082C235.944 18.0015 236.111 18.4015 236.444 18.7082C236.791 19.0148 237.284 19.1682 237.924 19.1682C238.311 19.1682 238.664 19.1015 238.984 18.9682C239.318 18.8215 239.591 18.5815 239.804 18.2482C240.031 17.9015 240.158 17.4348 240.184 16.8482L240.864 17.6282C240.798 18.3882 240.611 19.0282 240.304 19.5482C240.011 20.0682 239.598 20.4682 239.064 20.7482C238.544 21.0148 237.904 21.1482 237.144 21.1482ZM246.942 20.8682V10.0082H249.722V20.8682H246.942ZM245.422 12.0882V10.0082H249.722V12.0882H245.422ZM247.962 8.70816C247.416 8.70816 247.009 8.56816 246.742 8.28816C246.489 7.99483 246.362 7.63483 246.362 7.20816C246.362 6.75483 246.489 6.38816 246.742 6.10816C247.009 5.82816 247.416 5.68816 247.962 5.68816C248.509 5.68816 248.909 5.82816 249.162 6.10816C249.416 6.38816 249.542 6.75483 249.542 7.20816C249.542 7.63483 249.416 7.99483 249.162 8.28816C248.909 8.56816 248.509 8.70816 247.962 8.70816ZM253.526 20.8682V10.0082H255.726V14.6682H255.526C255.526 13.5748 255.666 12.6615 255.946 11.9282C256.226 11.1815 256.639 10.6215 257.186 10.2482C257.746 9.8615 258.439 9.66816 259.266 9.66816H259.386C260.226 9.66816 260.919 9.8615 261.466 10.2482C262.026 10.6215 262.439 11.1815 262.706 11.9282C262.986 12.6615 263.126 13.5748 263.126 14.6682H262.426C262.426 13.5748 262.566 12.6615 262.846 11.9282C263.139 11.1815 263.559 10.6215 264.106 10.2482C264.666 9.8615 265.359 9.66816 266.186 9.66816H266.306C267.146 9.66816 267.846 9.8615 268.406 10.2482C268.966 10.6215 269.386 11.1815 269.666 11.9282C269.959 12.6615 270.106 13.5748 270.106 14.6682V20.8682H267.326V14.4082C267.326 13.7282 267.153 13.1882 266.806 12.7882C266.459 12.3748 265.966 12.1682 265.326 12.1682C264.686 12.1682 264.173 12.3815 263.786 12.8082C263.399 13.2215 263.206 13.7815 263.206 14.4882V20.8682H260.426V14.4082C260.426 13.7282 260.253 13.1882 259.906 12.7882C259.559 12.3748 259.066 12.1682 258.426 12.1682C257.786 12.1682 257.273 12.3815 256.886 12.8082C256.499 13.2215 256.306 13.7815 256.306 14.4882V20.8682H253.526ZM278.537 21.2482C277.604 21.2482 276.784 21.0882 276.077 20.7682C275.384 20.4482 274.804 20.0215 274.337 19.4882C273.884 18.9415 273.537 18.3348 273.297 17.6682C273.07 17.0015 272.957 16.3215 272.957 15.6282V15.2482C272.957 14.5282 273.07 13.8348 273.297 13.1682C273.537 12.4882 273.884 11.8882 274.337 11.3682C274.804 10.8348 275.377 10.4148 276.057 10.1082C276.737 9.78816 277.524 9.62816 278.417 9.62816C279.59 9.62816 280.57 9.88816 281.357 10.4082C282.157 10.9148 282.757 11.5882 283.157 12.4282C283.557 13.2548 283.757 14.1482 283.757 15.1082V16.1082H274.137V14.4082H282.017L281.157 15.2482C281.157 14.5548 281.057 13.9615 280.857 13.4682C280.657 12.9748 280.35 12.5948 279.937 12.3282C279.537 12.0615 279.03 11.9282 278.417 11.9282C277.804 11.9282 277.284 12.0682 276.857 12.3482C276.43 12.6282 276.104 13.0348 275.877 13.5682C275.664 14.0882 275.557 14.7148 275.557 15.4482C275.557 16.1282 275.664 16.7348 275.877 17.2682C276.09 17.7882 276.417 18.2015 276.857 18.5082C277.297 18.8015 277.857 18.9482 278.537 18.9482C279.217 18.9482 279.77 18.8148 280.197 18.5482C280.624 18.2682 280.897 17.9282 281.017 17.5282H283.577C283.417 18.2748 283.11 18.9282 282.657 19.4882C282.204 20.0482 281.624 20.4815 280.917 20.7882C280.224 21.0948 279.43 21.2482 278.537 21.2482ZM286.679 20.8682V10.0082H288.879V14.6082H288.819C288.819 13.0482 289.153 11.8682 289.819 11.0682C290.486 10.2682 291.466 9.86816 292.759 9.86816H293.159V12.2882H292.399C291.466 12.2882 290.739 12.5415 290.219 13.0482C289.713 13.5415 289.459 14.2615 289.459 15.2082V20.8682H286.679Z" fill="black"/>
<path d="M326.68 20.8682V8.36816H329.52V20.8682H326.68ZM322.46 8.76816V6.26816H333.74V8.76816H322.46ZM339.899 21.2482C338.966 21.2482 338.146 21.0882 337.439 20.7682C336.746 20.4482 336.166 20.0215 335.699 19.4882C335.246 18.9415 334.899 18.3348 334.659 17.6682C334.433 17.0015 334.319 16.3215 334.319 15.6282V15.2482C334.319 14.5282 334.433 13.8348 334.659 13.1682C334.899 12.4882 335.246 11.8882 335.699 11.3682C336.166 10.8348 336.739 10.4148 337.419 10.1082C338.099 9.78816 338.886 9.62816 339.779 9.62816C340.953 9.62816 341.933 9.88816 342.719 10.4082C343.519 10.9148 344.119 11.5882 344.519 12.4282C344.919 13.2548 345.119 14.1482 345.119 15.1082V16.1082H335.499V14.4082H343.379L342.519 15.2482C342.519 14.5548 342.419 13.9615 342.219 13.4682C342.019 12.9748 341.713 12.5948 341.299 12.3282C340.899 12.0615 340.393 11.9282 339.779 11.9282C339.166 11.9282 338.646 12.0682 338.219 12.3482C337.793 12.6282 337.466 13.0348 337.239 13.5682C337.026 14.0882 336.919 14.7148 336.919 15.4482C336.919 16.1282 337.026 16.7348 337.239 17.2682C337.453 17.7882 337.779 18.2015 338.219 18.5082C338.659 18.8015 339.219 18.9482 339.899 18.9482C340.579 18.9482 341.133 18.8148 341.559 18.5482C341.986 18.2682 342.259 17.9282 342.379 17.5282H344.939C344.779 18.2748 344.473 18.9282 344.019 19.4882C343.566 20.0482 342.986 20.4815 342.279 20.7882C341.586 21.0948 340.793 21.2482 339.899 21.2482ZM348.042 20.8682V10.0082H350.242V14.6082H350.182C350.182 13.0482 350.515 11.8682 351.182 11.0682C351.848 10.2682 352.828 9.86816 354.122 9.86816H354.522V12.2882H353.762C352.828 12.2882 352.102 12.5415 351.582 13.0482C351.075 13.5415 350.822 14.2615 350.822 15.2082V20.8682H348.042ZM356.982 20.8682V10.0082H359.182V14.6682H358.982C358.982 13.5748 359.122 12.6615 359.402 11.9282C359.682 11.1815 360.095 10.6215 360.642 10.2482C361.202 9.8615 361.895 9.66816 362.722 9.66816H362.842C363.682 9.66816 364.375 9.8615 364.922 10.2482C365.482 10.6215 365.895 11.1815 366.162 11.9282C366.442 12.6615 366.582 13.5748 366.582 14.6682H365.882C365.882 13.5748 366.022 12.6615 366.302 11.9282C366.595 11.1815 367.015 10.6215 367.562 10.2482C368.122 9.8615 368.815 9.66816 369.642 9.66816H369.762C370.602 9.66816 371.302 9.8615 371.862 10.2482C372.422 10.6215 372.842 11.1815 373.122 11.9282C373.415 12.6615 373.562 13.5748 373.562 14.6682V20.8682H370.782V14.4082C370.782 13.7282 370.608 13.1882 370.262 12.7882C369.915 12.3748 369.422 12.1682 368.782 12.1682C368.142 12.1682 367.628 12.3815 367.242 12.8082C366.855 13.2215 366.662 13.7815 366.662 14.4882V20.8682H363.882V14.4082C363.882 13.7282 363.708 13.1882 363.362 12.7882C363.015 12.3748 362.522 12.1682 361.882 12.1682C361.242 12.1682 360.728 12.3815 360.342 12.8082C359.955 13.2215 359.762 13.7815 359.762 14.4882V20.8682H356.982ZM381.072 21.2082C379.579 21.2082 378.406 20.8948 377.552 20.2682C376.712 19.6282 376.272 18.7482 376.232 17.6282H378.732C378.772 18.0015 378.979 18.3415 379.352 18.6482C379.726 18.9548 380.312 19.1082 381.112 19.1082C381.779 19.1082 382.306 18.9882 382.692 18.7482C383.092 18.5082 383.292 18.1815 383.292 17.7682C383.292 17.4082 383.139 17.1215 382.832 16.9082C382.539 16.6948 382.032 16.5548 381.312 16.4882L380.352 16.3882C379.139 16.2548 378.206 15.9082 377.552 15.3482C376.899 14.7882 376.572 14.0415 376.572 13.1082C376.572 12.3615 376.759 11.7348 377.132 11.2282C377.506 10.7215 378.019 10.3415 378.672 10.0882C379.339 9.8215 380.099 9.68816 380.952 9.68816C382.286 9.68816 383.366 9.9815 384.192 10.5682C385.019 11.1548 385.452 12.0148 385.492 13.1482H382.992C382.966 12.7748 382.779 12.4548 382.432 12.1882C382.086 11.9215 381.586 11.7882 380.932 11.7882C380.346 11.7882 379.892 11.9015 379.572 12.1282C379.252 12.3548 379.092 12.6482 379.092 13.0082C379.092 13.3548 379.219 13.6215 379.472 13.8082C379.739 13.9948 380.166 14.1215 380.752 14.1882L381.712 14.2882C382.992 14.4215 383.992 14.7748 384.712 15.3482C385.446 15.9215 385.812 16.6948 385.812 17.6682C385.812 18.3882 385.612 19.0148 385.212 19.5482C384.826 20.0682 384.279 20.4748 383.572 20.7682C382.866 21.0615 382.032 21.2082 381.072 21.2082ZM402.725 20.8682L397.005 14.7082C396.392 14.0415 395.905 13.4615 395.545 12.9682C395.199 12.4748 394.945 12.0015 394.785 11.5482C394.639 11.0948 394.565 10.6015 394.565 10.0682C394.565 9.2415 394.739 8.53483 395.085 7.94816C395.432 7.34816 395.972 6.88816 396.705 6.56816C397.452 6.24816 398.412 6.08816 399.585 6.08816C400.052 6.08816 400.545 6.10816 401.065 6.14816C401.599 6.18816 402.065 6.2415 402.465 6.30816V8.62816C402.199 8.58816 401.865 8.55483 401.465 8.52816C401.065 8.48816 400.665 8.4615 400.265 8.44816C399.879 8.4215 399.559 8.40816 399.305 8.40816C398.465 8.40816 397.892 8.5615 397.585 8.86816C397.292 9.17483 397.145 9.61483 397.145 10.1882C397.145 10.6948 397.265 11.1748 397.505 11.6282C397.745 12.0682 398.125 12.5748 398.645 13.1482L405.845 20.8682H402.725ZM397.885 21.2682C396.819 21.2682 395.885 21.0615 395.085 20.6482C394.299 20.2348 393.679 19.6748 393.225 18.9682C392.785 18.2615 392.565 17.4748 392.565 16.6082V16.3282C392.565 15.3682 392.839 14.5148 393.385 13.7682C393.932 13.0082 394.625 12.4215 395.465 12.0082L396.665 13.5682C396.239 13.8215 395.879 14.1948 395.585 14.6882C395.292 15.1682 395.145 15.7215 395.145 16.3482C395.145 16.8815 395.259 17.3482 395.485 17.7482C395.725 18.1348 396.059 18.4348 396.485 18.6482C396.912 18.8615 397.419 18.9682 398.005 18.9682C398.832 18.9682 399.572 18.7415 400.225 18.2882C400.892 17.8348 401.412 17.1415 401.785 16.2082C402.172 15.2615 402.365 14.0548 402.365 12.5882H404.805C404.805 13.9748 404.632 15.2082 404.285 16.2882C403.939 17.3548 403.452 18.2615 402.825 19.0082C402.199 19.7415 401.465 20.3015 400.625 20.6882C399.785 21.0748 398.872 21.2682 397.885 21.2682ZM400.345 12.9482V10.8882H405.885V12.9482H400.345ZM420.278 21.2482C418.958 21.2482 417.824 21.0148 416.878 20.5482C415.931 20.0815 415.158 19.4748 414.558 18.7282C413.971 17.9815 413.538 17.1682 413.258 16.2882C412.978 15.4082 412.838 14.5615 412.838 13.7482V13.3082C412.838 12.4015 412.978 11.5082 413.258 10.6282C413.551 9.74816 413.998 8.94816 414.598 8.22816C415.198 7.50816 415.958 6.93483 416.878 6.50816C417.811 6.06816 418.911 5.84816 420.178 5.84816C421.498 5.84816 422.644 6.08816 423.618 6.56816C424.604 7.03483 425.391 7.7015 425.978 8.56816C426.564 9.4215 426.918 10.4215 427.038 11.5682H424.178C424.071 10.9015 423.831 10.3415 423.458 9.88816C423.098 9.4215 422.638 9.07483 422.078 8.84816C421.518 8.60816 420.884 8.48816 420.178 8.48816C419.458 8.48816 418.818 8.61483 418.258 8.86816C417.698 9.10816 417.231 9.45483 416.858 9.90816C416.484 10.3615 416.198 10.8948 415.998 11.5082C415.811 12.1215 415.718 12.8015 415.718 13.5482C415.718 14.2682 415.811 14.9348 415.998 15.5482C416.198 16.1615 416.491 16.7015 416.878 17.1682C417.264 17.6215 417.738 17.9748 418.298 18.2282C418.871 18.4815 419.531 18.6082 420.278 18.6082C421.371 18.6082 422.291 18.3415 423.038 17.8082C423.798 17.2615 424.258 16.5015 424.418 15.5282H427.278C427.144 16.5682 426.791 17.5215 426.218 18.3882C425.644 19.2548 424.858 19.9482 423.858 20.4682C422.858 20.9882 421.664 21.2482 420.278 21.2482ZM435.274 21.2482C434.314 21.2482 433.468 21.0948 432.734 20.7882C432.001 20.4815 431.381 20.0682 430.874 19.5482C430.368 19.0148 429.981 18.4148 429.714 17.7482C429.461 17.0815 429.334 16.3882 429.334 15.6682V15.2482C429.334 14.5015 429.468 13.7948 429.734 13.1282C430.014 12.4482 430.408 11.8482 430.914 11.3282C431.434 10.7948 432.061 10.3815 432.794 10.0882C433.528 9.7815 434.354 9.62816 435.274 9.62816C436.194 9.62816 437.021 9.7815 437.754 10.0882C438.488 10.3815 439.108 10.7948 439.614 11.3282C440.134 11.8482 440.528 12.4482 440.794 13.1282C441.061 13.7948 441.194 14.5015 441.194 15.2482V15.6682C441.194 16.3882 441.061 17.0815 440.794 17.7482C440.541 18.4148 440.161 19.0148 439.654 19.5482C439.148 20.0682 438.528 20.4815 437.794 20.7882C437.061 21.0948 436.221 21.2482 435.274 21.2482ZM435.274 18.8682C435.954 18.8682 436.528 18.7215 436.994 18.4282C437.461 18.1215 437.814 17.7148 438.054 17.2082C438.294 16.6882 438.414 16.1015 438.414 15.4482C438.414 14.7815 438.288 14.1948 438.034 13.6882C437.794 13.1682 437.434 12.7615 436.954 12.4682C436.488 12.1615 435.928 12.0082 435.274 12.0082C434.621 12.0082 434.054 12.1615 433.574 12.4682C433.108 12.7615 432.748 13.1682 432.494 13.6882C432.241 14.1948 432.114 14.7815 432.114 15.4482C432.114 16.1015 432.234 16.6882 432.474 17.2082C432.728 17.7148 433.088 18.1215 433.554 18.4282C434.021 18.7215 434.594 18.8682 435.274 18.8682ZM444.228 20.8682V10.0082H446.428V14.6682H446.228C446.228 13.5615 446.375 12.6415 446.668 11.9082C446.962 11.1615 447.395 10.6015 447.968 10.2282C448.555 9.85483 449.282 9.66816 450.148 9.66816H450.268C451.562 9.66816 452.542 10.0882 453.208 10.9282C453.875 11.7548 454.208 12.9948 454.208 14.6482V20.8682H451.428V14.4082C451.428 13.7415 451.235 13.2015 450.848 12.7882C450.475 12.3748 449.955 12.1682 449.288 12.1682C448.608 12.1682 448.055 12.3815 447.628 12.8082C447.215 13.2215 447.008 13.7815 447.008 14.4882V20.8682H444.228ZM462.297 21.2282C461.537 21.2282 460.837 21.0882 460.197 20.8082C459.557 20.5282 459.004 20.1348 458.537 19.6282C458.071 19.1215 457.711 18.5348 457.457 17.8682C457.204 17.1882 457.077 16.4548 457.077 15.6682V15.2482C457.077 14.4748 457.197 13.7482 457.437 13.0682C457.691 12.3882 458.037 11.7948 458.477 11.2882C458.931 10.7815 459.471 10.3882 460.097 10.1082C460.737 9.81483 461.444 9.66816 462.217 9.66816C463.071 9.66816 463.817 9.85483 464.457 10.2282C465.111 10.5882 465.631 11.1348 466.017 11.8682C466.404 12.6015 466.617 13.5215 466.657 14.6282L465.837 13.6682V6.26816H468.617V20.8682H466.417V16.2482H466.897C466.857 17.3548 466.631 18.2815 466.217 19.0282C465.804 19.7615 465.257 20.3148 464.577 20.6882C463.911 21.0482 463.151 21.2282 462.297 21.2282ZM462.917 18.8882C463.464 18.8882 463.964 18.7682 464.417 18.5282C464.871 18.2748 465.231 17.9148 465.497 17.4482C465.777 16.9682 465.917 16.4082 465.917 15.7682V14.9682C465.917 14.3282 465.777 13.7948 465.497 13.3682C465.217 12.9282 464.851 12.5948 464.397 12.3682C463.944 12.1282 463.451 12.0082 462.917 12.0082C462.317 12.0082 461.784 12.1548 461.317 12.4482C460.864 12.7282 460.504 13.1282 460.237 13.6482C459.984 14.1682 459.857 14.7748 459.857 15.4682C459.857 16.1615 459.991 16.7682 460.257 17.2882C460.524 17.7948 460.884 18.1882 461.337 18.4682C461.804 18.7482 462.331 18.8882 462.917 18.8882ZM472.902 20.8682V10.0082H475.682V20.8682H472.902ZM471.382 12.0882V10.0082H475.682V12.0882H471.382ZM473.922 8.70816C473.375 8.70816 472.968 8.56816 472.702 8.28816C472.448 7.99483 472.322 7.63483 472.322 7.20816C472.322 6.75483 472.448 6.38816 472.702 6.10816C472.968 5.82816 473.375 5.68816 473.922 5.68816C474.468 5.68816 474.868 5.82816 475.122 6.10816C475.375 6.38816 475.502 6.75483 475.502 7.20816C475.502 7.63483 475.375 7.99483 475.122 8.28816C474.868 8.56816 474.468 8.70816 473.922 8.70816ZM484.205 21.0082C483.205 21.0082 482.379 20.8815 481.725 20.6282C481.085 20.3615 480.605 19.9215 480.285 19.3082C479.965 18.6815 479.805 17.8415 479.805 16.7882L479.825 6.94816H482.425L482.405 16.9682C482.405 17.5015 482.545 17.9148 482.825 18.2082C483.119 18.4882 483.532 18.6282 484.065 18.6282H485.765V21.0082H484.205ZM478.085 12.0482V10.0082H485.765V12.0482H478.085ZM489.219 20.8682V10.0082H491.999V20.8682H489.219ZM487.699 12.0882V10.0082H491.999V12.0882H487.699ZM490.239 8.70816C489.692 8.70816 489.285 8.56816 489.019 8.28816C488.765 7.99483 488.639 7.63483 488.639 7.20816C488.639 6.75483 488.765 6.38816 489.019 6.10816C489.285 5.82816 489.692 5.68816 490.239 5.68816C490.785 5.68816 491.185 5.82816 491.439 6.10816C491.692 6.38816 491.819 6.75483 491.819 7.20816C491.819 7.63483 491.692 7.99483 491.439 8.28816C491.185 8.56816 490.785 8.70816 490.239 8.70816ZM501.023 21.2482C500.063 21.2482 499.216 21.0948 498.483 20.7882C497.749 20.4815 497.129 20.0682 496.623 19.5482C496.116 19.0148 495.729 18.4148 495.463 17.7482C495.209 17.0815 495.083 16.3882 495.083 15.6682V15.2482C495.083 14.5015 495.216 13.7948 495.483 13.1282C495.763 12.4482 496.156 11.8482 496.663 11.3282C497.183 10.7948 497.809 10.3815 498.543 10.0882C499.276 9.7815 500.103 9.62816 501.023 9.62816C501.943 9.62816 502.769 9.7815 503.503 10.0882C504.236 10.3815 504.856 10.7948 505.363 11.3282C505.883 11.8482 506.276 12.4482 506.543 13.1282C506.809 13.7948 506.943 14.5015 506.943 15.2482V15.6682C506.943 16.3882 506.809 17.0815 506.543 17.7482C506.289 18.4148 505.909 19.0148 505.403 19.5482C504.896 20.0682 504.276 20.4815 503.543 20.7882C502.809 21.0948 501.969 21.2482 501.023 21.2482ZM501.023 18.8682C501.703 18.8682 502.276 18.7215 502.743 18.4282C503.209 18.1215 503.563 17.7148 503.803 17.2082C504.043 16.6882 504.163 16.1015 504.163 15.4482C504.163 14.7815 504.036 14.1948 503.783 13.6882C503.543 13.1682 503.183 12.7615 502.703 12.4682C502.236 12.1615 501.676 12.0082 501.023 12.0082C500.369 12.0082 499.803 12.1615 499.323 12.4682C498.856 12.7615 498.496 13.1682 498.243 13.6882C497.989 14.1948 497.863 14.7815 497.863 15.4482C497.863 16.1015 497.983 16.6882 498.223 17.2082C498.476 17.7148 498.836 18.1215 499.303 18.4282C499.769 18.7215 500.343 18.8682 501.023 18.8682ZM509.977 20.8682V10.0082H512.177V14.6682H511.977C511.977 13.5615 512.124 12.6415 512.417 11.9082C512.71 11.1615 513.144 10.6015 513.717 10.2282C514.304 9.85483 515.03 9.66816 515.897 9.66816H516.017C517.31 9.66816 518.29 10.0882 518.957 10.9282C519.624 11.7548 519.957 12.9948 519.957 14.6482V20.8682H517.177V14.4082C517.177 13.7415 516.984 13.2015 516.597 12.7882C516.224 12.3748 515.704 12.1682 515.037 12.1682C514.357 12.1682 513.804 12.3815 513.377 12.8082C512.964 13.2215 512.757 13.7815 512.757 14.4882V20.8682H509.977ZM527.486 21.2082C525.992 21.2082 524.819 20.8948 523.966 20.2682C523.126 19.6282 522.686 18.7482 522.646 17.6282H525.146C525.186 18.0015 525.392 18.3415 525.766 18.6482C526.139 18.9548 526.726 19.1082 527.526 19.1082C528.192 19.1082 528.719 18.9882 529.106 18.7482C529.506 18.5082 529.706 18.1815 529.706 17.7682C529.706 17.4082 529.552 17.1215 529.246 16.9082C528.952 16.6948 528.446 16.5548 527.726 16.4882L526.766 16.3882C525.552 16.2548 524.619 15.9082 523.966 15.3482C523.312 14.7882 522.986 14.0415 522.986 13.1082C522.986 12.3615 523.172 11.7348 523.546 11.2282C523.919 10.7215 524.432 10.3415 525.086 10.0882C525.752 9.8215 526.512 9.68816 527.366 9.68816C528.699 9.68816 529.779 9.9815 530.606 10.5682C531.432 11.1548 531.866 12.0148 531.906 13.1482H529.406C529.379 12.7748 529.192 12.4548 528.846 12.1882C528.499 11.9215 527.999 11.7882 527.346 11.7882C526.759 11.7882 526.306 11.9015 525.986 12.1282C525.666 12.3548 525.506 12.6482 525.506 13.0082C525.506 13.3548 525.632 13.6215 525.886 13.8082C526.152 13.9948 526.579 14.1215 527.166 14.1882L528.126 14.2882C529.406 14.4215 530.406 14.7748 531.126 15.3482C531.859 15.9215 532.226 16.6948 532.226 17.6682C532.226 18.3882 532.026 19.0148 531.626 19.5482C531.239 20.0682 530.692 20.4748 529.986 20.7682C529.279 21.0615 528.446 21.2082 527.486 21.2082Z" fill="black"/>
</svg>
