<svg width="121" height="46" viewBox="0 0 121 46" fill="none" xmlns="http://www.w3.org/2000/svg">
<rect x="0.278809" y="0.547363" width="120" height="45" rx="9.75" fill="#E1647D"/>
<path d="M28.4818 30.9254C27.2078 30.9254 26.1228 30.7154 25.2268 30.2954C24.3308 29.8754 23.6448 29.2944 23.1688 28.5524C22.6928 27.8104 22.4548 26.9704 22.4548 26.0324H24.5128C24.5128 26.4944 24.6318 26.9564 24.8698 27.4184C25.1218 27.8804 25.5348 28.2654 26.1088 28.5734C26.6968 28.8814 27.4878 29.0354 28.4818 29.0354C29.4058 29.0354 30.1618 28.9024 30.7498 28.6364C31.3378 28.3564 31.7718 27.9994 32.0518 27.5654C32.3318 27.1174 32.4718 26.6344 32.4718 26.1164C32.4718 25.4864 32.1988 24.9684 31.6528 24.5624C31.1068 24.1424 30.3088 23.8834 29.2588 23.7854L27.5578 23.6384C26.1998 23.5264 25.1148 23.1064 24.3028 22.3784C23.4908 21.6504 23.0848 20.6914 23.0848 19.5014C23.0848 18.5634 23.3088 17.7444 23.7568 17.0444C24.2188 16.3444 24.8558 15.7984 25.6678 15.4064C26.4798 15.0004 27.4248 14.7974 28.5028 14.7974C29.5668 14.7974 30.5048 14.9934 31.3168 15.3854C32.1288 15.7774 32.7588 16.3304 33.2068 17.0444C33.6688 17.7444 33.8998 18.5844 33.8998 19.5644H31.8418C31.8418 19.0744 31.7228 18.6124 31.4848 18.1784C31.2608 17.7444 30.9038 17.3874 30.4138 17.1074C29.9238 16.8274 29.2868 16.6874 28.5028 16.6874C27.7468 16.6874 27.1168 16.8204 26.6128 17.0864C26.1228 17.3524 25.7518 17.7024 25.4998 18.1364C25.2618 18.5564 25.1428 19.0114 25.1428 19.5014C25.1428 20.0614 25.3598 20.5584 25.7938 20.9924C26.2278 21.4264 26.8718 21.6784 27.7258 21.7484L29.4268 21.8954C30.4768 21.9794 31.3798 22.2034 32.1358 22.5674C32.9058 22.9174 33.4938 23.3934 33.8998 23.9954C34.3198 24.5834 34.5298 25.2904 34.5298 26.1164C34.5298 27.0544 34.2778 27.8874 33.7738 28.6154C33.2698 29.3434 32.5628 29.9104 31.6528 30.3164C30.7428 30.7224 29.6858 30.9254 28.4818 30.9254ZM41.5743 30.8834C40.2443 30.8834 39.2223 30.4494 38.5083 29.5814C37.7943 28.7134 37.4373 27.4604 37.4373 25.8224V19.3124H39.4533V26.2214C39.4533 27.1034 39.6913 27.7964 40.1673 28.3004C40.6433 28.7904 41.2873 29.0354 42.0993 29.0354C42.9393 29.0354 43.6253 28.7694 44.1573 28.2374C44.6893 27.6914 44.9553 26.9494 44.9553 26.0114V19.3124H46.9713V30.5474H45.3753V25.7384H45.6273C45.6273 26.8444 45.4803 27.7824 45.1863 28.5524C44.8923 29.3084 44.4513 29.8894 43.8633 30.2954C43.2893 30.6874 42.5543 30.8834 41.6583 30.8834H41.5743ZM56.7978 30.9254C55.8738 30.9254 55.0478 30.7224 54.3198 30.3164C53.6058 29.9104 53.0388 29.3224 52.6188 28.5524C52.1988 27.7684 51.9678 26.8304 51.9258 25.7384H52.4718V30.5474H50.8758V15.2174H52.8918V22.6724L52.1778 24.2054C52.2338 22.9874 52.4788 21.9934 52.9128 21.2234C53.3468 20.4534 53.9138 19.8864 54.6138 19.5224C55.3278 19.1444 56.1118 18.9554 56.9658 18.9554C57.7638 18.9554 58.4918 19.1094 59.1498 19.4174C59.8078 19.7114 60.3748 20.1244 60.8508 20.6564C61.3268 21.1744 61.6908 21.7834 61.9428 22.4834C62.1948 23.1694 62.3208 23.9114 62.3208 24.7094V25.0874C62.3208 25.8854 62.1878 26.6344 61.9218 27.3344C61.6698 28.0344 61.2988 28.6574 60.8088 29.2034C60.3188 29.7354 59.7308 30.1554 59.0448 30.4634C58.3728 30.7714 57.6238 30.9254 56.7978 30.9254ZM56.5668 29.1614C57.3228 29.1614 57.9808 28.9794 58.5408 28.6154C59.1008 28.2514 59.5348 27.7544 59.8428 27.1244C60.1508 26.4804 60.3048 25.7384 60.3048 24.8984C60.3048 24.0584 60.1438 23.3234 59.8218 22.6934C59.5138 22.0634 59.0798 21.5804 58.5198 21.2444C57.9598 20.8944 57.3088 20.7194 56.5668 20.7194C55.8948 20.7194 55.2718 20.8734 54.6978 21.1814C54.1238 21.4754 53.6618 21.9094 53.3118 22.4834C52.9758 23.0434 52.8078 23.7224 52.8078 24.5204V25.4864C52.8078 26.2564 52.9828 26.9144 53.3328 27.4604C53.6828 28.0064 54.1448 28.4264 54.7188 28.7204C55.2928 29.0144 55.9088 29.1614 56.5668 29.1614ZM65.3544 30.5474V19.3334H66.9504V24.1424H66.6984C66.6984 23.0504 66.8384 22.1264 67.1184 21.3704C67.4124 20.6004 67.8464 20.0124 68.4204 19.6064C68.9944 19.2004 69.7224 18.9974 70.6044 18.9974H70.6884C71.5704 18.9974 72.2984 19.2004 72.8724 19.6064C73.4604 20.0124 73.8944 20.6004 74.1744 21.3704C74.4544 22.1264 74.5944 23.0504 74.5944 24.1424H74.0064C74.0064 23.0504 74.1534 22.1264 74.4474 21.3704C74.7414 20.6004 75.1754 20.0124 75.7494 19.6064C76.3374 19.2004 77.0724 18.9974 77.9544 18.9974H78.0384C78.9204 18.9974 79.6554 19.2004 80.2434 19.6064C80.8314 20.0124 81.2654 20.6004 81.5454 21.3704C81.8394 22.1264 81.9864 23.0504 81.9864 24.1424V30.5474H79.9704V23.7014C79.9704 22.7914 79.7464 22.0914 79.2984 21.6014C78.8504 21.0974 78.2274 20.8454 77.4294 20.8454C76.6034 20.8454 75.9384 21.1114 75.4344 21.6434C74.9304 22.1614 74.6784 22.8894 74.6784 23.8274V30.5474H72.6624V23.7014C72.6624 22.7914 72.4384 22.0914 71.9904 21.6014C71.5424 21.0974 70.9194 20.8454 70.1214 20.8454C69.2954 20.8454 68.6304 21.1114 68.1264 21.6434C67.6224 22.1614 67.3704 22.8894 67.3704 23.8274V30.5474H65.3544ZM86.2236 30.5474V19.3334H88.2396V30.5474H86.2236ZM84.5016 20.9294V19.3334H88.2396V20.9294H84.5016ZM86.7906 17.5274C86.3426 17.5274 86.0066 17.4084 85.7826 17.1704C85.5726 16.9324 85.4676 16.6314 85.4676 16.2674C85.4676 15.9034 85.5726 15.6024 85.7826 15.3644C86.0066 15.1264 86.3426 15.0074 86.7906 15.0074C87.2386 15.0074 87.5676 15.1264 87.7776 15.3644C88.0016 15.6024 88.1136 15.9034 88.1136 16.2674C88.1136 16.6314 88.0016 16.9324 87.7776 17.1704C87.5676 17.4084 87.2386 17.5274 86.7906 17.5274ZM96.5056 30.6734C95.6656 30.6734 94.9376 30.5544 94.3216 30.3164C93.7196 30.0784 93.2506 29.6724 92.9146 29.0984C92.5926 28.5104 92.4316 27.7194 92.4316 26.7254V15.9314H94.3636V26.9774C94.3636 27.5794 94.5246 28.0484 94.8466 28.3844C95.1826 28.7064 95.6516 28.8674 96.2536 28.8674H98.2276V30.6734H96.5056ZM90.4996 20.8454V19.3334H98.2276V20.8454H90.4996Z" fill="white"/>
</svg>
