<svg width="650" height="43" viewBox="0 0 650 43" fill="none" xmlns="http://www.w3.org/2000/svg">
<path d="M0.839688 15.0769V0.616903C0.886354 0.616903 1.02635 0.620237 1.25969 0.626904C1.49969 0.626904 1.78969 0.626904 2.12969 0.626904C2.46969 0.620237 2.82302 0.620237 3.18969 0.626904C3.55635 0.626904 3.89302 0.630237 4.19969 0.636903C5.97302 0.66357 7.40969 0.95357 8.50969 1.5069C9.61635 2.05357 10.4264 2.85024 10.9397 3.8969C11.4597 4.94357 11.7197 6.23024 11.7197 7.7569C11.7197 9.3569 11.4397 10.7002 10.8797 11.7869C10.3264 12.8736 9.47969 13.6936 8.33969 14.2469C7.20635 14.8002 5.76302 15.0769 4.00969 15.0769H0.839688ZM2.73969 13.4869H4.00969C5.20302 13.4869 6.22969 13.3036 7.08969 12.9369C7.94969 12.5636 8.60969 11.9602 9.06969 11.1269C9.53636 10.2936 9.76969 9.18024 9.76969 7.7869C9.76969 6.39357 9.54302 5.29024 9.08969 4.4769C8.64302 3.66357 7.99635 3.08357 7.14969 2.7369C6.30302 2.38357 5.28302 2.2069 4.08969 2.2069H2.73969V13.4869ZM14.7069 15.0769V0.616903H17.2669L21.6269 12.5569L26.0469 0.616903H28.5969V15.0769H26.6869V3.3869L22.4969 15.0769H20.7669L16.6069 3.4969V15.0769H14.7069ZM40.705 15.2769C40.165 15.2702 39.655 15.1936 39.175 15.0469C38.7017 14.8936 38.2817 14.6702 37.915 14.3769C37.5483 14.0836 37.2583 13.7202 37.045 13.2869C36.8383 12.8469 36.735 12.3369 36.735 11.7569V4.7369H38.585V11.5669C38.585 12.2402 38.7917 12.7869 39.205 13.2069C39.625 13.6269 40.255 13.8369 41.095 13.8369C41.855 13.8369 42.465 13.6402 42.925 13.2469C43.3917 12.8469 43.625 12.2536 43.625 11.4669V4.7369H45.465V15.0769H43.995L43.805 13.0969C43.6783 13.6169 43.4617 14.0369 43.155 14.3569C42.855 14.6769 42.4917 14.9136 42.065 15.0669C41.645 15.2136 41.1917 15.2836 40.705 15.2769ZM52.2266 15.2769C51.5066 15.2769 50.8366 15.1669 50.2166 14.9469C49.6032 14.7202 49.0932 14.3702 48.6866 13.8969C48.2799 13.4169 48.0266 12.8069 47.9266 12.0669H49.6066C49.6932 12.4736 49.8599 12.8136 50.1066 13.0869C50.3532 13.3536 50.6566 13.5569 51.0166 13.6969C51.3832 13.8302 51.7832 13.8969 52.2166 13.8969C52.9166 13.8969 53.4799 13.7669 53.9066 13.5069C54.3332 13.2469 54.5466 12.8469 54.5466 12.3069C54.5466 11.9269 54.4332 11.6236 54.2066 11.3969C53.9866 11.1636 53.6399 10.9936 53.1666 10.8869L51.0266 10.3569C50.1932 10.1569 49.5266 9.84357 49.0266 9.4169C48.5332 8.99024 48.2832 8.39357 48.2766 7.6269C48.2766 7.02024 48.4232 6.4869 48.7166 6.0269C49.0099 5.5669 49.4466 5.20357 50.0266 4.9369C50.6132 4.67024 51.3432 4.5369 52.2166 4.5369C53.3432 4.5369 54.2499 4.79024 54.9366 5.2969C55.6232 5.7969 55.9832 6.53357 56.0166 7.5069H54.3766C54.3099 7.01357 54.0899 6.62357 53.7166 6.3369C53.3432 6.04357 52.8366 5.8969 52.1966 5.8969C51.5432 5.8969 51.0066 6.03024 50.5866 6.2969C50.1732 6.5569 49.9666 6.96357 49.9666 7.5169C49.9666 7.88357 50.1132 8.17357 50.4066 8.3869C50.7066 8.59357 51.1399 8.7669 51.7066 8.9069L53.7866 9.4269C54.2599 9.55357 54.6532 9.72024 54.9666 9.9269C55.2799 10.1336 55.5266 10.3636 55.7066 10.6169C55.8866 10.8702 56.0132 11.1369 56.0866 11.4169C56.1666 11.6902 56.2066 11.9536 56.2066 12.2069C56.2066 12.8402 56.0499 13.3869 55.7366 13.8469C55.4232 14.3002 54.9699 14.6536 54.3766 14.9069C53.7832 15.1536 53.0666 15.2769 52.2266 15.2769Z" fill="#E37489"/>
<path d="M65.4817 15.0769L62.2817 4.7369H64.0017L66.3617 12.6869H66.5217L68.8517 4.7369H70.2517L72.6717 12.6669H72.8417L75.1017 4.7369H76.8417L73.7017 15.0769H71.8817L69.5317 7.4469L67.2817 15.0769H65.4817ZM78.9472 15.0769V4.7369H80.7372V15.0769H78.9472ZM78.8972 2.5469V0.626904H80.7872V2.5469H78.8972ZM87.6286 15.1269C86.9153 15.1269 86.3619 15.0302 85.9686 14.8369C85.5753 14.6436 85.2986 14.3569 85.1386 13.9769C84.9853 13.5969 84.9086 13.1302 84.9086 12.5769V6.0869H83.2286V4.7369H84.9586L85.4086 1.7269H86.7686V4.7269H89.0986V6.0869H86.7686V12.5169C86.7686 12.8836 86.8053 13.1536 86.8786 13.3269C86.9586 13.4936 87.0886 13.6002 87.2686 13.6469C87.4486 13.6936 87.7019 13.7169 88.0286 13.7169H89.1586V14.9569C89.0319 15.0036 88.8386 15.0436 88.5786 15.0769C88.3253 15.1102 88.0086 15.1269 87.6286 15.1269ZM91.612 15.0769V0.216904H93.412V6.2569C93.5854 5.97024 93.8187 5.70357 94.112 5.4569C94.4054 5.20357 94.762 5.00024 95.182 4.8469C95.602 4.6869 96.0887 4.6069 96.642 4.6069C97.3154 4.6069 97.9254 4.73357 98.472 4.9869C99.0187 5.23357 99.452 5.5869 99.772 6.0469C100.092 6.5069 100.252 7.05357 100.252 7.6869V15.0769H98.402V8.0569C98.402 7.4369 98.1887 6.96024 97.762 6.6269C97.342 6.2869 96.792 6.1169 96.112 6.1169C95.652 6.1169 95.2187 6.19357 94.812 6.3469C94.4054 6.49357 94.0754 6.72024 93.822 7.0269C93.5754 7.3269 93.452 7.71024 93.452 8.1769V15.0769H91.612ZM111.789 15.1269C111.075 15.1269 110.522 15.0302 110.129 14.8369C109.735 14.6436 109.459 14.3569 109.299 13.9769C109.145 13.5969 109.069 13.1302 109.069 12.5769V6.0869H107.389V4.7369H109.119L109.569 1.7269H110.929V4.7269H113.259V6.0869H110.929V12.5169C110.929 12.8836 110.965 13.1536 111.039 13.3269C111.119 13.4936 111.249 13.6002 111.429 13.6469C111.609 13.6936 111.862 13.7169 112.189 13.7169H113.319V14.9569C113.192 15.0036 112.999 15.0436 112.739 15.0769C112.485 15.1102 112.169 15.1269 111.789 15.1269ZM115.772 15.0769V0.216904H117.572V6.2569C117.746 5.97024 117.979 5.70357 118.272 5.4569C118.566 5.20357 118.922 5.00024 119.342 4.8469C119.762 4.6869 120.249 4.6069 120.802 4.6069C121.476 4.6069 122.086 4.73357 122.632 4.9869C123.179 5.23357 123.612 5.5869 123.932 6.0469C124.252 6.5069 124.412 7.05357 124.412 7.6869V15.0769H122.562V8.0569C122.562 7.4369 122.349 6.96024 121.922 6.6269C121.502 6.2869 120.952 6.1169 120.272 6.1169C119.812 6.1169 119.379 6.19357 118.972 6.3469C118.566 6.49357 118.236 6.72024 117.982 7.0269C117.736 7.3269 117.612 7.71024 117.612 8.1769V15.0769H115.772ZM131.666 15.2769C130.706 15.2769 129.859 15.0669 129.126 14.6469C128.392 14.2269 127.819 13.6236 127.406 12.8369C126.992 12.0502 126.786 11.1069 126.786 10.0069C126.786 8.92024 126.972 7.9669 127.346 7.1469C127.719 6.3269 128.259 5.6869 128.966 5.2269C129.679 4.7669 130.536 4.5369 131.536 4.5369C132.509 4.5369 133.332 4.7469 134.006 5.1669C134.679 5.5869 135.189 6.18024 135.536 6.9469C135.889 7.7069 136.066 8.61024 136.066 9.6569V10.3369H128.656C128.656 10.9902 128.762 11.5836 128.976 12.1169C129.196 12.6436 129.526 13.0636 129.966 13.3769C130.406 13.6902 130.962 13.8469 131.636 13.8469C132.296 13.8469 132.862 13.6936 133.336 13.3869C133.816 13.0802 134.122 12.6369 134.256 12.0569H135.996C135.876 12.7569 135.596 13.3469 135.156 13.8269C134.722 14.3069 134.199 14.6702 133.586 14.9169C132.979 15.1569 132.339 15.2769 131.666 15.2769ZM128.666 9.0869H134.286C134.286 8.49357 134.186 7.96024 133.986 7.4869C133.786 7.0069 133.479 6.63024 133.066 6.3569C132.659 6.0769 132.146 5.9369 131.526 5.9369C130.879 5.9369 130.342 6.09357 129.916 6.4069C129.489 6.71357 129.172 7.11024 128.966 7.5969C128.759 8.0769 128.659 8.57357 128.666 9.0869ZM138.674 15.0769V4.7369H140.464V15.0769H138.674ZM138.624 2.5469V0.626904H140.514V2.5469H138.624ZM143.682 15.0769V4.7369H145.442V6.7269C145.616 6.23357 145.859 5.8269 146.172 5.5069C146.486 5.18024 146.842 4.9369 147.242 4.7769C147.649 4.6169 148.069 4.5369 148.502 4.5369C148.656 4.5369 148.806 4.5469 148.952 4.5669C149.099 4.5869 149.212 4.62024 149.292 4.6669V6.4569C149.192 6.41024 149.062 6.38024 148.902 6.3669C148.749 6.3469 148.619 6.3369 148.512 6.3369C148.099 6.31024 147.712 6.3369 147.352 6.4169C146.992 6.49024 146.676 6.62024 146.402 6.8069C146.129 6.99357 145.912 7.24024 145.752 7.5469C145.599 7.8469 145.522 8.21357 145.522 8.6469V15.0769H143.682ZM160.264 15.2769C159.331 15.2769 158.504 15.0736 157.784 14.6669C157.071 14.2602 156.511 13.6602 156.104 12.8669C155.704 12.0736 155.504 11.1002 155.504 9.9469C155.504 8.8669 155.688 7.92357 156.054 7.1169C156.428 6.30357 156.968 5.67024 157.674 5.2169C158.388 4.76357 159.251 4.5369 160.264 4.5369C161.004 4.5369 161.668 4.68024 162.254 4.9669C162.848 5.2469 163.334 5.6469 163.714 6.1669C164.094 6.6869 164.328 7.30024 164.414 8.0069H162.774C162.714 7.6469 162.574 7.3169 162.354 7.0169C162.141 6.7169 161.858 6.4769 161.504 6.2969C161.158 6.1169 160.748 6.0269 160.274 6.0269C159.388 6.0269 158.664 6.3469 158.104 6.9869C157.551 7.6269 157.274 8.6069 157.274 9.9269C157.274 11.1202 157.528 12.0769 158.034 12.7969C158.548 13.5102 159.301 13.8669 160.294 13.8669C160.768 13.8669 161.181 13.7769 161.534 13.5969C161.888 13.4102 162.171 13.1669 162.384 12.8669C162.598 12.5602 162.734 12.2336 162.794 11.8869H164.404C164.318 12.5802 164.081 13.1802 163.694 13.6869C163.314 14.1936 162.828 14.5869 162.234 14.8669C161.648 15.1402 160.991 15.2769 160.264 15.2769ZM170.744 15.2769C170.204 15.2702 169.694 15.1936 169.214 15.0469C168.741 14.8936 168.321 14.6702 167.954 14.3769C167.587 14.0836 167.297 13.7202 167.084 13.2869C166.877 12.8469 166.774 12.3369 166.774 11.7569V4.7369H168.624V11.5669C168.624 12.2402 168.831 12.7869 169.244 13.2069C169.664 13.6269 170.294 13.8369 171.134 13.8369C171.894 13.8369 172.504 13.6402 172.964 13.2469C173.431 12.8469 173.664 12.2536 173.664 11.4669V4.7369H175.504V15.0769H174.034L173.844 13.0969C173.717 13.6169 173.501 14.0369 173.194 14.3569C172.894 14.6769 172.531 14.9136 172.104 15.0669C171.684 15.2136 171.231 15.2836 170.744 15.2769ZM182.336 15.1269C181.622 15.1269 181.069 15.0302 180.676 14.8369C180.282 14.6436 180.006 14.3569 179.846 13.9769C179.692 13.5969 179.616 13.1302 179.616 12.5769V6.0869H177.936V4.7369H179.666L180.116 1.7269H181.476V4.7269H183.806V6.0869H181.476V12.5169C181.476 12.8836 181.512 13.1536 181.586 13.3269C181.666 13.4936 181.796 13.6002 181.976 13.6469C182.156 13.6936 182.409 13.7169 182.736 13.7169H183.866V14.9569C183.739 15.0036 183.546 15.0436 183.286 15.0769C183.032 15.1102 182.716 15.1269 182.336 15.1269ZM190.416 15.2769C189.456 15.2769 188.609 15.0669 187.876 14.6469C187.142 14.2269 186.569 13.6236 186.156 12.8369C185.742 12.0502 185.536 11.1069 185.536 10.0069C185.536 8.92024 185.722 7.9669 186.096 7.1469C186.469 6.3269 187.009 5.6869 187.716 5.2269C188.429 4.7669 189.286 4.5369 190.286 4.5369C191.259 4.5369 192.082 4.7469 192.756 5.1669C193.429 5.5869 193.939 6.18024 194.286 6.9469C194.639 7.7069 194.816 8.61024 194.816 9.6569V10.3369H187.406C187.406 10.9902 187.512 11.5836 187.726 12.1169C187.946 12.6436 188.276 13.0636 188.716 13.3769C189.156 13.6902 189.712 13.8469 190.386 13.8469C191.046 13.8469 191.612 13.6936 192.086 13.3869C192.566 13.0802 192.872 12.6369 193.006 12.0569H194.746C194.626 12.7569 194.346 13.3469 193.906 13.8269C193.472 14.3069 192.949 14.6702 192.336 14.9169C191.729 15.1569 191.089 15.2769 190.416 15.2769ZM187.416 9.0869H193.036C193.036 8.49357 192.936 7.96024 192.736 7.4869C192.536 7.0069 192.229 6.63024 191.816 6.3569C191.409 6.0769 190.896 5.9369 190.276 5.9369C189.629 5.9369 189.092 6.09357 188.666 6.4069C188.239 6.71357 187.922 7.11024 187.716 7.5969C187.509 8.0769 187.409 8.57357 187.416 9.0869ZM201.035 15.2769C200.315 15.2769 199.645 15.1669 199.025 14.9469C198.412 14.7202 197.902 14.3702 197.495 13.8969C197.088 13.4169 196.835 12.8069 196.735 12.0669H198.415C198.502 12.4736 198.668 12.8136 198.915 13.0869C199.162 13.3536 199.465 13.5569 199.825 13.6969C200.192 13.8302 200.592 13.8969 201.025 13.8969C201.725 13.8969 202.288 13.7669 202.715 13.5069C203.142 13.2469 203.355 12.8469 203.355 12.3069C203.355 11.9269 203.242 11.6236 203.015 11.3969C202.795 11.1636 202.448 10.9936 201.975 10.8869L199.835 10.3569C199.002 10.1569 198.335 9.84357 197.835 9.4169C197.342 8.99024 197.092 8.39357 197.085 7.6269C197.085 7.02024 197.232 6.4869 197.525 6.0269C197.818 5.5669 198.255 5.20357 198.835 4.9369C199.422 4.67024 200.152 4.5369 201.025 4.5369C202.152 4.5369 203.058 4.79024 203.745 5.2969C204.432 5.7969 204.792 6.53357 204.825 7.5069H203.185C203.118 7.01357 202.898 6.62357 202.525 6.3369C202.152 6.04357 201.645 5.8969 201.005 5.8969C200.352 5.8969 199.815 6.03024 199.395 6.2969C198.982 6.5569 198.775 6.96357 198.775 7.5169C198.775 7.88357 198.922 8.17357 199.215 8.3869C199.515 8.59357 199.948 8.7669 200.515 8.9069L202.595 9.4269C203.068 9.55357 203.462 9.72024 203.775 9.9269C204.088 10.1336 204.335 10.3636 204.515 10.6169C204.695 10.8702 204.822 11.1369 204.895 11.4169C204.975 11.6902 205.015 11.9536 205.015 12.2069C205.015 12.8402 204.858 13.3869 204.545 13.8469C204.232 14.3002 203.778 14.6536 203.185 14.9069C202.592 15.1536 201.875 15.2769 201.035 15.2769ZM211.008 15.1269C210.294 15.1269 209.741 15.0302 209.348 14.8369C208.954 14.6436 208.678 14.3569 208.518 13.9769C208.364 13.5969 208.288 13.1302 208.288 12.5769V6.0869H206.608V4.7369H208.338L208.788 1.7269H210.148V4.7269H212.478V6.0869H210.148V12.5169C210.148 12.8836 210.184 13.1536 210.258 13.3269C210.338 13.4936 210.468 13.6002 210.648 13.6469C210.828 13.6936 211.081 13.7169 211.408 13.7169H212.538V14.9569C212.411 15.0036 212.218 15.0436 211.958 15.0769C211.704 15.1102 211.388 15.1269 211.008 15.1269ZM223.574 15.2769C222.854 15.2769 222.184 15.1669 221.564 14.9469C220.951 14.7202 220.441 14.3702 220.034 13.8969C219.628 13.4169 219.374 12.8069 219.274 12.0669H220.954C221.041 12.4736 221.208 12.8136 221.454 13.0869C221.701 13.3536 222.004 13.5569 222.364 13.6969C222.731 13.8302 223.131 13.8969 223.564 13.8969C224.264 13.8969 224.828 13.7669 225.254 13.5069C225.681 13.2469 225.894 12.8469 225.894 12.3069C225.894 11.9269 225.781 11.6236 225.554 11.3969C225.334 11.1636 224.988 10.9936 224.514 10.8869L222.374 10.3569C221.541 10.1569 220.874 9.84357 220.374 9.4169C219.881 8.99024 219.631 8.39357 219.624 7.6269C219.624 7.02024 219.771 6.4869 220.064 6.0269C220.358 5.5669 220.794 5.20357 221.374 4.9369C221.961 4.67024 222.691 4.5369 223.564 4.5369C224.691 4.5369 225.598 4.79024 226.284 5.2969C226.971 5.7969 227.331 6.53357 227.364 7.5069H225.724C225.658 7.01357 225.438 6.62357 225.064 6.3369C224.691 6.04357 224.184 5.8969 223.544 5.8969C222.891 5.8969 222.354 6.03024 221.934 6.2969C221.521 6.5569 221.314 6.96357 221.314 7.5169C221.314 7.88357 221.461 8.17357 221.754 8.3869C222.054 8.59357 222.488 8.7669 223.054 8.9069L225.134 9.4269C225.608 9.55357 226.001 9.72024 226.314 9.9269C226.628 10.1336 226.874 10.3636 227.054 10.6169C227.234 10.8702 227.361 11.1369 227.434 11.4169C227.514 11.6902 227.554 11.9536 227.554 12.2069C227.554 12.8402 227.398 13.3869 227.084 13.8469C226.771 14.3002 226.318 14.6536 225.724 14.9069C225.131 15.1536 224.414 15.2769 223.574 15.2769ZM229.971 15.0769V4.7369H231.761V6.2369C231.928 5.95024 232.158 5.68024 232.451 5.4269C232.751 5.17357 233.111 4.97024 233.531 4.8169C233.958 4.66357 234.448 4.5869 235.001 4.5869C235.655 4.5869 236.255 4.7169 236.801 4.9769C237.355 5.2369 237.795 5.64357 238.121 6.1969C238.455 6.74357 238.621 7.45024 238.621 8.3169V15.0769H236.771V8.4969C236.771 7.69024 236.558 7.09357 236.131 6.7069C235.711 6.31357 235.165 6.1169 234.491 6.1169C234.025 6.1169 233.588 6.19357 233.181 6.3469C232.775 6.49357 232.445 6.72024 232.191 7.0269C231.938 7.3269 231.811 7.7069 231.811 8.1669V15.0769H229.971ZM244.375 15.2769C243.702 15.2769 243.109 15.1602 242.595 14.9269C242.089 14.6869 241.689 14.3436 241.395 13.8969C241.109 13.4502 240.965 12.9102 240.965 12.2769C240.965 11.1302 241.365 10.2769 242.165 9.7169C242.965 9.1569 244.249 8.8569 246.015 8.8169L247.855 8.7669V7.9569C247.855 7.32357 247.665 6.82357 247.285 6.4569C246.905 6.08357 246.319 5.8969 245.525 5.8969C244.932 5.90357 244.409 6.04357 243.955 6.3169C243.502 6.59024 243.212 7.0369 243.085 7.6569H241.455C241.495 6.98357 241.682 6.4169 242.015 5.9569C242.355 5.49024 242.832 5.1369 243.445 4.8969C244.059 4.6569 244.782 4.5369 245.615 4.5369C246.515 4.5369 247.262 4.66357 247.855 4.9169C248.455 5.17024 248.902 5.54357 249.195 6.0369C249.495 6.53024 249.645 7.1369 249.645 7.8569V15.0769H248.065L247.925 13.1369C247.532 13.9436 247.025 14.5036 246.405 14.8169C245.792 15.1236 245.115 15.2769 244.375 15.2769ZM244.925 13.9469C245.279 13.9469 245.625 13.8836 245.965 13.7569C246.312 13.6302 246.625 13.4602 246.905 13.2469C247.192 13.0269 247.422 12.7836 247.595 12.5169C247.769 12.2436 247.855 11.9636 247.855 11.6769V9.9069L246.325 9.9369C245.532 9.95024 244.872 10.0302 244.345 10.1769C243.819 10.3236 243.422 10.5536 243.155 10.8669C242.889 11.1802 242.755 11.5902 242.755 12.0969C242.755 12.6769 242.959 13.1302 243.365 13.4569C243.772 13.7836 244.292 13.9469 244.925 13.9469ZM252.53 18.2969V4.7369H254.37L254.39 6.5369C254.51 6.32357 254.663 6.10024 254.85 5.8669C255.043 5.63357 255.277 5.4169 255.55 5.2169C255.83 5.0169 256.153 4.85357 256.52 4.7269C256.893 4.60024 257.317 4.5369 257.79 4.5369C258.617 4.5369 259.343 4.7269 259.97 5.1069C260.603 5.48024 261.097 6.05357 261.45 6.8269C261.803 7.60024 261.98 8.58024 261.98 9.7669C261.98 10.9536 261.807 11.9569 261.46 12.7769C261.12 13.5902 260.627 14.2102 259.98 14.6369C259.333 15.0636 258.553 15.2769 257.64 15.2769C257.18 15.2769 256.77 15.2102 256.41 15.0769C256.057 14.9502 255.747 14.7836 255.48 14.5769C255.22 14.3636 255 14.1369 254.82 13.8969C254.647 13.6569 254.503 13.4269 254.39 13.2069V18.2969H252.53ZM257.29 13.8369C258.143 13.8369 258.84 13.5136 259.38 12.8669C259.92 12.2136 260.19 11.2002 260.19 9.8269C260.19 8.6469 259.943 7.71024 259.45 7.0169C258.957 6.32357 258.237 5.9769 257.29 5.9769C256.33 5.9769 255.603 6.33357 255.11 7.0469C254.617 7.75357 254.37 8.68024 254.37 9.8269C254.37 10.5669 254.48 11.2402 254.7 11.8469C254.92 12.4536 255.247 12.9369 255.68 13.2969C256.113 13.6569 256.65 13.8369 257.29 13.8369ZM268.105 15.2769C267.385 15.2769 266.715 15.1669 266.095 14.9469C265.482 14.7202 264.972 14.3702 264.565 13.8969C264.159 13.4169 263.905 12.8069 263.805 12.0669H265.485C265.572 12.4736 265.739 12.8136 265.985 13.0869C266.232 13.3536 266.535 13.5569 266.895 13.6969C267.262 13.8302 267.662 13.8969 268.095 13.8969C268.795 13.8969 269.359 13.7669 269.785 13.5069C270.212 13.2469 270.425 12.8469 270.425 12.3069C270.425 11.9269 270.312 11.6236 270.085 11.3969C269.865 11.1636 269.519 10.9936 269.045 10.8869L266.905 10.3569C266.072 10.1569 265.405 9.84357 264.905 9.4169C264.412 8.99024 264.162 8.39357 264.155 7.6269C264.155 7.02024 264.302 6.4869 264.595 6.0269C264.889 5.5669 265.325 5.20357 265.905 4.9369C266.492 4.67024 267.222 4.5369 268.095 4.5369C269.222 4.5369 270.129 4.79024 270.815 5.2969C271.502 5.7969 271.862 6.53357 271.895 7.5069H270.255C270.189 7.01357 269.969 6.62357 269.595 6.3369C269.222 6.04357 268.715 5.8969 268.075 5.8969C267.422 5.8969 266.885 6.03024 266.465 6.2969C266.052 6.5569 265.845 6.96357 265.845 7.5169C265.845 7.88357 265.992 8.17357 266.285 8.3869C266.585 8.59357 267.019 8.7669 267.585 8.9069L269.665 9.4269C270.139 9.55357 270.532 9.72024 270.845 9.9269C271.159 10.1336 271.405 10.3636 271.585 10.6169C271.765 10.8702 271.892 11.1369 271.965 11.4169C272.045 11.6902 272.085 11.9536 272.085 12.2069C272.085 12.8402 271.929 13.3869 271.615 13.8469C271.302 14.3002 270.849 14.6536 270.255 14.9069C269.662 15.1536 268.945 15.2769 268.105 15.2769ZM282.188 15.2769C281.514 15.2769 280.921 15.1602 280.408 14.9269C279.901 14.6869 279.501 14.3436 279.208 13.8969C278.921 13.4502 278.778 12.9102 278.778 12.2769C278.778 11.1302 279.178 10.2769 279.978 9.7169C280.778 9.1569 282.061 8.8569 283.828 8.8169L285.668 8.7669V7.9569C285.668 7.32357 285.478 6.82357 285.098 6.4569C284.718 6.08357 284.131 5.8969 283.338 5.8969C282.744 5.90357 282.221 6.04357 281.768 6.3169C281.314 6.59024 281.024 7.0369 280.898 7.6569H279.268C279.308 6.98357 279.494 6.4169 279.828 5.9569C280.168 5.49024 280.644 5.1369 281.258 4.8969C281.871 4.6569 282.594 4.5369 283.428 4.5369C284.328 4.5369 285.074 4.66357 285.668 4.9169C286.268 5.17024 286.714 5.54357 287.008 6.0369C287.308 6.53024 287.458 7.1369 287.458 7.8569V15.0769H285.878L285.738 13.1369C285.344 13.9436 284.838 14.5036 284.218 14.8169C283.604 15.1236 282.928 15.2769 282.188 15.2769ZM282.738 13.9469C283.091 13.9469 283.438 13.8836 283.778 13.7569C284.124 13.6302 284.438 13.4602 284.718 13.2469C285.004 13.0269 285.234 12.7836 285.408 12.5169C285.581 12.2436 285.668 11.9636 285.668 11.6769V9.9069L284.138 9.9369C283.344 9.95024 282.684 10.0302 282.158 10.1769C281.631 10.3236 281.234 10.5536 280.968 10.8669C280.701 11.1802 280.568 11.5902 280.568 12.0969C280.568 12.6769 280.771 13.1302 281.178 13.4569C281.584 13.7836 282.104 13.9469 282.738 13.9469ZM290.343 15.0769V4.7369H292.133V6.2369C292.299 5.95024 292.529 5.68024 292.823 5.4269C293.123 5.17357 293.483 4.97024 293.903 4.8169C294.329 4.66357 294.819 4.5869 295.373 4.5869C296.026 4.5869 296.626 4.7169 297.173 4.9769C297.726 5.2369 298.166 5.64357 298.493 6.1969C298.826 6.74357 298.993 7.45024 298.993 8.3169V15.0769H297.143V8.4969C297.143 7.69024 296.929 7.09357 296.503 6.7069C296.083 6.31357 295.536 6.1169 294.863 6.1169C294.396 6.1169 293.959 6.19357 293.553 6.3469C293.146 6.49357 292.816 6.72024 292.563 7.0269C292.309 7.3269 292.183 7.7069 292.183 8.1669V15.0769H290.343ZM305.655 15.2769C304.309 15.2769 303.242 14.8169 302.455 13.8969C301.675 12.9769 301.285 11.6336 301.285 9.8669C301.285 8.79357 301.442 7.8569 301.755 7.0569C302.069 6.2569 302.539 5.6369 303.165 5.1969C303.792 4.7569 304.572 4.5369 305.505 4.5369C306.005 4.5369 306.445 4.60024 306.825 4.7269C307.205 4.85357 307.535 5.01357 307.815 5.2069C308.095 5.40024 308.322 5.60024 308.495 5.8069C308.675 6.01357 308.809 6.20357 308.895 6.3769V0.216904H310.765V15.0769H309.345L309.145 12.9569C309.079 13.1569 308.972 13.3902 308.825 13.6569C308.679 13.9169 308.472 14.1736 308.205 14.4269C307.945 14.6736 307.605 14.8769 307.185 15.0369C306.765 15.1969 306.255 15.2769 305.655 15.2769ZM305.985 13.8569C307.025 13.8569 307.769 13.5402 308.215 12.9069C308.669 12.2669 308.895 11.2236 308.895 9.7769C308.889 8.97024 308.789 8.28357 308.595 7.7169C308.402 7.15024 308.095 6.72024 307.675 6.4269C307.262 6.1269 306.709 5.9769 306.015 5.9769C305.169 5.9769 304.479 6.28024 303.945 6.8869C303.412 7.49357 303.145 8.4569 303.145 9.7769C303.145 11.0702 303.385 12.0736 303.865 12.7869C304.345 13.5002 305.052 13.8569 305.985 13.8569ZM322.402 15.2769C321.682 15.2769 321.012 15.1669 320.392 14.9469C319.779 14.7202 319.269 14.3702 318.862 13.8969C318.456 13.4169 318.202 12.8069 318.102 12.0669H319.782C319.869 12.4736 320.036 12.8136 320.282 13.0869C320.529 13.3536 320.832 13.5569 321.192 13.6969C321.559 13.8302 321.959 13.8969 322.392 13.8969C323.092 13.8969 323.656 13.7669 324.082 13.5069C324.509 13.2469 324.722 12.8469 324.722 12.3069C324.722 11.9269 324.609 11.6236 324.382 11.3969C324.162 11.1636 323.816 10.9936 323.342 10.8869L321.202 10.3569C320.369 10.1569 319.702 9.84357 319.202 9.4169C318.709 8.99024 318.459 8.39357 318.452 7.6269C318.452 7.02024 318.599 6.4869 318.892 6.0269C319.186 5.5669 319.622 5.20357 320.202 4.9369C320.789 4.67024 321.519 4.5369 322.392 4.5369C323.519 4.5369 324.426 4.79024 325.112 5.2969C325.799 5.7969 326.159 6.53357 326.192 7.5069H324.552C324.486 7.01357 324.266 6.62357 323.892 6.3369C323.519 6.04357 323.012 5.8969 322.372 5.8969C321.719 5.8969 321.182 6.03024 320.762 6.2969C320.349 6.5569 320.142 6.96357 320.142 7.5169C320.142 7.88357 320.289 8.17357 320.582 8.3869C320.882 8.59357 321.316 8.7669 321.882 8.9069L323.962 9.4269C324.436 9.55357 324.829 9.72024 325.142 9.9269C325.456 10.1336 325.702 10.3636 325.882 10.6169C326.062 10.8702 326.189 11.1369 326.262 11.4169C326.342 11.6902 326.382 11.9536 326.382 12.2069C326.382 12.8402 326.226 13.3869 325.912 13.8469C325.599 14.3002 325.146 14.6536 324.552 14.9069C323.959 15.1536 323.242 15.2769 322.402 15.2769ZM328.8 15.0769V0.216904H330.6V6.2569C330.773 5.97024 331.006 5.70357 331.3 5.4569C331.593 5.20357 331.95 5.00024 332.37 4.8469C332.79 4.6869 333.276 4.6069 333.83 4.6069C334.503 4.6069 335.113 4.73357 335.66 4.9869C336.206 5.23357 336.64 5.5869 336.96 6.0469C337.28 6.5069 337.44 7.05357 337.44 7.6869V15.0769H335.59V8.0569C335.59 7.4369 335.376 6.96024 334.95 6.6269C334.53 6.2869 333.98 6.1169 333.3 6.1169C332.84 6.1169 332.406 6.19357 332 6.3469C331.593 6.49357 331.263 6.72024 331.01 7.0269C330.763 7.3269 330.64 7.71024 330.64 8.1769V15.0769H328.8ZM343.184 15.2769C342.511 15.2769 341.917 15.1602 341.404 14.9269C340.897 14.6869 340.497 14.3436 340.204 13.8969C339.917 13.4502 339.774 12.9102 339.774 12.2769C339.774 11.1302 340.174 10.2769 340.974 9.7169C341.774 9.1569 343.057 8.8569 344.824 8.8169L346.664 8.7669V7.9569C346.664 7.32357 346.474 6.82357 346.094 6.4569C345.714 6.08357 345.127 5.8969 344.334 5.8969C343.741 5.90357 343.217 6.04357 342.764 6.3169C342.311 6.59024 342.021 7.0369 341.894 7.6569H340.264C340.304 6.98357 340.491 6.4169 340.824 5.9569C341.164 5.49024 341.641 5.1369 342.254 4.8969C342.867 4.6569 343.591 4.5369 344.424 4.5369C345.324 4.5369 346.071 4.66357 346.664 4.9169C347.264 5.17024 347.711 5.54357 348.004 6.0369C348.304 6.53024 348.454 7.1369 348.454 7.8569V15.0769H346.874L346.734 13.1369C346.341 13.9436 345.834 14.5036 345.214 14.8169C344.601 15.1236 343.924 15.2769 343.184 15.2769ZM343.734 13.9469C344.087 13.9469 344.434 13.8836 344.774 13.7569C345.121 13.6302 345.434 13.4602 345.714 13.2469C346.001 13.0269 346.231 12.7836 346.404 12.5169C346.577 12.2436 346.664 11.9636 346.664 11.6769V9.9069L345.134 9.9369C344.341 9.95024 343.681 10.0302 343.154 10.1769C342.627 10.3236 342.231 10.5536 341.964 10.8669C341.697 11.1802 341.564 11.5902 341.564 12.0969C341.564 12.6769 341.767 13.1302 342.174 13.4569C342.581 13.7836 343.101 13.9469 343.734 13.9469ZM351.339 15.0769V4.7369H353.099V6.7269C353.272 6.23357 353.515 5.8269 353.829 5.5069C354.142 5.18024 354.499 4.9369 354.899 4.7769C355.305 4.6169 355.725 4.5369 356.159 4.5369C356.312 4.5369 356.462 4.5469 356.609 4.5669C356.755 4.5869 356.869 4.62024 356.949 4.6669V6.4569C356.849 6.41024 356.719 6.38024 356.559 6.3669C356.405 6.3469 356.275 6.3369 356.169 6.3369C355.755 6.31024 355.369 6.3369 355.009 6.4169C354.649 6.49024 354.332 6.62024 354.059 6.8069C353.785 6.99357 353.569 7.24024 353.409 7.5469C353.255 7.8469 353.179 8.21357 353.179 8.6469V15.0769H351.339ZM363.365 15.2769C362.405 15.2769 361.558 15.0669 360.825 14.6469C360.092 14.2269 359.518 13.6236 359.105 12.8369C358.692 12.0502 358.485 11.1069 358.485 10.0069C358.485 8.92024 358.672 7.9669 359.045 7.1469C359.418 6.3269 359.958 5.6869 360.665 5.2269C361.378 4.7669 362.235 4.5369 363.235 4.5369C364.208 4.5369 365.032 4.7469 365.705 5.1669C366.378 5.5869 366.888 6.18024 367.235 6.9469C367.588 7.7069 367.765 8.61024 367.765 9.6569V10.3369H360.355C360.355 10.9902 360.462 11.5836 360.675 12.1169C360.895 12.6436 361.225 13.0636 361.665 13.3769C362.105 13.6902 362.662 13.8469 363.335 13.8469C363.995 13.8469 364.562 13.6936 365.035 13.3869C365.515 13.0802 365.822 12.6369 365.955 12.0569H367.695C367.575 12.7569 367.295 13.3469 366.855 13.8269C366.422 14.3069 365.898 14.6702 365.285 14.9169C364.678 15.1569 364.038 15.2769 363.365 15.2769ZM360.365 9.0869H365.985C365.985 8.49357 365.885 7.96024 365.685 7.4869C365.485 7.0069 365.178 6.63024 364.765 6.3569C364.358 6.0769 363.845 5.9369 363.225 5.9369C362.578 5.9369 362.042 6.09357 361.615 6.4069C361.188 6.71357 360.872 7.11024 360.665 7.5969C360.458 8.0769 360.358 8.57357 360.365 9.0869ZM378.859 15.1269C378.146 15.1269 377.592 15.0302 377.199 14.8369C376.806 14.6436 376.529 14.3569 376.369 13.9769C376.216 13.5969 376.139 13.1302 376.139 12.5769V6.0869H374.459V4.7369H376.189L376.639 1.7269H377.999V4.7269H380.329V6.0869H377.999V12.5169C377.999 12.8836 378.036 13.1536 378.109 13.3269C378.189 13.4936 378.319 13.6002 378.499 13.6469C378.679 13.6936 378.932 13.7169 379.259 13.7169H380.389V14.9569C380.262 15.0036 380.069 15.0436 379.809 15.0769C379.556 15.1102 379.239 15.1269 378.859 15.1269ZM382.843 15.0769V0.216904H384.643V6.2569C384.816 5.97024 385.049 5.70357 385.343 5.4569C385.636 5.20357 385.993 5.00024 386.413 4.8469C386.833 4.6869 387.319 4.6069 387.873 4.6069C388.546 4.6069 389.156 4.73357 389.703 4.9869C390.249 5.23357 390.683 5.5869 391.003 6.0469C391.323 6.5069 391.483 7.05357 391.483 7.6869V15.0769H389.633V8.0569C389.633 7.4369 389.419 6.96024 388.993 6.6269C388.573 6.2869 388.023 6.1169 387.343 6.1169C386.883 6.1169 386.449 6.19357 386.043 6.3469C385.636 6.49357 385.306 6.72024 385.053 7.0269C384.806 7.3269 384.683 7.71024 384.683 8.1769V15.0769H382.843ZM398.736 15.2769C397.776 15.2769 396.929 15.0669 396.196 14.6469C395.463 14.2269 394.889 13.6236 394.476 12.8369C394.063 12.0502 393.856 11.1069 393.856 10.0069C393.856 8.92024 394.043 7.9669 394.416 7.1469C394.789 6.3269 395.329 5.6869 396.036 5.2269C396.749 4.7669 397.606 4.5369 398.606 4.5369C399.579 4.5369 400.403 4.7469 401.076 5.1669C401.749 5.5869 402.259 6.18024 402.606 6.9469C402.959 7.7069 403.136 8.61024 403.136 9.6569V10.3369H395.726C395.726 10.9902 395.833 11.5836 396.046 12.1169C396.266 12.6436 396.596 13.0636 397.036 13.3769C397.476 13.6902 398.033 13.8469 398.706 13.8469C399.366 13.8469 399.933 13.6936 400.406 13.3869C400.886 13.0802 401.193 12.6369 401.326 12.0569H403.066C402.946 12.7569 402.666 13.3469 402.226 13.8269C401.793 14.3069 401.269 14.6702 400.656 14.9169C400.049 15.1569 399.409 15.2769 398.736 15.2769ZM395.736 9.0869H401.356C401.356 8.49357 401.256 7.96024 401.056 7.4869C400.856 7.0069 400.549 6.63024 400.136 6.3569C399.729 6.0769 399.216 5.9369 398.596 5.9369C397.949 5.9369 397.413 6.09357 396.986 6.4069C396.559 6.71357 396.243 7.11024 396.036 7.5969C395.829 8.0769 395.729 8.57357 395.736 9.0869ZM405.744 15.0769V4.7369H407.534V15.0769H405.744ZM405.694 2.5469V0.626904H407.584V2.5469H405.694ZM410.753 15.0769V4.7369H412.513V6.7269C412.686 6.23357 412.929 5.8269 413.243 5.5069C413.556 5.18024 413.913 4.9369 414.313 4.7769C414.719 4.6169 415.139 4.5369 415.573 4.5369C415.726 4.5369 415.876 4.5469 416.023 4.5669C416.169 4.5869 416.283 4.62024 416.363 4.6669V6.4569C416.263 6.41024 416.133 6.38024 415.973 6.3669C415.819 6.3469 415.689 6.3369 415.583 6.3369C415.169 6.31024 414.783 6.3369 414.423 6.4169C414.063 6.49024 413.746 6.62024 413.473 6.8069C413.199 6.99357 412.983 7.24024 412.823 7.5469C412.669 7.8469 412.593 8.21357 412.593 8.6469V15.0769H410.753ZM423.428 15.0769V4.7369H425.208V6.2369C425.495 5.78357 425.888 5.3869 426.388 5.0469C426.888 4.7069 427.538 4.5369 428.338 4.5369C428.712 4.5369 429.092 4.60024 429.478 4.7269C429.872 4.85357 430.232 5.04357 430.558 5.2969C430.885 5.55024 431.138 5.86024 431.318 6.2269C431.638 5.72024 432.072 5.31357 432.618 5.0069C433.165 4.69357 433.782 4.5369 434.468 4.5369C434.828 4.5369 435.205 4.59357 435.598 4.7069C435.992 4.81357 436.355 5.0069 436.688 5.2869C437.028 5.56024 437.305 5.94357 437.518 6.4369C437.732 6.92357 437.838 7.55024 437.838 8.3169V15.0769H435.978V8.4969C435.978 7.87024 435.878 7.3869 435.678 7.0469C435.478 6.70024 435.215 6.4569 434.888 6.3169C434.568 6.1769 434.225 6.1069 433.858 6.1069C433.538 6.1069 433.198 6.17024 432.838 6.2969C432.478 6.42357 432.172 6.6369 431.918 6.9369C431.665 7.2369 431.538 7.6469 431.538 8.1669V15.0769H429.698V7.9569C429.698 7.55024 429.588 7.21024 429.368 6.9369C429.155 6.66357 428.885 6.4569 428.558 6.3169C428.238 6.1769 427.918 6.1069 427.598 6.1069C427.245 6.1069 426.888 6.1769 426.528 6.3169C426.175 6.4569 425.875 6.68024 425.628 6.9869C425.388 7.2869 425.268 7.68024 425.268 8.1669V15.0769H423.428ZM444.873 15.2769C443.92 15.2769 443.086 15.0736 442.373 14.6669C441.666 14.2536 441.116 13.6502 440.723 12.8569C440.33 12.0636 440.133 11.0936 440.133 9.9469C440.133 8.8669 440.316 7.92024 440.683 7.1069C441.05 6.29357 441.586 5.66357 442.293 5.2169C443 4.76357 443.863 4.5369 444.883 4.5369C445.836 4.5369 446.663 4.7469 447.363 5.1669C448.063 5.58024 448.606 6.19024 448.993 6.9969C449.386 7.80357 449.583 8.7869 449.583 9.9469C449.583 11.0002 449.403 11.9269 449.043 12.7269C448.683 13.5269 448.153 14.1536 447.453 14.6069C446.76 15.0536 445.9 15.2769 444.873 15.2769ZM444.883 13.8169C445.496 13.8169 446.016 13.6602 446.443 13.3469C446.87 13.0336 447.193 12.5836 447.413 11.9969C447.64 11.4102 447.753 10.7136 447.753 9.9069C447.753 9.1669 447.653 8.50357 447.453 7.9169C447.26 7.32357 446.953 6.85357 446.533 6.5069C446.113 6.16024 445.563 5.9869 444.883 5.9869C444.256 5.9869 443.726 6.14357 443.293 6.4569C442.86 6.76357 442.53 7.21024 442.303 7.7969C442.083 8.38357 441.973 9.0869 441.973 9.9069C441.973 10.6336 442.07 11.2936 442.263 11.8869C442.463 12.4802 442.776 12.9502 443.203 13.2969C443.636 13.6436 444.196 13.8169 444.883 13.8169ZM455.703 15.2769C454.983 15.2769 454.313 15.1669 453.693 14.9469C453.08 14.7202 452.57 14.3702 452.163 13.8969C451.756 13.4169 451.503 12.8069 451.403 12.0669H453.083C453.17 12.4736 453.336 12.8136 453.583 13.0869C453.83 13.3536 454.133 13.5569 454.493 13.6969C454.86 13.8302 455.26 13.8969 455.693 13.8969C456.393 13.8969 456.956 13.7669 457.383 13.5069C457.81 13.2469 458.023 12.8469 458.023 12.3069C458.023 11.9269 457.91 11.6236 457.683 11.3969C457.463 11.1636 457.116 10.9936 456.643 10.8869L454.503 10.3569C453.67 10.1569 453.003 9.84357 452.503 9.4169C452.01 8.99024 451.76 8.39357 451.753 7.6269C451.753 7.02024 451.9 6.4869 452.193 6.0269C452.486 5.5669 452.923 5.20357 453.503 4.9369C454.09 4.67024 454.82 4.5369 455.693 4.5369C456.82 4.5369 457.726 4.79024 458.413 5.2969C459.1 5.7969 459.46 6.53357 459.493 7.5069H457.853C457.786 7.01357 457.566 6.62357 457.193 6.3369C456.82 6.04357 456.313 5.8969 455.673 5.8969C455.02 5.8969 454.483 6.03024 454.063 6.2969C453.65 6.5569 453.443 6.96357 453.443 7.5169C453.443 7.88357 453.59 8.17357 453.883 8.3869C454.183 8.59357 454.616 8.7669 455.183 8.9069L457.263 9.4269C457.736 9.55357 458.13 9.72024 458.443 9.9269C458.756 10.1336 459.003 10.3636 459.183 10.6169C459.363 10.8702 459.49 11.1369 459.563 11.4169C459.643 11.6902 459.683 11.9536 459.683 12.2069C459.683 12.8402 459.526 13.3869 459.213 13.8469C458.9 14.3002 458.446 14.6536 457.853 14.9069C457.26 15.1536 456.543 15.2769 455.703 15.2769ZM465.675 15.1269C464.962 15.1269 464.409 15.0302 464.015 14.8369C463.622 14.6436 463.345 14.3569 463.185 13.9769C463.032 13.5969 462.955 13.1302 462.955 12.5769V6.0869H461.275V4.7369H463.005L463.455 1.7269H464.815V4.7269H467.145V6.0869H464.815V12.5169C464.815 12.8836 464.852 13.1536 464.925 13.3269C465.005 13.4936 465.135 13.6002 465.315 13.6469C465.495 13.6936 465.749 13.7169 466.075 13.7169H467.205V14.9569C467.079 15.0036 466.885 15.0436 466.625 15.0769C466.372 15.1102 466.055 15.1269 465.675 15.1269ZM477.132 15.2069C476.572 15.2069 476.119 15.1302 475.772 14.9769C475.432 14.8236 475.169 14.6169 474.982 14.3569C474.802 14.0969 474.679 13.8002 474.612 13.4669C474.552 13.1269 474.522 12.7769 474.522 12.4169V0.216904H476.342V12.2369C476.342 12.7569 476.442 13.1469 476.642 13.4069C476.849 13.6669 477.136 13.8102 477.502 13.8369L478.062 13.8469V15.0469C477.909 15.0936 477.749 15.1302 477.582 15.1569C477.416 15.1902 477.266 15.2069 477.132 15.2069ZM484.229 15.2769C483.275 15.2769 482.442 15.0736 481.729 14.6669C481.022 14.2536 480.472 13.6502 480.079 12.8569C479.685 12.0636 479.489 11.0936 479.489 9.9469C479.489 8.8669 479.672 7.92024 480.039 7.1069C480.405 6.29357 480.942 5.66357 481.649 5.2169C482.355 4.76357 483.219 4.5369 484.239 4.5369C485.192 4.5369 486.019 4.7469 486.719 5.1669C487.419 5.58024 487.962 6.19024 488.349 6.9969C488.742 7.80357 488.939 8.7869 488.939 9.9469C488.939 11.0002 488.759 11.9269 488.399 12.7269C488.039 13.5269 487.509 14.1536 486.809 14.6069C486.115 15.0536 485.255 15.2769 484.229 15.2769ZM484.239 13.8169C484.852 13.8169 485.372 13.6602 485.799 13.3469C486.225 13.0336 486.549 12.5836 486.769 11.9969C486.995 11.4102 487.109 10.7136 487.109 9.9069C487.109 9.1669 487.009 8.50357 486.809 7.9169C486.615 7.32357 486.309 6.85357 485.889 6.5069C485.469 6.16024 484.919 5.9869 484.239 5.9869C483.612 5.9869 483.082 6.14357 482.649 6.4569C482.215 6.76357 481.885 7.21024 481.659 7.7969C481.439 8.38357 481.329 9.0869 481.329 9.9069C481.329 10.6336 481.425 11.2936 481.619 11.8869C481.819 12.4802 482.132 12.9502 482.559 13.2969C482.992 13.6436 483.552 13.8169 484.239 13.8169ZM493.882 15.0769L490.142 4.7369H491.882L494.632 12.7569H494.802L497.562 4.7369H499.292L495.572 15.0769H493.882ZM503.965 15.2769C503.292 15.2769 502.698 15.1602 502.185 14.9269C501.678 14.6869 501.278 14.3436 500.985 13.8969C500.698 13.4502 500.555 12.9102 500.555 12.2769C500.555 11.1302 500.955 10.2769 501.755 9.7169C502.555 9.1569 503.838 8.8569 505.605 8.8169L507.445 8.7669V7.9569C507.445 7.32357 507.255 6.82357 506.875 6.4569C506.495 6.08357 505.908 5.8969 505.115 5.8969C504.522 5.90357 503.998 6.04357 503.545 6.3169C503.092 6.59024 502.802 7.0369 502.675 7.6569H501.045C501.085 6.98357 501.272 6.4169 501.605 5.9569C501.945 5.49024 502.422 5.1369 503.035 4.8969C503.648 4.6569 504.372 4.5369 505.205 4.5369C506.105 4.5369 506.852 4.66357 507.445 4.9169C508.045 5.17024 508.492 5.54357 508.785 6.0369C509.085 6.53024 509.235 7.1369 509.235 7.8569V15.0769H507.655L507.515 13.1369C507.122 13.9436 506.615 14.5036 505.995 14.8169C505.382 15.1236 504.705 15.2769 503.965 15.2769ZM504.515 13.9469C504.868 13.9469 505.215 13.8836 505.555 13.7569C505.902 13.6302 506.215 13.4602 506.495 13.2469C506.782 13.0269 507.012 12.7836 507.185 12.5169C507.358 12.2436 507.445 11.9636 507.445 11.6769V9.9069L505.915 9.9369C505.122 9.95024 504.462 10.0302 503.935 10.1769C503.408 10.3236 503.012 10.5536 502.745 10.8669C502.478 11.1802 502.345 11.5902 502.345 12.0969C502.345 12.6769 502.548 13.1302 502.955 13.4569C503.362 13.7836 503.882 13.9469 504.515 13.9469ZM517.23 15.2769C516.623 15.2769 516.11 15.1969 515.69 15.0369C515.277 14.8769 514.937 14.6736 514.67 14.4269C514.403 14.1736 514.197 13.9169 514.05 13.6569C513.903 13.3902 513.797 13.1569 513.73 12.9569L513.53 15.0769H512.12V0.216904H513.98V6.3769C514.067 6.20357 514.197 6.01357 514.37 5.8069C514.55 5.60024 514.78 5.40024 515.06 5.2069C515.34 5.01357 515.67 4.85357 516.05 4.7269C516.437 4.60024 516.877 4.5369 517.37 4.5369C518.663 4.5369 519.69 4.9869 520.45 5.8869C521.217 6.7869 521.6 8.11357 521.6 9.8669C521.6 10.9536 521.437 11.9036 521.11 12.7169C520.783 13.5236 520.297 14.1536 519.65 14.6069C519.003 15.0536 518.197 15.2769 517.23 15.2769ZM516.9 13.8569C517.74 13.8569 518.423 13.5336 518.95 12.8869C519.477 12.2336 519.74 11.1969 519.74 9.7769C519.74 8.57024 519.493 7.6369 519 6.9769C518.513 6.31024 517.8 5.9769 516.86 5.9769C516.173 5.9769 515.62 6.1269 515.2 6.4269C514.787 6.72024 514.48 7.15024 514.28 7.7169C514.087 8.28357 513.987 8.97024 513.98 9.7769C513.98 11.2236 514.203 12.2669 514.65 12.9069C515.103 13.5402 515.853 13.8569 516.9 13.8569ZM526.663 15.2069C526.103 15.2069 525.65 15.1302 525.303 14.9769C524.963 14.8236 524.7 14.6169 524.513 14.3569C524.333 14.0969 524.21 13.8002 524.143 13.4669C524.083 13.1269 524.053 12.7769 524.053 12.4169V0.216904H525.873V12.2369C525.873 12.7569 525.973 13.1469 526.173 13.4069C526.38 13.6669 526.667 13.8102 527.033 13.8369L527.593 13.8469V15.0469C527.44 15.0936 527.28 15.1302 527.113 15.1569C526.947 15.1902 526.797 15.2069 526.663 15.2069ZM533.99 15.2769C533.03 15.2769 532.183 15.0669 531.45 14.6469C530.717 14.2269 530.143 13.6236 529.73 12.8369C529.317 12.0502 529.11 11.1069 529.11 10.0069C529.11 8.92024 529.297 7.9669 529.67 7.1469C530.043 6.3269 530.583 5.6869 531.29 5.2269C532.003 4.7669 532.86 4.5369 533.86 4.5369C534.833 4.5369 535.657 4.7469 536.33 5.1669C537.003 5.5869 537.513 6.18024 537.86 6.9469C538.213 7.7069 538.39 8.61024 538.39 9.6569V10.3369H530.98C530.98 10.9902 531.087 11.5836 531.3 12.1169C531.52 12.6436 531.85 13.0636 532.29 13.3769C532.73 13.6902 533.287 13.8469 533.96 13.8469C534.62 13.8469 535.187 13.6936 535.66 13.3869C536.14 13.0802 536.447 12.6369 536.58 12.0569H538.32C538.2 12.7569 537.92 13.3469 537.48 13.8269C537.047 14.3069 536.523 14.6702 535.91 14.9169C535.303 15.1569 534.663 15.2769 533.99 15.2769ZM530.99 9.0869H536.61C536.61 8.49357 536.51 7.96024 536.31 7.4869C536.11 7.0069 535.803 6.63024 535.39 6.3569C534.983 6.0769 534.47 5.9369 533.85 5.9369C533.203 5.9369 532.667 6.09357 532.24 6.4069C531.813 6.71357 531.497 7.11024 531.29 7.5969C531.083 8.0769 530.983 8.57357 530.99 9.0869ZM545.694 15.0769V4.7369H547.474V6.2369C547.761 5.78357 548.154 5.3869 548.654 5.0469C549.154 4.7069 549.804 4.5369 550.604 4.5369C550.977 4.5369 551.357 4.60024 551.744 4.7269C552.137 4.85357 552.497 5.04357 552.824 5.2969C553.151 5.55024 553.404 5.86024 553.584 6.2269C553.904 5.72024 554.337 5.31357 554.884 5.0069C555.431 4.69357 556.047 4.5369 556.734 4.5369C557.094 4.5369 557.471 4.59357 557.864 4.7069C558.257 4.81357 558.621 5.0069 558.954 5.2869C559.294 5.56024 559.571 5.94357 559.784 6.4369C559.997 6.92357 560.104 7.55024 560.104 8.3169V15.0769H558.244V8.4969C558.244 7.87024 558.144 7.3869 557.944 7.0469C557.744 6.70024 557.481 6.4569 557.154 6.3169C556.834 6.1769 556.491 6.1069 556.124 6.1069C555.804 6.1069 555.464 6.17024 555.104 6.2969C554.744 6.42357 554.437 6.6369 554.184 6.9369C553.931 7.2369 553.804 7.6469 553.804 8.1669V15.0769H551.964V7.9569C551.964 7.55024 551.854 7.21024 551.634 6.9369C551.421 6.66357 551.151 6.4569 550.824 6.3169C550.504 6.1769 550.184 6.1069 549.864 6.1069C549.511 6.1069 549.154 6.1769 548.794 6.3169C548.441 6.4569 548.141 6.68024 547.894 6.9869C547.654 7.2869 547.534 7.68024 547.534 8.1669V15.0769H545.694ZM567.139 15.2769C566.185 15.2769 565.352 15.0736 564.639 14.6669C563.932 14.2536 563.382 13.6502 562.989 12.8569C562.595 12.0636 562.399 11.0936 562.399 9.9469C562.399 8.8669 562.582 7.92024 562.949 7.1069C563.315 6.29357 563.852 5.66357 564.559 5.2169C565.265 4.76357 566.129 4.5369 567.149 4.5369C568.102 4.5369 568.929 4.7469 569.629 5.1669C570.329 5.58024 570.872 6.19024 571.259 6.9969C571.652 7.80357 571.849 8.7869 571.849 9.9469C571.849 11.0002 571.669 11.9269 571.309 12.7269C570.949 13.5269 570.419 14.1536 569.719 14.6069C569.025 15.0536 568.165 15.2769 567.139 15.2769ZM567.149 13.8169C567.762 13.8169 568.282 13.6602 568.709 13.3469C569.135 13.0336 569.459 12.5836 569.679 11.9969C569.905 11.4102 570.019 10.7136 570.019 9.9069C570.019 9.1669 569.919 8.50357 569.719 7.9169C569.525 7.32357 569.219 6.85357 568.799 6.5069C568.379 6.16024 567.829 5.9869 567.149 5.9869C566.522 5.9869 565.992 6.14357 565.559 6.4569C565.125 6.76357 564.795 7.21024 564.569 7.7969C564.349 8.38357 564.239 9.0869 564.239 9.9069C564.239 10.6336 564.335 11.2936 564.529 11.8869C564.729 12.4802 565.042 12.9502 565.469 13.2969C565.902 13.6436 566.462 13.8169 567.149 13.8169ZM574.307 15.0769V4.7369H576.087V6.2369C576.374 5.78357 576.767 5.3869 577.267 5.0469C577.767 4.7069 578.417 4.5369 579.217 4.5369C579.591 4.5369 579.971 4.60024 580.357 4.7269C580.751 4.85357 581.111 5.04357 581.437 5.2969C581.764 5.55024 582.017 5.86024 582.197 6.2269C582.517 5.72024 582.951 5.31357 583.497 5.0069C584.044 4.69357 584.661 4.5369 585.347 4.5369C585.707 4.5369 586.084 4.59357 586.477 4.7069C586.871 4.81357 587.234 5.0069 587.567 5.2869C587.907 5.56024 588.184 5.94357 588.397 6.4369C588.611 6.92357 588.717 7.55024 588.717 8.3169V15.0769H586.857V8.4969C586.857 7.87024 586.757 7.3869 586.557 7.0469C586.357 6.70024 586.094 6.4569 585.767 6.3169C585.447 6.1769 585.104 6.1069 584.737 6.1069C584.417 6.1069 584.077 6.17024 583.717 6.2969C583.357 6.42357 583.051 6.6369 582.797 6.9369C582.544 7.2369 582.417 7.6469 582.417 8.1669V15.0769H580.577V7.9569C580.577 7.55024 580.467 7.21024 580.247 6.9369C580.034 6.66357 579.764 6.4569 579.437 6.3169C579.117 6.1769 578.797 6.1069 578.477 6.1069C578.124 6.1069 577.767 6.1769 577.407 6.3169C577.054 6.4569 576.754 6.68024 576.507 6.9869C576.267 7.2869 576.147 7.68024 576.147 8.1669V15.0769H574.307ZM595.982 15.2769C595.022 15.2769 594.175 15.0669 593.442 14.6469C592.709 14.2269 592.135 13.6236 591.722 12.8369C591.309 12.0502 591.102 11.1069 591.102 10.0069C591.102 8.92024 591.289 7.9669 591.662 7.1469C592.035 6.3269 592.575 5.6869 593.282 5.2269C593.995 4.7669 594.852 4.5369 595.852 4.5369C596.825 4.5369 597.649 4.7469 598.322 5.1669C598.995 5.5869 599.505 6.18024 599.852 6.9469C600.205 7.7069 600.382 8.61024 600.382 9.6569V10.3369H592.972C592.972 10.9902 593.079 11.5836 593.292 12.1169C593.512 12.6436 593.842 13.0636 594.282 13.3769C594.722 13.6902 595.279 13.8469 595.952 13.8469C596.612 13.8469 597.179 13.6936 597.652 13.3869C598.132 13.0802 598.439 12.6369 598.572 12.0569H600.312C600.192 12.7569 599.912 13.3469 599.472 13.8269C599.039 14.3069 598.515 14.6702 597.902 14.9169C597.295 15.1569 596.655 15.2769 595.982 15.2769ZM592.982 9.0869H598.602C598.602 8.49357 598.502 7.96024 598.302 7.4869C598.102 7.0069 597.795 6.63024 597.382 6.3569C596.975 6.0769 596.462 5.9369 595.842 5.9369C595.195 5.9369 594.659 6.09357 594.232 6.4069C593.805 6.71357 593.489 7.11024 593.282 7.5969C593.075 8.0769 592.975 8.57357 592.982 9.0869ZM602.94 15.0769V4.7369H604.73V6.2369C604.897 5.95024 605.127 5.68024 605.42 5.4269C605.72 5.17357 606.08 4.97024 606.5 4.8169C606.927 4.66357 607.417 4.5869 607.97 4.5869C608.623 4.5869 609.223 4.7169 609.77 4.9769C610.323 5.2369 610.763 5.64357 611.09 6.1969C611.423 6.74357 611.59 7.45024 611.59 8.3169V15.0769H609.74V8.4969C609.74 7.69024 609.527 7.09357 609.1 6.7069C608.68 6.31357 608.133 6.1169 607.46 6.1169C606.993 6.1169 606.557 6.19357 606.15 6.3469C605.743 6.49357 605.413 6.72024 605.16 7.0269C604.907 7.3269 604.78 7.7069 604.78 8.1669V15.0769H602.94ZM617.843 15.1269C617.13 15.1269 616.577 15.0302 616.183 14.8369C615.79 14.6436 615.513 14.3569 615.353 13.9769C615.2 13.5969 615.123 13.1302 615.123 12.5769V6.0869H613.443V4.7369H615.173L615.623 1.7269H616.983V4.7269H619.313V6.0869H616.983V12.5169C616.983 12.8836 617.02 13.1536 617.093 13.3269C617.173 13.4936 617.303 13.6002 617.483 13.6469C617.663 13.6936 617.917 13.7169 618.243 13.7169H619.373V14.9569C619.247 15.0036 619.053 15.0436 618.793 15.0769C618.54 15.1102 618.223 15.1269 617.843 15.1269ZM625.508 15.2769C624.788 15.2769 624.118 15.1669 623.498 14.9469C622.884 14.7202 622.374 14.3702 621.968 13.8969C621.561 13.4169 621.308 12.8069 621.208 12.0669H622.888C622.974 12.4736 623.141 12.8136 623.388 13.0869C623.634 13.3536 623.938 13.5569 624.298 13.6969C624.664 13.8302 625.064 13.8969 625.498 13.8969C626.198 13.8969 626.761 13.7669 627.188 13.5069C627.614 13.2469 627.828 12.8469 627.828 12.3069C627.828 11.9269 627.714 11.6236 627.488 11.3969C627.268 11.1636 626.921 10.9936 626.448 10.8869L624.308 10.3569C623.474 10.1569 622.808 9.84357 622.308 9.4169C621.814 8.99024 621.564 8.39357 621.558 7.6269C621.558 7.02024 621.704 6.4869 621.998 6.0269C622.291 5.5669 622.728 5.20357 623.308 4.9369C623.894 4.67024 624.624 4.5369 625.498 4.5369C626.624 4.5369 627.531 4.79024 628.218 5.2969C628.904 5.7969 629.264 6.53357 629.298 7.5069H627.658C627.591 7.01357 627.371 6.62357 626.998 6.3369C626.624 6.04357 626.118 5.8969 625.478 5.8969C624.824 5.8969 624.288 6.03024 623.868 6.2969C623.454 6.5569 623.248 6.96357 623.248 7.5169C623.248 7.88357 623.394 8.17357 623.688 8.3869C623.988 8.59357 624.421 8.7669 624.988 8.9069L627.068 9.4269C627.541 9.55357 627.934 9.72024 628.248 9.9269C628.561 10.1336 628.808 10.3636 628.988 10.6169C629.168 10.8702 629.294 11.1369 629.368 11.4169C629.448 11.6902 629.488 11.9536 629.488 12.2069C629.488 12.8402 629.331 13.3869 629.018 13.8469C628.704 14.3002 628.251 14.6536 627.658 14.9069C627.064 15.1536 626.348 15.2769 625.508 15.2769ZM634.437 10.7969V9.3369L649.357 9.3269V10.7769L634.437 10.7969ZM110.334 39.1269C109.62 39.1269 109.067 39.0302 108.674 38.8369C108.28 38.6436 108.004 38.3569 107.844 37.9769C107.69 37.5969 107.614 37.1302 107.614 36.5769V30.0869H105.934V28.7369H107.664L108.114 25.7269H109.474V28.7269H111.804V30.0869H109.474V36.5169C109.474 36.8836 109.51 37.1536 109.584 37.3269C109.664 37.4936 109.794 37.6002 109.974 37.6469C110.154 37.6936 110.407 37.7169 110.734 37.7169H111.864V38.9569C111.737 39.0036 111.544 39.0436 111.284 39.0769C111.03 39.1102 110.714 39.1269 110.334 39.1269ZM114.317 39.0769V24.2169H116.117V30.2569C116.29 29.9702 116.524 29.7036 116.817 29.4569C117.11 29.2036 117.467 29.0002 117.887 28.8469C118.307 28.6869 118.794 28.6069 119.347 28.6069C120.02 28.6069 120.63 28.7336 121.177 28.9869C121.724 29.2336 122.157 29.5869 122.477 30.0469C122.797 30.5069 122.957 31.0536 122.957 31.6869V39.0769H121.107V32.0569C121.107 31.4369 120.894 30.9602 120.467 30.6269C120.047 30.2869 119.497 30.1169 118.817 30.1169C118.357 30.1169 117.924 30.1936 117.517 30.3469C117.11 30.4936 116.78 30.7202 116.527 31.0269C116.28 31.3269 116.157 31.7102 116.157 32.1769V39.0769H114.317ZM130.211 39.2769C129.251 39.2769 128.404 39.0669 127.671 38.6469C126.937 38.2269 126.364 37.6236 125.951 36.8369C125.537 36.0502 125.331 35.1069 125.331 34.0069C125.331 32.9202 125.517 31.9669 125.891 31.1469C126.264 30.3269 126.804 29.6869 127.511 29.2269C128.224 28.7669 129.081 28.5369 130.081 28.5369C131.054 28.5369 131.877 28.7469 132.551 29.1669C133.224 29.5869 133.734 30.1802 134.081 30.9469C134.434 31.7069 134.611 32.6102 134.611 33.6569V34.3369H127.201C127.201 34.9902 127.307 35.5836 127.521 36.1169C127.741 36.6436 128.071 37.0636 128.511 37.3769C128.951 37.6902 129.507 37.8469 130.181 37.8469C130.841 37.8469 131.407 37.6936 131.881 37.3869C132.361 37.0802 132.667 36.6369 132.801 36.0569H134.541C134.421 36.7569 134.141 37.3469 133.701 37.8269C133.267 38.3069 132.744 38.6702 132.131 38.9169C131.524 39.1569 130.884 39.2769 130.211 39.2769ZM127.211 33.0869H132.831C132.831 32.4936 132.731 31.9602 132.531 31.4869C132.331 31.0069 132.024 30.6302 131.611 30.3569C131.204 30.0769 130.691 29.9369 130.071 29.9369C129.424 29.9369 128.887 30.0936 128.461 30.4069C128.034 30.7136 127.717 31.1102 127.511 31.5969C127.304 32.0769 127.204 32.5736 127.211 33.0869ZM138.062 42.3769C137.455 42.3769 137.039 42.3336 136.812 42.2469C136.585 42.1602 136.472 42.1169 136.472 42.1169V40.9169L137.532 40.9369C137.912 40.9502 138.229 40.9236 138.482 40.8569C138.735 40.7902 138.939 40.7002 139.092 40.5869C139.245 40.4736 139.362 40.3469 139.442 40.2069C139.529 40.0669 139.599 39.9336 139.652 39.8069L140.012 38.8269L135.972 28.7369H137.842L140.892 36.7169L143.922 28.7369H145.732L141.382 39.8569C141.109 40.5102 140.805 41.0202 140.472 41.3869C140.145 41.7536 139.779 42.0102 139.372 42.1569C138.972 42.3036 138.535 42.3769 138.062 42.3769ZM152.52 39.0769V28.7369H154.3V30.2369C154.587 29.7836 154.98 29.3869 155.48 29.0469C155.98 28.7069 156.63 28.5369 157.43 28.5369C157.804 28.5369 158.184 28.6002 158.57 28.7269C158.964 28.8536 159.324 29.0436 159.65 29.2969C159.977 29.5502 160.23 29.8602 160.41 30.2269C160.73 29.7202 161.164 29.3136 161.71 29.0069C162.257 28.6936 162.874 28.5369 163.56 28.5369C163.92 28.5369 164.297 28.5936 164.69 28.7069C165.084 28.8136 165.447 29.0069 165.78 29.2869C166.12 29.5602 166.397 29.9436 166.61 30.4369C166.824 30.9236 166.93 31.5502 166.93 32.3169V39.0769H165.07V32.4969C165.07 31.8702 164.97 31.3869 164.77 31.0469C164.57 30.7002 164.307 30.4569 163.98 30.3169C163.66 30.1769 163.317 30.1069 162.95 30.1069C162.63 30.1069 162.29 30.1702 161.93 30.2969C161.57 30.4236 161.264 30.6369 161.01 30.9369C160.757 31.2369 160.63 31.6469 160.63 32.1669V39.0769H158.79V31.9569C158.79 31.5502 158.68 31.2102 158.46 30.9369C158.247 30.6636 157.977 30.4569 157.65 30.3169C157.33 30.1769 157.01 30.1069 156.69 30.1069C156.337 30.1069 155.98 30.1769 155.62 30.3169C155.267 30.4569 154.967 30.6802 154.72 30.9869C154.48 31.2869 154.36 31.6802 154.36 32.1669V39.0769H152.52ZM169.875 39.0769V28.7369H171.665V39.0769H169.875ZM169.825 26.5469V24.6269H171.715V26.5469H169.825ZM179.097 42.4969C177.477 42.4969 176.214 42.2602 175.307 41.7869C174.401 41.3202 173.947 40.6502 173.947 39.7769C173.947 39.4036 174.034 39.0869 174.207 38.8269C174.381 38.5602 174.587 38.3402 174.827 38.1669C175.067 37.9936 175.291 37.8569 175.497 37.7569C175.704 37.6502 175.841 37.5736 175.907 37.5269C175.787 37.4602 175.644 37.3769 175.477 37.2769C175.311 37.1769 175.161 37.0436 175.027 36.8769C174.901 36.7102 174.837 36.4936 174.837 36.2269C174.837 35.9002 174.991 35.6002 175.297 35.3269C175.604 35.0536 176.061 34.8502 176.667 34.7169C176.061 34.4102 175.587 34.0036 175.247 33.4969C174.907 32.9902 174.737 32.4402 174.737 31.8469C174.737 31.1802 174.917 30.6002 175.277 30.1069C175.637 29.6136 176.154 29.2369 176.827 28.9769C177.501 28.7102 178.304 28.5769 179.237 28.5769C179.911 28.5769 180.474 28.6569 180.927 28.8169C181.387 28.9702 181.814 29.1902 182.207 29.4769C182.314 29.4302 182.484 29.3602 182.717 29.2669C182.951 29.1669 183.204 29.0602 183.477 28.9469C183.757 28.8336 184.017 28.7269 184.257 28.6269C184.504 28.5202 184.701 28.4402 184.847 28.3869L184.837 30.0969L183.027 30.4369C183.134 30.6502 183.217 30.8836 183.277 31.1369C183.337 31.3902 183.367 31.6269 183.367 31.8469C183.367 32.4536 183.207 33.0036 182.887 33.4969C182.574 33.9902 182.097 34.3836 181.457 34.6769C180.817 34.9702 180.017 35.1169 179.057 35.1169C178.977 35.1169 178.874 35.1169 178.747 35.1169C178.627 35.1102 178.524 35.1036 178.437 35.0969C177.731 35.1169 177.244 35.1969 176.977 35.3369C176.717 35.4702 176.587 35.6202 176.587 35.7869C176.587 35.9802 176.737 36.1136 177.037 36.1869C177.337 36.2602 177.844 36.3236 178.557 36.3769C178.817 36.3902 179.137 36.4069 179.517 36.4269C179.904 36.4469 180.334 36.4736 180.807 36.5069C181.887 36.5736 182.721 36.8502 183.307 37.3369C183.894 37.8236 184.187 38.4802 184.187 39.3069C184.187 40.2469 183.767 41.0136 182.927 41.6069C182.094 42.2002 180.817 42.4969 179.097 42.4969ZM179.427 41.3069C180.381 41.3069 181.111 41.1636 181.617 40.8769C182.131 40.5902 182.387 40.1569 182.387 39.5769C182.387 39.1636 182.231 38.8269 181.917 38.5669C181.604 38.3002 181.131 38.1469 180.497 38.1069L177.597 37.9169C177.337 37.9036 177.067 37.9702 176.787 38.1169C176.507 38.2569 176.271 38.4536 176.077 38.7069C175.884 38.9602 175.787 39.2469 175.787 39.5669C175.787 40.1136 176.084 40.5402 176.677 40.8469C177.271 41.1536 178.187 41.3069 179.427 41.3069ZM179.117 33.9269C179.857 33.9269 180.454 33.7536 180.907 33.4069C181.367 33.0602 181.597 32.5469 181.597 31.8669C181.597 31.1669 181.367 30.6336 180.907 30.2669C180.454 29.9002 179.857 29.7169 179.117 29.7169C178.357 29.7169 177.744 29.9036 177.277 30.2769C176.817 30.6436 176.587 31.1736 176.587 31.8669C176.587 32.5202 176.807 33.0269 177.247 33.3869C177.694 33.7469 178.317 33.9269 179.117 33.9269ZM187.169 39.0769V24.2169H188.969V30.2569C189.142 29.9702 189.375 29.7036 189.669 29.4569C189.962 29.2036 190.319 29.0002 190.739 28.8469C191.159 28.6869 191.645 28.6069 192.199 28.6069C192.872 28.6069 193.482 28.7336 194.029 28.9869C194.575 29.2336 195.009 29.5869 195.329 30.0469C195.649 30.5069 195.809 31.0536 195.809 31.6869V39.0769H193.959V32.0569C193.959 31.4369 193.745 30.9602 193.319 30.6269C192.899 30.2869 192.349 30.1169 191.669 30.1169C191.209 30.1169 190.775 30.1936 190.369 30.3469C189.962 30.4936 189.632 30.7202 189.379 31.0269C189.132 31.3269 189.009 31.7102 189.009 32.1769V39.0769H187.169ZM202.052 39.1269C201.339 39.1269 200.786 39.0302 200.392 38.8369C199.999 38.6436 199.722 38.3569 199.562 37.9769C199.409 37.5969 199.332 37.1302 199.332 36.5769V30.0869H197.652V28.7369H199.382L199.832 25.7269H201.192V28.7269H203.522V30.0869H201.192V36.5169C201.192 36.8836 201.229 37.1536 201.302 37.3269C201.382 37.4936 201.512 37.6002 201.692 37.6469C201.872 37.6936 202.126 37.7169 202.452 37.7169H203.582V38.9569C203.456 39.0036 203.262 39.0436 203.002 39.0769C202.749 39.1102 202.432 39.1269 202.052 39.1269ZM210.209 42.3969C209.642 42.3969 209.286 42.3569 209.139 42.2769C208.986 42.1969 208.909 42.1569 208.909 42.1569V40.9269L209.929 40.8769C210.396 40.8436 210.722 40.7202 210.909 40.5069C211.096 40.2936 211.189 39.9502 211.189 39.4769V28.7369H213.039V39.5369C213.039 40.5036 212.829 41.2202 212.409 41.6869C211.996 42.1602 211.262 42.3969 210.209 42.3969ZM211.129 26.5469V24.6269H213.089V26.5469H211.129ZM219.953 39.2769C219.413 39.2702 218.903 39.1936 218.423 39.0469C217.95 38.8936 217.53 38.6702 217.163 38.3769C216.796 38.0836 216.506 37.7202 216.293 37.2869C216.086 36.8469 215.983 36.3369 215.983 35.7569V28.7369H217.833V35.5669C217.833 36.2402 218.04 36.7869 218.453 37.2069C218.873 37.6269 219.503 37.8369 220.343 37.8369C221.103 37.8369 221.713 37.6402 222.173 37.2469C222.64 36.8469 222.873 36.2536 222.873 35.4669V28.7369H224.713V39.0769H223.243L223.053 37.0969C222.926 37.6169 222.71 38.0369 222.403 38.3569C222.103 38.6769 221.74 38.9136 221.313 39.0669C220.893 39.2136 220.44 39.2836 219.953 39.2769ZM231.475 39.2769C230.755 39.2769 230.085 39.1669 229.465 38.9469C228.851 38.7202 228.341 38.3702 227.935 37.8969C227.528 37.4169 227.275 36.8069 227.175 36.0669H228.855C228.941 36.4736 229.108 36.8136 229.355 37.0869C229.601 37.3536 229.905 37.5569 230.265 37.6969C230.631 37.8302 231.031 37.8969 231.465 37.8969C232.165 37.8969 232.728 37.7669 233.155 37.5069C233.581 37.2469 233.795 36.8469 233.795 36.3069C233.795 35.9269 233.681 35.6236 233.455 35.3969C233.235 35.1636 232.888 34.9936 232.415 34.8869L230.275 34.3569C229.441 34.1569 228.775 33.8436 228.275 33.4169C227.781 32.9902 227.531 32.3936 227.525 31.6269C227.525 31.0202 227.671 30.4869 227.965 30.0269C228.258 29.5669 228.695 29.2036 229.275 28.9369C229.861 28.6702 230.591 28.5369 231.465 28.5369C232.591 28.5369 233.498 28.7902 234.185 29.2969C234.871 29.7969 235.231 30.5336 235.265 31.5069H233.625C233.558 31.0136 233.338 30.6236 232.965 30.3369C232.591 30.0436 232.085 29.8969 231.445 29.8969C230.791 29.8969 230.255 30.0302 229.835 30.2969C229.421 30.5569 229.215 30.9636 229.215 31.5169C229.215 31.8836 229.361 32.1736 229.655 32.3869C229.955 32.5936 230.388 32.7669 230.955 32.9069L233.035 33.4269C233.508 33.5536 233.901 33.7202 234.215 33.9269C234.528 34.1336 234.775 34.3636 234.955 34.6169C235.135 34.8702 235.261 35.1369 235.335 35.4169C235.415 35.6902 235.455 35.9536 235.455 36.2069C235.455 36.8402 235.298 37.3869 234.985 37.8469C234.671 38.3002 234.218 38.6536 233.625 38.9069C233.031 39.1536 232.315 39.2769 231.475 39.2769ZM241.447 39.1269C240.734 39.1269 240.18 39.0302 239.787 38.8369C239.394 38.6436 239.117 38.3569 238.957 37.9769C238.804 37.5969 238.727 37.1302 238.727 36.5769V30.0869H237.047V28.7369H238.777L239.227 25.7269H240.587V28.7269H242.917V30.0869H240.587V36.5169C240.587 36.8836 240.624 37.1536 240.697 37.3269C240.777 37.4936 240.907 37.6002 241.087 37.6469C241.267 37.6936 241.52 37.7169 241.847 37.7169H242.977V38.9569C242.85 39.0036 242.657 39.0436 242.397 39.0769C242.144 39.1102 241.827 39.1269 241.447 39.1269ZM254.014 39.2769C253.294 39.2769 252.624 39.1669 252.004 38.9469C251.39 38.7202 250.88 38.3702 250.474 37.8969C250.067 37.4169 249.814 36.8069 249.714 36.0669H251.394C251.48 36.4736 251.647 36.8136 251.894 37.0869C252.14 37.3536 252.444 37.5569 252.804 37.6969C253.17 37.8302 253.57 37.8969 254.004 37.8969C254.704 37.8969 255.267 37.7669 255.694 37.5069C256.12 37.2469 256.334 36.8469 256.334 36.3069C256.334 35.9269 256.22 35.6236 255.994 35.3969C255.774 35.1636 255.427 34.9936 254.954 34.8869L252.814 34.3569C251.98 34.1569 251.314 33.8436 250.814 33.4169C250.32 32.9902 250.07 32.3936 250.064 31.6269C250.064 31.0202 250.21 30.4869 250.504 30.0269C250.797 29.5669 251.234 29.2036 251.814 28.9369C252.4 28.6702 253.13 28.5369 254.004 28.5369C255.13 28.5369 256.037 28.7902 256.724 29.2969C257.41 29.7969 257.77 30.5336 257.804 31.5069H256.164C256.097 31.0136 255.877 30.6236 255.504 30.3369C255.13 30.0436 254.624 29.8969 253.984 29.8969C253.33 29.8969 252.794 30.0302 252.374 30.2969C251.96 30.5569 251.754 30.9636 251.754 31.5169C251.754 31.8836 251.9 32.1736 252.194 32.3869C252.494 32.5936 252.927 32.7669 253.494 32.9069L255.574 33.4269C256.047 33.5536 256.44 33.7202 256.754 33.9269C257.067 34.1336 257.314 34.3636 257.494 34.6169C257.674 34.8702 257.8 35.1369 257.874 35.4169C257.954 35.6902 257.994 35.9536 257.994 36.2069C257.994 36.8402 257.837 37.3869 257.524 37.8469C257.21 38.3002 256.757 38.6536 256.164 38.9069C255.57 39.1536 254.854 39.2769 254.014 39.2769ZM263.986 39.1269C263.273 39.1269 262.719 39.0302 262.326 38.8369C261.933 38.6436 261.656 38.3569 261.496 37.9769C261.343 37.5969 261.266 37.1302 261.266 36.5769V30.0869H259.586V28.7369H261.316L261.766 25.7269H263.126V28.7269H265.456V30.0869H263.126V36.5169C263.126 36.8836 263.163 37.1536 263.236 37.3269C263.316 37.4936 263.446 37.6002 263.626 37.6469C263.806 37.6936 264.059 37.7169 264.386 37.7169H265.516V38.9569C265.389 39.0036 265.196 39.0436 264.936 39.0769C264.683 39.1102 264.366 39.1269 263.986 39.1269ZM272.066 39.2769C271.106 39.2769 270.259 39.0669 269.526 38.6469C268.793 38.2269 268.219 37.6236 267.806 36.8369C267.393 36.0502 267.186 35.1069 267.186 34.0069C267.186 32.9202 267.373 31.9669 267.746 31.1469C268.119 30.3269 268.659 29.6869 269.366 29.2269C270.079 28.7669 270.936 28.5369 271.936 28.5369C272.909 28.5369 273.733 28.7469 274.406 29.1669C275.079 29.5869 275.589 30.1802 275.936 30.9469C276.289 31.7069 276.466 32.6102 276.466 33.6569V34.3369H269.056C269.056 34.9902 269.163 35.5836 269.376 36.1169C269.596 36.6436 269.926 37.0636 270.366 37.3769C270.806 37.6902 271.363 37.8469 272.036 37.8469C272.696 37.8469 273.263 37.6936 273.736 37.3869C274.216 37.0802 274.523 36.6369 274.656 36.0569H276.396C276.276 36.7569 275.996 37.3469 275.556 37.8269C275.123 38.3069 274.599 38.6702 273.986 38.9169C273.379 39.1569 272.739 39.2769 272.066 39.2769ZM269.066 33.0869H274.686C274.686 32.4936 274.586 31.9602 274.386 31.4869C274.186 31.0069 273.879 30.6302 273.466 30.3569C273.059 30.0769 272.546 29.9369 271.926 29.9369C271.279 29.9369 270.743 30.0936 270.316 30.4069C269.889 30.7136 269.573 31.1102 269.366 31.5969C269.159 32.0769 269.059 32.5736 269.066 33.0869ZM281.807 39.2769C281.134 39.2769 280.54 39.1602 280.027 38.9269C279.52 38.6869 279.12 38.3436 278.827 37.8969C278.54 37.4502 278.397 36.9102 278.397 36.2769C278.397 35.1302 278.797 34.2769 279.597 33.7169C280.397 33.1569 281.68 32.8569 283.447 32.8169L285.287 32.7669V31.9569C285.287 31.3236 285.097 30.8236 284.717 30.4569C284.337 30.0836 283.75 29.8969 282.957 29.8969C282.364 29.9036 281.84 30.0436 281.387 30.3169C280.934 30.5902 280.644 31.0369 280.517 31.6569H278.887C278.927 30.9836 279.114 30.4169 279.447 29.9569C279.787 29.4902 280.264 29.1369 280.877 28.8969C281.49 28.6569 282.214 28.5369 283.047 28.5369C283.947 28.5369 284.694 28.6636 285.287 28.9169C285.887 29.1702 286.334 29.5436 286.627 30.0369C286.927 30.5302 287.077 31.1369 287.077 31.8569V39.0769H285.497L285.357 37.1369C284.964 37.9436 284.457 38.5036 283.837 38.8169C283.224 39.1236 282.547 39.2769 281.807 39.2769ZM282.357 37.9469C282.71 37.9469 283.057 37.8836 283.397 37.7569C283.744 37.6302 284.057 37.4602 284.337 37.2469C284.624 37.0269 284.854 36.7836 285.027 36.5169C285.2 36.2436 285.287 35.9636 285.287 35.6769V33.9069L283.757 33.9369C282.964 33.9502 282.304 34.0302 281.777 34.1769C281.25 34.3236 280.854 34.5536 280.587 34.8669C280.32 35.1802 280.187 35.5902 280.187 36.0969C280.187 36.6769 280.39 37.1302 280.797 37.4569C281.204 37.7836 281.724 37.9469 282.357 37.9469ZM292.572 39.2069C292.012 39.2069 291.558 39.1302 291.212 38.9769C290.872 38.8236 290.608 38.6169 290.422 38.3569C290.242 38.0969 290.118 37.8002 290.052 37.4669C289.992 37.1269 289.962 36.7769 289.962 36.4169V24.2169H291.782V36.2369C291.782 36.7569 291.882 37.1469 292.082 37.4069C292.288 37.6669 292.575 37.8102 292.942 37.8369L293.502 37.8469V39.0469C293.348 39.0936 293.188 39.1302 293.022 39.1569C292.855 39.1902 292.705 39.2069 292.572 39.2069ZM304.67 39.1269C303.956 39.1269 303.403 39.0302 303.01 38.8369C302.616 38.6436 302.34 38.3569 302.18 37.9769C302.026 37.5969 301.95 37.1302 301.95 36.5769V30.0869H300.27V28.7369H302L302.45 25.7269H303.81V28.7269H306.14V30.0869H303.81V36.5169C303.81 36.8836 303.846 37.1536 303.92 37.3269C304 37.4936 304.13 37.6002 304.31 37.6469C304.49 37.6936 304.743 37.7169 305.07 37.7169H306.2V38.9569C306.073 39.0036 305.88 39.0436 305.62 39.0769C305.366 39.1102 305.05 39.1269 304.67 39.1269ZM308.653 39.0769V24.2169H310.453V30.2569C310.626 29.9702 310.86 29.7036 311.153 29.4569C311.446 29.2036 311.803 29.0002 312.223 28.8469C312.643 28.6869 313.13 28.6069 313.683 28.6069C314.356 28.6069 314.966 28.7336 315.513 28.9869C316.06 29.2336 316.493 29.5869 316.813 30.0469C317.133 30.5069 317.293 31.0536 317.293 31.6869V39.0769H315.443V32.0569C315.443 31.4369 315.23 30.9602 314.803 30.6269C314.383 30.2869 313.833 30.1169 313.153 30.1169C312.693 30.1169 312.26 30.1936 311.853 30.3469C311.446 30.4936 311.116 30.7202 310.863 31.0269C310.616 31.3269 310.493 31.7102 310.493 32.1769V39.0769H308.653ZM324.546 39.2769C323.586 39.2769 322.74 39.0669 322.006 38.6469C321.273 38.2269 320.7 37.6236 320.286 36.8369C319.873 36.0502 319.666 35.1069 319.666 34.0069C319.666 32.9202 319.853 31.9669 320.226 31.1469C320.6 30.3269 321.14 29.6869 321.846 29.2269C322.56 28.7669 323.416 28.5369 324.416 28.5369C325.39 28.5369 326.213 28.7469 326.886 29.1669C327.56 29.5869 328.07 30.1802 328.416 30.9469C328.77 31.7069 328.946 32.6102 328.946 33.6569V34.3369H321.536C321.536 34.9902 321.643 35.5836 321.856 36.1169C322.076 36.6436 322.406 37.0636 322.846 37.3769C323.286 37.6902 323.843 37.8469 324.516 37.8469C325.176 37.8469 325.743 37.6936 326.216 37.3869C326.696 37.0802 327.003 36.6369 327.136 36.0569H328.876C328.756 36.7569 328.476 37.3469 328.036 37.8269C327.603 38.3069 327.08 38.6702 326.466 38.9169C325.86 39.1569 325.22 39.2769 324.546 39.2769ZM321.546 33.0869H327.166C327.166 32.4936 327.066 31.9602 326.866 31.4869C326.666 31.0069 326.36 30.6302 325.946 30.3569C325.54 30.0769 325.026 29.9369 324.406 29.9369C323.76 29.9369 323.223 30.0936 322.796 30.4069C322.37 30.7136 322.053 31.1102 321.846 31.5969C321.64 32.0769 321.54 32.5736 321.546 33.0869ZM339.971 39.2769C339.251 39.2769 338.581 39.1669 337.961 38.9469C337.347 38.7202 336.837 38.3702 336.431 37.8969C336.024 37.4169 335.771 36.8069 335.671 36.0669H337.351C337.437 36.4736 337.604 36.8136 337.851 37.0869C338.097 37.3536 338.401 37.5569 338.761 37.6969C339.127 37.8302 339.527 37.8969 339.961 37.8969C340.661 37.8969 341.224 37.7669 341.651 37.5069C342.077 37.2469 342.291 36.8469 342.291 36.3069C342.291 35.9269 342.177 35.6236 341.951 35.3969C341.731 35.1636 341.384 34.9936 340.911 34.8869L338.771 34.3569C337.937 34.1569 337.271 33.8436 336.771 33.4169C336.277 32.9902 336.027 32.3936 336.021 31.6269C336.021 31.0202 336.167 30.4869 336.461 30.0269C336.754 29.5669 337.191 29.2036 337.771 28.9369C338.357 28.6702 339.087 28.5369 339.961 28.5369C341.087 28.5369 341.994 28.7902 342.681 29.2969C343.367 29.7969 343.727 30.5336 343.761 31.5069H342.121C342.054 31.0136 341.834 30.6236 341.461 30.3369C341.087 30.0436 340.581 29.8969 339.941 29.8969C339.287 29.8969 338.751 30.0302 338.331 30.2969C337.917 30.5569 337.711 30.9636 337.711 31.5169C337.711 31.8836 337.857 32.1736 338.151 32.3869C338.451 32.5936 338.884 32.7669 339.451 32.9069L341.531 33.4269C342.004 33.5536 342.397 33.7202 342.711 33.9269C343.024 34.1336 343.271 34.3636 343.451 34.6169C343.631 34.8702 343.757 35.1369 343.831 35.4169C343.911 35.6902 343.951 35.9536 343.951 36.2069C343.951 36.8402 343.794 37.3869 343.481 37.8469C343.167 38.3002 342.714 38.6536 342.121 38.9069C341.527 39.1536 340.811 39.2769 339.971 39.2769ZM346.368 39.0769V24.2169H348.168V30.2569C348.341 29.9702 348.575 29.7036 348.868 29.4569C349.161 29.2036 349.518 29.0002 349.938 28.8469C350.358 28.6869 350.845 28.6069 351.398 28.6069C352.071 28.6069 352.681 28.7336 353.228 28.9869C353.775 29.2336 354.208 29.5869 354.528 30.0469C354.848 30.5069 355.008 31.0536 355.008 31.6869V39.0769H353.158V32.0569C353.158 31.4369 352.945 30.9602 352.518 30.6269C352.098 30.2869 351.548 30.1169 350.868 30.1169C350.408 30.1169 349.975 30.1936 349.568 30.3469C349.161 30.4936 348.831 30.7202 348.578 31.0269C348.331 31.3269 348.208 31.7102 348.208 32.1769V39.0769H346.368ZM362.031 39.2769C361.078 39.2769 360.245 39.0736 359.531 38.6669C358.825 38.2536 358.275 37.6502 357.881 36.8569C357.488 36.0636 357.291 35.0936 357.291 33.9469C357.291 32.8669 357.475 31.9202 357.841 31.1069C358.208 30.2936 358.745 29.6636 359.451 29.2169C360.158 28.7636 361.021 28.5369 362.041 28.5369C362.995 28.5369 363.821 28.7469 364.521 29.1669C365.221 29.5802 365.765 30.1902 366.151 30.9969C366.545 31.8036 366.741 32.7869 366.741 33.9469C366.741 35.0002 366.561 35.9269 366.201 36.7269C365.841 37.5269 365.311 38.1536 364.611 38.6069C363.918 39.0536 363.058 39.2769 362.031 39.2769ZM362.041 37.8169C362.655 37.8169 363.175 37.6602 363.601 37.3469C364.028 37.0336 364.351 36.5836 364.571 35.9969C364.798 35.4102 364.911 34.7136 364.911 33.9069C364.911 33.1669 364.811 32.5036 364.611 31.9169C364.418 31.3236 364.111 30.8536 363.691 30.5069C363.271 30.1602 362.721 29.9869 362.041 29.9869C361.415 29.9869 360.885 30.1436 360.451 30.4569C360.018 30.7636 359.688 31.2102 359.461 31.7969C359.241 32.3836 359.131 33.0869 359.131 33.9069C359.131 34.6336 359.228 35.2936 359.421 35.8869C359.621 36.4802 359.935 36.9502 360.361 37.2969C360.795 37.6436 361.355 37.8169 362.041 37.8169ZM371.253 39.0769L368.053 28.7369H369.773L372.133 36.6869H372.293L374.623 28.7369H376.023L378.443 36.6669H378.613L380.873 28.7369H382.613L379.473 39.0769H377.653L375.303 31.4469L373.053 39.0769H371.253ZM393.34 39.2769C392.387 39.2769 391.553 39.0736 390.84 38.6669C390.133 38.2536 389.583 37.6502 389.19 36.8569C388.797 36.0636 388.6 35.0936 388.6 33.9469C388.6 32.8669 388.783 31.9202 389.15 31.1069C389.517 30.2936 390.053 29.6636 390.76 29.2169C391.467 28.7636 392.33 28.5369 393.35 28.5369C394.303 28.5369 395.13 28.7469 395.83 29.1669C396.53 29.5802 397.073 30.1902 397.46 30.9969C397.853 31.8036 398.05 32.7869 398.05 33.9469C398.05 35.0002 397.87 35.9269 397.51 36.7269C397.15 37.5269 396.62 38.1536 395.92 38.6069C395.227 39.0536 394.367 39.2769 393.34 39.2769ZM393.35 37.8169C393.963 37.8169 394.483 37.6602 394.91 37.3469C395.337 37.0336 395.66 36.5836 395.88 35.9969C396.107 35.4102 396.22 34.7136 396.22 33.9069C396.22 33.1669 396.12 32.5036 395.92 31.9169C395.727 31.3236 395.42 30.8536 395 30.5069C394.58 30.1602 394.03 29.9869 393.35 29.9869C392.723 29.9869 392.193 30.1436 391.76 30.4569C391.327 30.7636 390.997 31.2102 390.77 31.7969C390.55 32.3836 390.44 33.0869 390.44 33.9069C390.44 34.6336 390.537 35.2936 390.73 35.8869C390.93 36.4802 391.243 36.9502 391.67 37.2969C392.103 37.6436 392.663 37.8169 393.35 37.8169ZM400.509 39.0769V28.7369H402.299V30.2369C402.465 29.9502 402.695 29.6802 402.989 29.4269C403.289 29.1736 403.649 28.9702 404.069 28.8169C404.495 28.6636 404.985 28.5869 405.539 28.5869C406.192 28.5869 406.792 28.7169 407.339 28.9769C407.892 29.2369 408.332 29.6436 408.659 30.1969C408.992 30.7436 409.159 31.4502 409.159 32.3169V39.0769H407.309V32.4969C407.309 31.6902 407.095 31.0936 406.669 30.7069C406.249 30.3136 405.702 30.1169 405.029 30.1169C404.562 30.1169 404.125 30.1936 403.719 30.3469C403.312 30.4936 402.982 30.7202 402.729 31.0269C402.475 31.3269 402.349 31.7069 402.349 32.1669V39.0769H400.509ZM420.801 39.2769C419.848 39.2769 419.014 39.0736 418.301 38.6669C417.594 38.2536 417.044 37.6502 416.651 36.8569C416.258 36.0636 416.061 35.0936 416.061 33.9469C416.061 32.8669 416.244 31.9202 416.611 31.1069C416.978 30.2936 417.514 29.6636 418.221 29.2169C418.928 28.7636 419.791 28.5369 420.811 28.5369C421.764 28.5369 422.591 28.7469 423.291 29.1669C423.991 29.5802 424.534 30.1902 424.921 30.9969C425.314 31.8036 425.511 32.7869 425.511 33.9469C425.511 35.0002 425.331 35.9269 424.971 36.7269C424.611 37.5269 424.081 38.1536 423.381 38.6069C422.688 39.0536 421.828 39.2769 420.801 39.2769ZM420.811 37.8169C421.424 37.8169 421.944 37.6602 422.371 37.3469C422.798 37.0336 423.121 36.5836 423.341 35.9969C423.568 35.4102 423.681 34.7136 423.681 33.9069C423.681 33.1669 423.581 32.5036 423.381 31.9169C423.188 31.3236 422.881 30.8536 422.461 30.5069C422.041 30.1602 421.491 29.9869 420.811 29.9869C420.184 29.9869 419.654 30.1436 419.221 30.4569C418.788 30.7636 418.458 31.2102 418.231 31.7969C418.011 32.3836 417.901 33.0869 417.901 33.9069C417.901 34.6336 417.998 35.2936 418.191 35.8869C418.391 36.4802 418.704 36.9502 419.131 37.2969C419.564 37.6436 420.124 37.8169 420.811 37.8169ZM431.73 39.2769C431.19 39.2702 430.68 39.1936 430.2 39.0469C429.727 38.8936 429.307 38.6702 428.94 38.3769C428.574 38.0836 428.284 37.7202 428.07 37.2869C427.864 36.8469 427.76 36.3369 427.76 35.7569V28.7369H429.61V35.5669C429.61 36.2402 429.817 36.7869 430.23 37.2069C430.65 37.6269 431.28 37.8369 432.12 37.8369C432.88 37.8369 433.49 37.6402 433.95 37.2469C434.417 36.8469 434.65 36.2536 434.65 35.4669V28.7369H436.49V39.0769H435.02L434.83 37.0969C434.704 37.6169 434.487 38.0369 434.18 38.3569C433.88 38.6769 433.517 38.9136 433.09 39.0669C432.67 39.2136 432.217 39.2836 431.73 39.2769ZM439.649 39.0769V28.7369H441.409V30.7269C441.582 30.2336 441.826 29.8269 442.139 29.5069C442.452 29.1802 442.809 28.9369 443.209 28.7769C443.616 28.6169 444.036 28.5369 444.469 28.5369C444.622 28.5369 444.772 28.5469 444.919 28.5669C445.066 28.5869 445.179 28.6202 445.259 28.6669V30.4569C445.159 30.4102 445.029 30.3802 444.869 30.3669C444.716 30.3469 444.586 30.3369 444.479 30.3369C444.066 30.3102 443.679 30.3369 443.319 30.4169C442.959 30.4902 442.642 30.6202 442.369 30.8069C442.096 30.9936 441.879 31.2402 441.719 31.5469C441.566 31.8469 441.489 32.2136 441.489 32.6469V39.0769H439.649ZM452.325 42.2969V28.7369H454.165L454.185 30.5369C454.305 30.3236 454.458 30.1002 454.645 29.8669C454.838 29.6336 455.072 29.4169 455.345 29.2169C455.625 29.0169 455.948 28.8536 456.315 28.7269C456.688 28.6002 457.112 28.5369 457.585 28.5369C458.412 28.5369 459.138 28.7269 459.765 29.1069C460.398 29.4802 460.892 30.0536 461.245 30.8269C461.598 31.6002 461.775 32.5802 461.775 33.7669C461.775 34.9536 461.602 35.9569 461.255 36.7769C460.915 37.5902 460.422 38.2102 459.775 38.6369C459.128 39.0636 458.348 39.2769 457.435 39.2769C456.975 39.2769 456.565 39.2102 456.205 39.0769C455.852 38.9502 455.542 38.7836 455.275 38.5769C455.015 38.3636 454.795 38.1369 454.615 37.8969C454.442 37.6569 454.298 37.4269 454.185 37.2069V42.2969H452.325ZM457.085 37.8369C457.938 37.8369 458.635 37.5136 459.175 36.8669C459.715 36.2136 459.985 35.2002 459.985 33.8269C459.985 32.6469 459.738 31.7102 459.245 31.0169C458.752 30.3236 458.032 29.9769 457.085 29.9769C456.125 29.9769 455.398 30.3336 454.905 31.0469C454.412 31.7536 454.165 32.6802 454.165 33.8269C454.165 34.5669 454.275 35.2402 454.495 35.8469C454.715 36.4536 455.042 36.9369 455.475 37.2969C455.908 37.6569 456.445 37.8369 457.085 37.8369ZM467.022 39.2769C466.348 39.2769 465.755 39.1602 465.242 38.9269C464.735 38.6869 464.335 38.3436 464.042 37.8969C463.755 37.4502 463.612 36.9102 463.612 36.2769C463.612 35.1302 464.012 34.2769 464.812 33.7169C465.612 33.1569 466.895 32.8569 468.662 32.8169L470.502 32.7669V31.9569C470.502 31.3236 470.312 30.8236 469.932 30.4569C469.552 30.0836 468.965 29.8969 468.172 29.8969C467.578 29.9036 467.055 30.0436 466.602 30.3169C466.148 30.5902 465.858 31.0369 465.732 31.6569H464.102C464.142 30.9836 464.328 30.4169 464.662 29.9569C465.002 29.4902 465.478 29.1369 466.092 28.8969C466.705 28.6569 467.428 28.5369 468.262 28.5369C469.162 28.5369 469.908 28.6636 470.502 28.9169C471.102 29.1702 471.548 29.5436 471.842 30.0369C472.142 30.5302 472.292 31.1369 472.292 31.8569V39.0769H470.712L470.572 37.1369C470.178 37.9436 469.672 38.5036 469.052 38.8169C468.438 39.1236 467.762 39.2769 467.022 39.2769ZM467.572 37.9469C467.925 37.9469 468.272 37.8836 468.612 37.7569C468.958 37.6302 469.272 37.4602 469.552 37.2469C469.838 37.0269 470.068 36.7836 470.242 36.5169C470.415 36.2436 470.502 35.9636 470.502 35.6769V33.9069L468.972 33.9369C468.178 33.9502 467.518 34.0302 466.992 34.1769C466.465 34.3236 466.068 34.5536 465.802 34.8669C465.535 35.1802 465.402 35.5902 465.402 36.0969C465.402 36.6769 465.605 37.1302 466.012 37.4569C466.418 37.7836 466.938 37.9469 467.572 37.9469ZM479.546 42.4969C477.926 42.4969 476.663 42.2602 475.756 41.7869C474.85 41.3202 474.396 40.6502 474.396 39.7769C474.396 39.4036 474.483 39.0869 474.656 38.8269C474.83 38.5602 475.036 38.3402 475.276 38.1669C475.516 37.9936 475.74 37.8569 475.946 37.7569C476.153 37.6502 476.29 37.5736 476.356 37.5269C476.236 37.4602 476.093 37.3769 475.926 37.2769C475.76 37.1769 475.61 37.0436 475.476 36.8769C475.35 36.7102 475.286 36.4936 475.286 36.2269C475.286 35.9002 475.44 35.6002 475.746 35.3269C476.053 35.0536 476.51 34.8502 477.116 34.7169C476.51 34.4102 476.036 34.0036 475.696 33.4969C475.356 32.9902 475.186 32.4402 475.186 31.8469C475.186 31.1802 475.366 30.6002 475.726 30.1069C476.086 29.6136 476.603 29.2369 477.276 28.9769C477.95 28.7102 478.753 28.5769 479.686 28.5769C480.36 28.5769 480.923 28.6569 481.376 28.8169C481.836 28.9702 482.263 29.1902 482.656 29.4769C482.763 29.4302 482.933 29.3602 483.166 29.2669C483.4 29.1669 483.653 29.0602 483.926 28.9469C484.206 28.8336 484.466 28.7269 484.706 28.6269C484.953 28.5202 485.15 28.4402 485.296 28.3869L485.286 30.0969L483.476 30.4369C483.583 30.6502 483.666 30.8836 483.726 31.1369C483.786 31.3902 483.816 31.6269 483.816 31.8469C483.816 32.4536 483.656 33.0036 483.336 33.4969C483.023 33.9902 482.546 34.3836 481.906 34.6769C481.266 34.9702 480.466 35.1169 479.506 35.1169C479.426 35.1169 479.323 35.1169 479.196 35.1169C479.076 35.1102 478.973 35.1036 478.886 35.0969C478.18 35.1169 477.693 35.1969 477.426 35.3369C477.166 35.4702 477.036 35.6202 477.036 35.7869C477.036 35.9802 477.186 36.1136 477.486 36.1869C477.786 36.2602 478.293 36.3236 479.006 36.3769C479.266 36.3902 479.586 36.4069 479.966 36.4269C480.353 36.4469 480.783 36.4736 481.256 36.5069C482.336 36.5736 483.17 36.8502 483.756 37.3369C484.343 37.8236 484.636 38.4802 484.636 39.3069C484.636 40.2469 484.216 41.0136 483.376 41.6069C482.543 42.2002 481.266 42.4969 479.546 42.4969ZM479.876 41.3069C480.83 41.3069 481.56 41.1636 482.066 40.8769C482.58 40.5902 482.836 40.1569 482.836 39.5769C482.836 39.1636 482.68 38.8269 482.366 38.5669C482.053 38.3002 481.58 38.1469 480.946 38.1069L478.046 37.9169C477.786 37.9036 477.516 37.9702 477.236 38.1169C476.956 38.2569 476.72 38.4536 476.526 38.7069C476.333 38.9602 476.236 39.2469 476.236 39.5669C476.236 40.1136 476.533 40.5402 477.126 40.8469C477.72 41.1536 478.636 41.3069 479.876 41.3069ZM479.566 33.9269C480.306 33.9269 480.903 33.7536 481.356 33.4069C481.816 33.0602 482.046 32.5469 482.046 31.8669C482.046 31.1669 481.816 30.6336 481.356 30.2669C480.903 29.9002 480.306 29.7169 479.566 29.7169C478.806 29.7169 478.193 29.9036 477.726 30.2769C477.266 30.6436 477.036 31.1736 477.036 31.8669C477.036 32.5202 477.256 33.0269 477.696 33.3869C478.143 33.7469 478.766 33.9269 479.566 33.9269ZM491.675 39.2769C490.715 39.2769 489.869 39.0669 489.135 38.6469C488.402 38.2269 487.829 37.6236 487.415 36.8369C487.002 36.0502 486.795 35.1069 486.795 34.0069C486.795 32.9202 486.982 31.9669 487.355 31.1469C487.729 30.3269 488.269 29.6869 488.975 29.2269C489.689 28.7669 490.545 28.5369 491.545 28.5369C492.519 28.5369 493.342 28.7469 494.015 29.1669C494.689 29.5869 495.199 30.1802 495.545 30.9469C495.899 31.7069 496.075 32.6102 496.075 33.6569V34.3369H488.665C488.665 34.9902 488.772 35.5836 488.985 36.1169C489.205 36.6436 489.535 37.0636 489.975 37.3769C490.415 37.6902 490.972 37.8469 491.645 37.8469C492.305 37.8469 492.872 37.6936 493.345 37.3869C493.825 37.0802 494.132 36.6369 494.265 36.0569H496.005C495.885 36.7569 495.605 37.3469 495.165 37.8269C494.732 38.3069 494.209 38.6702 493.595 38.9169C492.989 39.1569 492.349 39.2769 491.675 39.2769ZM488.675 33.0869H494.295C494.295 32.4936 494.195 31.9602 493.995 31.4869C493.795 31.0069 493.489 30.6302 493.075 30.3569C492.669 30.0769 492.155 29.9369 491.535 29.9369C490.889 29.9369 490.352 30.0936 489.925 30.4069C489.499 30.7136 489.182 31.1102 488.975 31.5969C488.769 32.0769 488.669 32.5736 488.675 33.0869ZM498.954 35.4069L498.464 24.6169H500.674L500.194 35.4069H498.954ZM498.464 39.0769V36.7469H500.664V39.0769H498.464ZM506.986 40.4769H526.986V20.4769H506.986V40.4769ZM526.986 40.4769H546.986V20.4769H526.986V40.4769Z" fill="black"/>
</svg>
